<svg fill="none" height="131" viewBox="0 0 252 131" width="252" xmlns="http://www.w3.org/2000/svg"><path d="m43.3142 25.9714s-5.7038 25.5377-5.058 24.8893c.6457-.6484 2.5039-4.0195 2.5039-4.0195s-4.7074 18.4106-4.059 17.641c.6484-.7697 1.9452-2.4618 1.9452-2.4618s-2.5857 7.9072-2.0058 7.1165c.5798-.7907 2.2641-2.7043 2.2641-2.7043l-7.0005 37.4484h25.021l-7.6436-33.5738s2.7227 4.5361 2.5935 3.5002c-.1291-1.0358-4.0195-12.7042-4.0195-12.7042s3.1128 5.0553 2.981 4.4069c-.1317-.6484-4.6705-17.6331-4.6705-17.6331s1.5551 5.1845 2.0743 4.6653c.5193-.5192-4.9261-26.5709-4.9261-26.5709z" fill="#ebebeb"/><path d="m109.94 100.971c-2.72-1.9791-5.34-4.2616-6.89-7.2321-1.549-2.9705-1.863-6.8028-.044-9.631 1.895-2.9441 5.648-4.2962 7.498-7.2667 1.758-2.8202 1.418-6.4259 2.278-9.6336.626-2.2186 1.819-4.236 3.461-5.8535 1.643-1.6175 3.678-2.7795 5.906-3.3716 3.181-.8039 6.84-.4823 9.394-2.5461 2.414-1.9505 3.002-5.4033 4.976-7.7992.866-1.0513 1.979-1.8717 3.24-2.3877 1.261-.5161 2.63-.7117 3.984-.5694 1.355.1423 2.654.6181 3.78 1.3848 1.125.7667 2.044 1.8004 2.673 3.0088 1.476 2.8413 1.183 6.2678.501 9.3964-.683 3.1286-1.722 6.2362-1.619 9.4386.082 2.5777.907 5.0711 1.318 7.6199s.327 5.3585-1.183 7.4512c-2.159 2.9942-6.497 3.5925-8.993 6.3258-3 3.2736-2.541 8.6742-5.467 12.0164-1.787 2.04-4.536 2.944-7.196 3.487-2.659.543-5.419.828-7.867 2.001-2.449 1.172-4.315 1.781-4.27 4.496" fill="#f5f5f5"/><path d="m160.185 27.2209s-5.703 25.5403-5.055 24.8919 2.501-4.0195 2.501-4.0195-4.705 18.408-4.056 17.6305c.648-.7776 1.942-2.4618 1.942-2.4618s-2.585 7.9072-2.005 7.1297c.579-.7776 2.266-2.7043 2.266-2.7043l-7 37.4456h25.018l-7.643-33.5763s2.722 4.5387 2.593 3.5002-4.019-12.7042-4.019-12.7042 3.112 5.0553 2.983 4.4096c-.129-.6458-4.668-17.6331-4.668-17.6331s1.556 5.1871 2.075 4.6679c.519-.5193-4.932-26.5762-4.932-26.5762z" fill="#ebebeb"/><path d="m90.5966 50.9531s-3.9668 17.7596-3.5161 17.3089 1.7422-2.7939 1.7422-2.7939-3.2736 12.7992-2.8229 12.2588c.4507-.5403 1.3522-1.7132 1.3522-1.7132s-1.7976 5.5008-1.3943 4.9605c.4032-.5404 1.5814-1.882 1.5814-1.882l-4.8682 26.0408h17.3961l-5.3192-23.3497s1.8925 3.1629 1.8029 2.4354c-.0896-.7274-2.7965-8.8349-2.7965-8.8349s2.1639 3.516 2.0743 3.0653-3.2446-12.2614-3.2446-12.2614 1.0807 3.6057 1.4418 3.2472c.361-.3585-3.4291-18.4818-3.4291-18.4818z" fill="#ebebeb"/><path d="m97.3625 24.7142c-.0049-3.6447 1.2735-7.1747 3.6105-9.971-1.6645 1.3849-3.0223 3.1018-3.9864 5.0411s-1.5133 4.0583-1.6124 6.2217.254 4.3237 1.0368 6.343 1.978 3.8531 3.5094 5.3845c1.5316 1.5314 3.3656 2.7266 5.3846 3.5094s4.179 1.1359 6.343 1.0368c2.163-.0991 4.282-.6483 6.222-1.6124 1.939-.9641 3.656-2.3219 5.041-3.9869-2.274 1.8961-5.042 3.1046-7.978 3.484-2.937.3794-5.921-.0862-8.602-1.3421-2.681-1.2558-4.949-3.25-6.5376-5.7488-1.5884-2.4987-2.4316-5.3985-2.4309-8.3593z" fill="#e0e0e0"/><path d="m152.183 19.9619.243.4428c.091.1682.23.3064.398.398l.442.2425-.442.2425c-.168.0907-.306.228-.398.3954l-.243.4428-.242-.4428c-.091-.1673-.228-.3047-.396-.3954l-.442-.2425.442-.2425c.168-.0918.305-.23.396-.398z" fill="#ebebeb"/><path d="m1.08065 0 .24249.442804c.09166.16816.22984.306341.398.397996l.4428.24249-.4428.24249c-.16797.0907-.30618.22799-.398.39536l-.24249.4428-.242488-.4428c-.090745-.16728-.228086-.30462-.39536-.39536l-.442802-.24249.442802-.24249c.167368-.091818.304656-.230021.39536-.397996z" fill="#ebebeb"/><path d="m250.081 1 .242.4428c.092.16816.23.30635.398.398l.443.24249-.443.24249c-.168.0907-.306.22799-.398.39536l-.242.4428-.243-.4428c-.091-.16728-.228-.30462-.395-.39536l-.443-.24249.443-.24249c.167-.09182.304-.23002.395-.398z" fill="#ebebeb"/><path d="m114.729 22.126.243.4428c.091.1674.228.3054.395.398l.443.2425-.443.2425c-.167.0907-.304.228-.395.3953l-.243.4428-.242-.4428c-.091-.1673-.228-.3046-.396-.3953l-.445-.2425.445-.2425c.167-.0926.304-.2306.396-.398z" fill="#ebebeb"/><path d="m97.7791 48.5913.1476.2636c.0553.1028.1396.1872.2425.2425l.2636.1476-.2636.1502c-.1021.0551-.1863.1383-.2425.2399l-.1476.2635-.1502-.2635c-.0562-.1016-.1404-.1848-.2425-.2399l-.2636-.1502.2636-.1476c.1028-.0553.1871-.1397.2425-.2425z" fill="#ebebeb"/><path d="m159.395 9 .147.26357c.058.10113.142.18489.243.24249l.263.1476-.263.1476c-.101.05761-.185.14136-.243.24254l-.147.2635-.148-.2635c-.056-.10226-.14-.18637-.242-.24254l-.264-.1476.264-.1476c.102-.05616.186-.14027.242-.24249z" fill="#ebebeb"/><path d="m33.4379 42.6267s-4.5414 20.3373-4.0274 19.8234c.514-.514 1.9926-3.2024 1.9926-3.2024s-3.7348 14.6599-3.2314 14.0405 1.5498-1.9531 1.5498-1.9531-2.0532 6.2889-1.5972 5.6695 1.8028-2.1534 1.8028-2.1534l-5.5746 29.8208h19.9209l-6.0859-26.7475s2.1666 3.6136 2.0638 2.786c-.1028-.8277-3.1998-10.116-3.1998-10.116s2.4776 4.0248 2.3722 3.5108c-.1055-.514-3.7164-14.0406-3.7164-14.0406s1.2388 4.1276 1.65 3.7164c.4111-.4112-3.9194-21.1544-3.9194-21.1544z" fill="#263238"/><path d="m53.3877 24.4717s-5.7037 25.5376-5.0554 24.8892c.6484-.6484 2.5014-4.0168 2.5014-4.0168s-4.7154 18.408-4.0564 17.6304c.6589-.7775 1.9425-2.4644 1.9425-2.4644s-2.5857 7.9072-2.0058 7.1165 2.2667-2.7043 2.2667-2.7043l-7.0005 37.4617h25.0184l-7.6436-33.5766s2.7201 4.5387 2.5909 3.5003c-.1291-1.0385-4.0168-12.7043-4.0168-12.7043s3.1101 5.0553 2.981 4.407c-.1292-.6484-4.6679-17.6305-4.6679-17.6305s1.5524 5.1871 2.0717 4.66c.5192-.5271-4.9262-26.5682-4.9262-26.5682z" fill="#455a64"/><path d="m176.06 20.2019s-6.228 27.8808-5.519 27.1744c.709-.7063 2.731-4.3885 2.731-4.3885s-5.137 20.0975-4.431 19.2409 2.124-2.6884 2.124-2.6884-2.823 8.6346-2.19 7.7833 2.472-2.952 2.472-2.952l-7.643 40.8824h27.322l-8.35-36.6389s2.973 4.9526 2.831 3.8218c-.143-1.1307-4.389-13.8719-4.389-13.8719s3.398 5.5193 3.255 4.8129c-.142-.7064-5.095-19.2409-5.095-19.2409s1.7 5.6616 2.264 5.0949-5.382-29.03-5.382-29.03z" fill="#455a64"/><path d="m200.117 105.27c0 .04-8.379.071-18.714.071s-18.714-.031-18.714-.071c0-.039 8.379-.068 18.714-.068s18.714.031 18.714.068z" fill="#263238"/><path d="m41.2477 104.672c0 .04-5.6536.071-12.6252.071-6.9715 0-12.6225-.031-12.6225-.071 0-.039 5.651-.068 12.6225-.068 6.9716 0 12.6252.031 12.6252.068z" fill="#263238"/><path d="m198.583 92.2893c-.008.0449-.022.0885-.043.1292-.039.0975-.087.2161-.147.361-.132.3084-.316.7591-.541 1.3179-.445 1.1202-1.014 2.6832-1.528 4.4465-.514 1.7631-.867 3.3921-1.091 4.5761-.111.59-.195 1.072-.264 1.404-.026.153-.05.28-.069.383-.004.045-.014.089-.031.131-.007-.045-.007-.091 0-.137 0-.102.026-.229.042-.385.04-.334.108-.819.208-1.415.266-1.55.618-3.083 1.055-4.594.443-1.5098.971-2.9934 1.581-4.4438.235-.5562.435-1.0016.582-1.3179l.172-.3479c.021-.0385.045-.0747.074-.1081z" fill="#263238"/><path d="m193.83 100.239c.004.249-.006.498-.031.746-.053 1.198.126 2.396.527 3.526.097.23.18.465.25.704-.138-.208-.249-.433-.329-.669-.456-1.131-.637-2.353-.527-3.567.004-.25.041-.499.11-.74z" fill="#263238"/><path d="m199.336 99.6431c.014.0237-.334.1871-.819.5589-.284.218-.549.46-.791.725-.29.326-.548.679-.77 1.054-.215.38-.391.781-.527 1.197-.109.343-.186.696-.232 1.054-.076.606-.042.988-.071.991-.022-.086-.033-.175-.034-.264-.009-.104-.009-.209 0-.313-.003-.14.004-.28.018-.419.033-.364.103-.724.209-1.073.254-.86.705-1.648 1.317-2.304.249-.266.524-.507.82-.719.113-.083.231-.1585.353-.227.084-.0576.172-.1079.264-.1502.081-.051.17-.0884.263-.1107z" fill="#263238"/><path d="m21.3742 104.559c-.0195-.428-.0617-.855-.1265-1.279-.0211-.097-.0422-.197-.0633-.303-.0211-.105-.0659-.211-.0975-.321-.0742-.237-.1622-.47-.2636-.696-.2414-.513-.5441-.994-.9014-1.434-.3685-.432-.789-.8175-1.252-1.1466-.2021-.1374-.4135-.2607-.6325-.369-.1028-.0527-.2004-.1107-.2979-.1529l-.2873-.1186c-.4058-.1394-.8183-.2582-1.2361-.3558.1167-.0002.2331.0103.3479.0316.1355.015.2695.0415.4006.0791.1793.0388.3555.0908.5272.1555l.2952.1107c.1028.0395.2029.0975.3083.1476.2246.1082.442.2306.6511.3663.4733.3321.9028.7227 1.2783 1.1621.3674.45.6757.945.9172 1.474.1041.231.1921.468.2636.711.0316.114.0712.224.0923.332.021.108.0369.211.0553.311.0325.174.0519.351.058.528.013.136.013.274 0 .411.0021.119-.0103.239-.0369.356z" fill="#263238"/><path d="m20.2883 89.6008c.0325.0419.0591.088.0791.1371l.203.398c.0896.1739.1924.3901.3004.6431.1081.253.2452.5403.3664.8672.1212.3268.2636.68.398 1.0701s.2636.8091.3927 1.2493c.2726.9659.4917 1.9462.6563 2.9362.1497.9895.2456 1.9864.2873 2.9863 0 .4609.0237.9019 0 1.3179s-.0237.791-.0474 1.141c-.0238.351-.0527.662-.0791.936s-.058.514-.0896.706l-.0712.443c-.0058.052-.0164.103-.0316.153-.0064-.053-.0064-.106 0-.158 0-.116.0263-.264.0448-.446.0184-.181.0474-.429.0659-.703.0184-.274.0501-.591.0606-.936.0106-.345.0316-.727.029-1.136s0-.846-.0211-1.3047c-.0481-.9946-.1475-1.9861-.2978-2.9705-.1553-.9862-.3621-1.9636-.6194-2.9283-.1292-.4402-.2451-.8619-.3796-1.2467-.1344-.3848-.2635-.7459-.3795-1.0701s-.2425-.6168-.3453-.8724c-.1028-.2557-.2003-.4745-.2794-.6511s-.1344-.3031-.1792-.4111c-.0272-.0473-.0484-.0978-.0633-.1503z" fill="#263238"/><path d="m138.506 90.4968c-.079-.0043-.156-.0259-.226-.0633-.197-.0845-.381-.1954-.549-.3294-.213-.1661-.448-.3822-.706-.6273-.3-.2602-.522-.5988-.64-.9779-.053-.196-.053-.4024 0-.5983l.084.0791c-.271.1456-.515.3364-.722.564-.096.0932-.211.1636-.337.2061-.127.0424-.261.0558-.393.039-.09-.0166-.172-.0596-.237-.1235s-.109-.1457-.127-.2349c-.019-.1265.029-.1872.032-.1819-.003.0583.002.1167.013.174.023.0739.067.1397.127.19.059.0503.131.0831.207.0946.12.0057.239-.015.35-.0605.111-.0456.21-.1149.291-.203.212-.2444.466-.448.751-.601l.121-.0474-.021.1449c-.045.1728-.045.3544 0 .5272.113.3566.319.6768.596.9278.25.2451.48.4665.68.6378.217.181.454.3366.706.4639z" fill="#ff725e"/><path d="m137.125 85.6261c-.408-.0384-.819.0326-1.191.2056-.856.4006-1.697.832-2.523 1.2941-.224.1266-.484.3427-.4.5852.034.0725.09.1326.16.1718.07.0393.15.0557.23.0469.159-.0213.312-.0771.448-.1634-.047.0106-.091.0318-.128.062-.037.0303-.067.0687-.087.1124-.02.0436-.029.0913-.027.1392.001.048.014.0949.036.1371.055.0823.134.1461.225.1833.092.0371.193.0458.289.025.194-.0456.375-.1359.528-.2636-.026.0436-.042.0921-.047.1423s.001.1009.017.1488c.016.0478.042.0917.076.1288s.076.0664.122.0861c.097.0339.199.0445.301.0313.101-.0133.197-.0502.282-.1077.166-.1164.324-.2451.472-.3848.18-.119.371-.2197.571-.3005.062.7018.367 1.3601.862 1.8608.513.458 1.083.8478 1.695 1.1598.792-.8759 1.491-1.8307 2.088-2.8493-.981-.846-1.877-1.3547-2.881-2.0479-.331-.2276-.715-.3673-1.115-.4059z" fill="#b78876"/><path d="m139.872 87.7347c-.103-.0505-.201-.1105-.293-.1792l-.791-.5272c-.332-.2135-.73-.4612-1.18-.7248-.225-.1464-.466-.2674-.717-.3611-.062-.0214-.125-.0347-.19-.0396-.027-.0023-.054.0007-.08.0088s-.05.0213-.07.0387c-.066.0474.063.1792.15.2978l.983 1.2705.024.0316-.016.0316c-.156.3291-.189.7028-.095 1.0543.075.2742.226.5217.435.7143.192.1678.414.2984.654.3848-.07-.0009-.139-.0152-.203-.0422-.184-.0621-.354-.1587-.501-.2846-.231-.1951-.4-.4535-.485-.7433-.108-.3746-.079-.7756.082-1.1307v.0659l-.991-1.2652c-.045-.0632-.09-.116-.14-.1845-.026-.0389-.044-.0829-.053-.1291-.003-.0274-.001-.0553.007-.0816.008-.0264.022-.0507.041-.0713.068-.0512.148-.0826.233-.0905s.17.0079.246.0457c.261.0982.509.2255.741.3795.448.2636.843.5272 1.17.7538.327.2267.585.4139.762.5483.1.0665.193.1434.277.2293z" fill="#aa6550"/><path d="m136.477 87.2866c-.279.1995-.578.3674-.894.5008-.297.1665-.608.3059-.93.4165.259-.2235.554-.4017.872-.5272.297-.1749.618-.3062.952-.3901z" fill="#aa6550"/><path d="m137.162 86.9518c-.311-.031-.619-.091-.92-.1792h.037l-.833.3637-1.196.5271c-.162.0813-.329.15-.501.2056-.024-.0448.706-.448 1.645-.846.305-.1318.593-.2636.84-.348h.019.008c.308.0628.61.1555.901.2768z" fill="#aa6550"/><path d="m177.057 113.035.825 3.163h8.17s-1.9-1.447-5.648-1.392l-.364-1.766z" fill="#b78876"/><path d="m154.305 99.0104 4.605-4.8208-.528 6.4684-1.794 4.019 12.801 7.23s1.505-7.443 2.312-12.5909c.654-4.1671.986-13.2393.986-13.2393l-3.762-1.8266-5.595.5272-2.272.6431c-.972.2741-1.861.7838-2.589 1.4839l-7.324 7.0295-10.562-6.642-2.409 4.0511 10.433 8.1234c.471.3537 1.011.6066 1.584.7426.574.136 1.169.152 1.75.048.901-.152 1.729-.5894 2.364-1.2466z" fill="#ff725e"/><path d="m172.37 85.9397s2.831 1.0543 3.514 3.2657c.609 1.9662 2.636 13.0236 2.636 13.0236l2.008 11.7-4.217.16-4.845-19.9416z" fill="#ff725e"/><path d="m158.285 100.363c0-.032.155-2.2435.419-5.0084s.506-4.9947.54-4.992c.035.0026-.155 2.243-.419 5.0078-.263 2.7649-.424 5.2796-.54 4.9926z" fill="#263238"/><path d="m167.602 94.8616s0 .0395-.037.1107l-.126.3031c-.066.1619-.141.3195-.227.4718-.101.2082-.213.4106-.337.6062-.066.1107-.137.224-.211.3453-.074.1212-.164.2346-.264.3584-.168.2636-.377.4982-.593.7618-.48.5585-1.009 1.0727-1.581 1.5366-.579.4537-1.196.8555-1.845 1.2015-.309.148-.596.298-.878.404-.142.055-.263.116-.406.163l-.385.129c-.239.087-.469.137-.664.19-.168.047-.339.085-.511.113l-.327.056c-.038.006-.076.006-.113 0 .034-.016.07-.028.108-.035l.321-.079c.17-.034.338-.078.504-.131.195-.058.419-.114.656-.206l.377-.134c.132-.048.264-.111.401-.169.279-.111.564-.264.864-.409.648-.347 1.265-.7478 1.845-1.1989.568-.4598 1.097-.9658 1.582-1.5129.213-.2636.424-.5035.593-.7486.087-.1239.179-.2372.263-.3532l.216-.3374c.145-.2108.248-.4164.351-.593s.179-.3295.242-.4586l.148-.2952c.009-.0307.02-.0607.034-.0896z" fill="#263238"/><path d="m159.771 101.496c-.2-.075-.364-.222-.462-.412-.097-.19-.12-.41-.065-.616.066-.202.174-.388.318-.5451.144-.1569.319-.2811.515-.3643.393-.1627.802-.2838 1.22-.3611 1.8-.4412 3.446-1.3642 4.761-2.67.121-.1212.292-.2635.442-.1713.201.1107.077.4165-.073.5904-1.812 2.1072-4.161 3.6834-6.798 4.5594" fill="#000" opacity=".04"/><path d="m172.552 98.8627c-.037-.0754-.066-.155-.084-.2373-.048-.1555-.111-.3821-.187-.6615-.15-.5588-.346-1.3364-.527-2.2009-.182-.8645-.351-1.6499-.454-2.2193-.052-.2846-.092-.5271-.116-.6773-.019-.0865-.027-.1751-.023-.2636.033.0785.057.1608.071.2451.042.1819.092.4059.15.6695.132.593.303 1.36.49 2.2087s.369 1.6131.504 2.2061c.06.2636.11.4877.15.6695.02.0854.029.1732.026.261z" fill="#263238"/><path d="m150.989 95.6024c-.028-.3229-.014-.6479.04-.9674.011-.3235.065-.6441.158-.9541.028.3228.014.6479-.04.9673-.014.3232-.067.6436-.158.9542z" fill="#263238"/><path d="m177.007 112.872c.09.182.145.381.16.585.054.198.069.405.045.609-.092-.184-.147-.384-.163-.588-.056-.197-.07-.404-.042-.606z" fill="#263238"/><path d="m178.388 112.869c.087.163.138.343.15.527.049.179.06.367.031.551-.087-.163-.139-.343-.15-.527-.048-.18-.059-.367-.031-.551z" fill="#263238"/><path d="m179.7 112.737c.077.192.124.395.14.601.054.199.076.406.066.612-.108-.18-.171-.384-.185-.593-.053-.203-.061-.414-.021-.62z" fill="#263238"/><path d="m174.634 87.3024c0 .0237-.292 0-.748.1002-.593.1239-1.146.3959-1.605.7907-.455.4009-.8.9118-1.002 1.4839-.158.4375-.179.7327-.2.7275-.013-.068-.013-.1377 0-.2056.021-.1868.06-.3712.116-.5509.184-.5991.532-1.1349 1.004-1.547s1.05-.6842 1.668-.7856c.186-.031.374-.0442.562-.0395.069-.0035.139.0054.205.0263z" fill="#263238"/><path d="m144.911 112.845s-7.209 1.995-7.499 2.109c-.434.153-.361 1.745.314 1.718.319 0 5.535.195 6.197.156.661-.04 2.649-.825 2.649-.825z" fill="#ff725e"/><path d="m141.909 115.597c-.091-.264-.198-.523-.319-.775-.156-.231-.326-.451-.508-.662.255.142.467.35.613.604.146.253.22.541.214.833z" fill="#263238"/><path d="m142.66 115.257c-.037 0-.108-.335-.3-.712s-.419-.64-.393-.664c.223.15.397.361.501.609.137.232.203.498.192.767z" fill="#263238"/><path d="m143.377 115.067c-.036-.258-.092-.513-.169-.762-.112-.235-.243-.46-.392-.674.242.139.422.363.506.63.12.252.14.54.055.806z" fill="#263238"/><path d="m143.238 114.137c-.063-.168-.09-.348-.08-.527.003-.198.028-.395.074-.588.029-.114.065-.226.108-.335.024-.067.063-.128.116-.176.036-.028.081-.041.127-.039.045.002.088.021.121.052.056.053.09.126.095.203.004.063.004.126 0 .19-.002.119-.017.237-.045.353-.048.193-.124.378-.224.551-.08.163-.189.31-.321.434-.019 0 .102-.179.247-.474.084-.167.148-.344.19-.527.023-.108.034-.219.034-.33 0-.11 0-.247-.068-.303-.014-.011-.03-.017-.048-.017-.017 0-.034.006-.047.017-.036.036-.063.079-.079.127-.042.104-.079.21-.108.319-.051.183-.083.371-.095.561-.011.301.021.506.003.509z" fill="#263238"/><path d="m143.245 114.063c.148-.062.308-.087.467-.074.172-.002.344.019.511.061.102.023.2.059.293.108.059.03.107.078.137.137.029.06.038.127.026.192-.015.064-.048.123-.094.169-.047.047-.105.08-.169.095-.107.026-.218.026-.325 0-.171-.043-.331-.122-.469-.232-.131-.088-.244-.2-.334-.329.135.077.263.165.384.263.134.092.285.157.443.193.087.02.177.02.264 0 .042-.011.08-.033.111-.063s.053-.067.065-.109c.007-.04 0-.082-.02-.118-.019-.036-.05-.065-.088-.082-.083-.045-.171-.08-.263-.103-.16-.044-.323-.072-.488-.084-.271-.035-.448-.006-.451-.024z" fill="#263238"/><path d="m140.799 115.673c-.027-.22-.075-.437-.142-.648-.099-.199-.217-.388-.353-.564.013-.032.314.14.466.527.054.106.084.221.089.34.005.118-.015.236-.06.345z" fill="#263238"/><path d="m145.831 116.008c-.088.053-.182.096-.279.129-.258.102-.522.185-.791.251-.904.198-1.829.287-2.754.263-1.081-.013-2.054-.06-2.76-.089l-.836-.045c-.102-.001-.205-.011-.305-.032.102-.015.205-.02.308-.016h.836l2.759.053c.917.022 1.833-.053 2.733-.224.678-.134 1.081-.313 1.089-.29z" fill="#263238"/><path d="m146.045 116.171c-.18-.072-.356-.154-.527-.245-.425-.201-.898-.28-1.366-.226-.458.1-.871.346-1.178.701-.127.152-.267.294-.416.424.096-.175.215-.337.353-.482.141-.167.301-.316.477-.446.22-.163.476-.271.746-.316.489-.062.986.03 1.42.264.18.083.345.193.491.326z" fill="#263238"/><path d="m152.565 110.855s6.822 4.468 7.067 4.652c.366.277-.053 1.6-.691 1.371-.3-.108-6.025-1.7-6.642-1.94s-2.272-1.581-2.272-1.581z" fill="#ff725e"/><path d="m154.59 114.39c.083-.28.242-.533.458-.73.215-.197.481-.332.767-.39-.238.146-.467.305-.688.477-.191.204-.37.418-.537.643z" fill="#263238"/><path d="m153.978 113.836c.087-.251.229-.481.416-.671.186-.191.412-.338.662-.43.019.031-.282.21-.577.514-.295.303-.469.603-.501.587z" fill="#263238"/><path d="m153.364 113.441c.021-.274.125-.536.298-.75.174-.213.408-.369.672-.447-.207.16-.4.336-.577.528-.149.212-.28.436-.393.669z" fill="#263238"/><path d="m153.767 112.592c-.016 0 .077-.192.156-.508.046-.186.072-.376.079-.567.006-.111.006-.223 0-.335-.002-.05-.014-.1-.037-.145-.01-.015-.026-.025-.043-.029-.018-.004-.036-.001-.052.008-.076.032-.119.164-.155.264-.034.105-.056.214-.066.324-.021.195-.018.391.008.585.05.324.113.527.094.527-.091-.157-.151-.331-.176-.511-.044-.195-.059-.394-.045-.593.009-.119.03-.236.063-.351.019-.061.042-.121.069-.179.029-.071.083-.13.153-.163.041-.02.087-.025.131-.013.044.011.083.038.109.076.035.062.054.132.055.203.008.117.008.234 0 .35-.014.198-.052.394-.111.583-.041.173-.12.335-.232.474z" fill="#263238"/><path d="m153.783 112.521c0 .018-.169-.063-.445-.132-.16-.038-.324-.06-.488-.066-.093-.007-.188-.001-.279.019-.041.005-.079.023-.109.051-.029.029-.049.066-.055.107-.002.043.007.086.027.124s.05.07.087.092c.079.049.17.078.263.084.162.015.324-.001.48-.047.145-.053.293-.097.443-.132-.272.196-.601.298-.936.29-.109-.006-.215-.039-.308-.097-.055-.035-.099-.083-.129-.14-.029-.057-.043-.12-.04-.185.009-.066.04-.128.087-.176.048-.047.11-.078.176-.087.104-.02.21-.025.314-.013.172.009.342.041.506.095.15.039.289.112.406.213z" fill="#263238"/><path d="m158.071 116.63s-.113-.071-.166-.263c-.054-.254-.009-.519.127-.741.068-.119.144-.233.229-.34.066-.093.144-.176.232-.248.062-.052.138-.084.219-.092.055 0 .084.013.084.018-.092.028-.176.076-.248.14-.073.076-.139.159-.197.248-.076.107-.147.218-.211.332-.124.199-.177.434-.15.667.023.174.097.266.081.279z" fill="#263238"/><path d="m155.623 114.798c.002-.239.087-.47.24-.654.153-.183.366-.308.601-.352-.182.129-.352.274-.509.432-.128.181-.239.373-.332.574z" fill="#263238"/><path d="m150.728 113.589c.106.06.206.128.301.205.27.191.551.367.841.527.432.227.878.425 1.336.593.527.193 1.096.375 1.708.554 1.228.353 2.34.675 3.142.917l.946.29c.118.032.234.073.345.124-.12-.016-.24-.043-.356-.079l-.959-.264c-.809-.221-1.922-.527-3.163-.883-.614-.179-1.194-.366-1.713-.564-.461-.175-.909-.384-1.339-.624-.289-.165-.566-.35-.828-.554-.094-.072-.182-.153-.261-.242z" fill="#263238"/><path d="m150.475 113.681c.183-.082.378-.135.578-.156.484-.09.985-.028 1.433.177.244.124.455.305.615.527.128.177.236.368.321.569.087.18.151.371.19.567-.102-.169-.19-.345-.264-.527-.183-.432-.502-.792-.909-1.025-.428-.194-.902-.263-1.368-.201-.369.037-.577.087-.596.069z" fill="#263238"/><path d="m139.972 91.4457c-.256-.096-.495-.2312-.709-.4006-.238-.1348-.454-.3065-.638-.5087.257.0941.498.2294.712.4006.238.1334.453.3053.635.5087z" fill="#263238"/><path d="m140.675 90.3413c-.495-.2258-.951-.5322-1.346-.9067.257.0931.497.2275.711.398.239.1334.453.3053.635.5087z" fill="#263238"/><path d="m141.324 89.287c-.257-.0954-.497-.2306-.712-.4006-.238-.1335-.453-.3053-.635-.5087.257.0947.497.23.712.4006.238.1334.453.3053.635.5087z" fill="#263238"/><path d="m144.092 112.764s16.731-10.976 17.416-11.205c.686-.229 2.341-1.318 3.996-.856 1.656.461 3.142 1.942 3.883 4.111.74 2.17.79 7.022.79 7.022s-1.317 3.827-3.882 4.626c-.22.066-.444.122-.669.166-1.542.284-3.133.105-4.572-.517-1.438-.621-2.66-1.656-3.51-2.973l-.374-.569s-10.944 4.022-11.115 3.953z" fill="#263238"/><path d="m138.385 99.9619c-.605.2421-1.124.6591-1.49 1.1981-.366.54-.562 1.176-.563 1.828-.019 4.396 8.882 9.241 8.882 9.241l11.843-7.847v-.825s-15.245-5.4797-18.672-3.5951z" fill="#263238"/><path d="m164.792 109.743-.092.039-.263.109-1.055.408-3.953 1.487c-1.674.624-3.69 1.365-5.931 2.185-2.24.819-4.744 1.716-7.409 2.617l-.047.018-.024-.047-1.318-2.496c-.229-.435-.456-.867-.667-1.273l-.026-.048.048-.029 12.764-8.102 3.835-2.419 1.055-.649.263-.166.095-.055s-.029.024-.089.063l-.264.177-1.028.669-3.814 2.449-12.741 8.134.018-.079c.214.403.441.838.667 1.273l1.318 2.496-.071-.029c2.662-.899 5.155-1.793 7.409-2.604l5.938-2.162 3.954-1.449 1.067-.391.264-.097z" fill="#455a64"/><path d="m151.058 108.346c-.109-.061-.212-.132-.309-.211-.195-.14-.471-.348-.811-.611-.678-.528-1.6-1.266-2.591-2.109s-1.869-1.653-2.489-2.243c-.311-.298-.558-.527-.727-.709-.095-.081-.183-.169-.264-.264.102.072.197.152.285.24l.754.68c.635.575 1.515 1.363 2.506 2.214.992.852 1.906 1.603 2.568 2.143l.79.641c.103.067.199.144.288.229z" fill="#455a64"/><path d="m141.73 101.604c.383-.061.775-.026 1.141.103.376.091.724.272 1.015.527-.021.031-.453-.243-1.054-.417s-1.105-.171-1.102-.213z" fill="#455a64"/><path d="m142.75 100.911c.272.115.512.296.699.525.186.23.314.502.371.793-.034.013-.164-.356-.464-.723-.3-.366-.625-.564-.606-.595z" fill="#455a64"/><path d="m137.734 114.825s.143-.042.306.095c.192.18.314.423.343.685.037.258 0 .522-.108.759-.085.179-.177.264-.188.264.03-.098.066-.194.108-.288.078-.228.101-.47.069-.709-.028-.237-.126-.46-.282-.64-.124-.135-.25-.14-.248-.166z" fill="#263238"/><path d="m143.114 110.942c-.067-.031-.129-.069-.188-.113-.121-.079-.297-.193-.527-.351-.445-.313-1.08-.79-1.826-1.41-.874-.733-1.705-1.517-2.488-2.346-.477-.48-.901-1.01-1.266-1.581-.188-.31-.325-.65-.403-1.004-.041-.181-.07-.364-.087-.548-.013-.188-.013-.377 0-.565.062-.734.302-1.443.701-2.063.413-.557 1.005-.954 1.677-1.1258 1.111-.2949 2.267-.3842 3.41-.2636.767.0735 1.527.1976 2.278.3717.263.0577.471.1077.611.1447.071.015.141.036.208.064-.073-.008-.145-.02-.216-.037l-.614-.1216c-.751-.1531-1.511-.2631-2.275-.3295-1.129-.1083-2.269-.0137-3.365.2794-.644.1667-1.211.5487-1.606 1.0837-.384.603-.616 1.29-.674 2.003-.013.18-.013.36 0 .54.016.177.044.354.084.527.074.342.205.669.387.968.357.568.772 1.098 1.239 1.581.778.829 1.6 1.617 2.462 2.359.738.635 1.36 1.115 1.798 1.439l.503.372c.061.039.12.081.177.126z" fill="#ff725e"/><path d="m143.662 101.891c-.49-.311-1.031-.535-1.597-.661-.574-.084-1.158-.069-1.727.044.152-.087.319-.144.493-.168.839-.166 1.709-.005 2.433.45.153.085.289.198.398.335z" fill="#ff725e"/><path d="m156.648 104.638c.021.031-2.715 1.868-6.107 4.103-3.392 2.236-6.16 4.025-6.178 3.994-.019-.032 2.704-1.864 6.107-4.104 3.403-2.241 6.157-4.022 6.178-3.993z" fill="#ff725e"/><path d="m160.813 76.8701c-1.78-1.9214-.077-4.3384.753-4.9815.831-.6431 1.932-1.0543 2.921-.6932.643-.767 1.808-.8935 2.775-.6352.484.1387.92.4094 1.259.7818s.567.8318.66 1.3268c.119.6853-.029 1.4285.285 2.0479.224.4428.645.7407 1.02 1.0543.374.3137.732.7328.759 1.2256.026.4929-.477 1.0122-.933.825.329.4017.589.855.769 1.3416.089.2438.117.5058.08.7627-.036.257-.135.501-.288.7107-.335.398-1.009.5061-1.373.1371.139.3491.161.7337.063 1.0964-.052.1799-.158.3397-.303.4583-.144.1186-.322.1904-.509.2059-.092.0009-.182-.018-.266-.0555s-.159-.0927-.22-.1618c-.06-.0691-.105-.1504-.131-.2385-.027-.088-.033-.1807-.021-.2716" fill="#263238"/><path d="m168.554 75.4625.445 9.0116c.018.3641-.038.728-.166 1.0696-.127.3416-.322.6537-.574.9173s-.555.4732-.89.616-.696.2159-1.061.2147c-.69.0001-1.353-.2654-1.852-.7415s-.796-1.1261-.828-1.8151c-.035-.6774-.064-1.2441-.072-1.3179 0 0-2.303-.1028-2.583-2.3722-.134-1.0938-.226-3.3684-.287-5.427-.031-1.0661.341-2.1048 1.041-2.9092.701-.8045 1.678-1.3157 2.739-1.4318l.219-.0264c2.382-.108 3.811 1.8371 3.869 4.2119z" fill="#b78876"/><path d="m163.559 83.3908c1.049-.0961 2.045-.5016 2.862-1.165 0 0-.527 1.7053-2.801 1.7528z" fill="#aa6550"/><path d="m161.416 77.0468c.009.0842.05.1616.115.2158s.149.0808.233.0741c.042-.001.082-.0103.12-.0274.038-.017.072-.0415.101-.072.028-.0305.05-.0663.064-.1053.014-.0391.02-.0806.018-.1221-.009-.0844-.05-.1621-.115-.2167s-.148-.0818-.233-.0758c-.042.0009-.083.0103-.121.0276-.038.0172-.072.042-.1.0727-.029.0308-.05.0669-.064.1063-.014.0393-.02.0811-.018.1228z" fill="#263238"/><path d="m161.3 76.6909c.045.0369.264-.1713.62-.2082.355-.0369.622.1081.653.0606.032-.0474-.031-.0922-.153-.1607-.161-.0874-.345-.1233-.527-.1028-.18.0203-.35.0968-.485.2187-.095.1081-.124.174-.108.1924z" fill="#263238"/><path d="m164.835 76.7514c.008.0844.049.1621.114.2167s.149.0818.234.0759c.041-.0017.082-.0116.12-.0291.037-.0174.071-.0422.099-.0728.029-.0306.05-.0665.065-.1055.014-.0391.02-.0805.019-.1221-.009-.0844-.05-.1621-.115-.2167s-.149-.0818-.233-.0759c-.042.0014-.083.011-.121.0284s-.072.0421-.1.0728c-.028.0306-.05.0666-.064.1058s-.02.0809-.018.1225z" fill="#263238"/><path d="m164.727 76.3772c.044.0369.263-.1714.619-.2083s.622.1081.656.0607c.035-.0475-.034-.0923-.153-.1608-.161-.0868-.345-.1218-.527-.1002-.181.018-.351.0948-.485.2188-.095.0922-.11.1739-.11.1898z" fill="#263238"/><path d="m163.757 79.0974c-.191-.0351-.384-.0484-.577-.0395-.09 0-.177 0-.198-.0659-.015-.0891-.004-.1806.031-.2636.058-.2267.122-.4613.188-.7064.18-.6036.312-1.2205.395-1.845-.228.5851-.409 1.187-.543 1.8002-.061.2478-.119.4824-.177.709-.04.1143-.04.239 0 .3532.017.0299.04.0556.068.0753.028.0196.06.0326.093.0381.051.0076.102.0076.153 0 .191.0069.381-.0117.567-.0554z" fill="#263238"/><path d="m164.808 79.2265c-.058 0-.015.3796-.311.6853-.295.3058-.701.3058-.698.3585.002.0527.1.0632.263.0501.222-.0209.43-.1199.586-.2794.149-.1531.234-.3579.237-.572 0-.1581-.05-.2477-.077-.2425z" fill="#263238"/><path d="m164.495 75.0251c.045.0923.387 0 .79.0132.404.0132.757.0791.791-.0132.021-.0421-.047-.1265-.19-.2029-.19-.0941-.399-.142-.611-.1397-.211-.0029-.42.045-.609.1397-.124.0738-.19.1581-.171.2029z" fill="#263238"/><path d="m161.324 75.6683c.069.0711.301-.0369.588-.0712s.527 0 .585-.0949c.021-.0448-.026-.1186-.142-.1819-.153-.0767-.325-.1034-.493-.0764-.169.022-.328.0957-.454.2109-.092.0975-.108.1766-.084.2135z" fill="#263238"/><path d="m168.554 77.1628c.037-.0211 1.505-.6326 1.626.9199.121 1.5524-1.463 1.3574-1.471 1.3178-.008-.0395-.155-2.2377-.155-2.2377z" fill="#b78876"/><path d="m169.139 78.7679s.029.0184.076.0343c.033.0134.067.0203.102.0203s.069-.0069.101-.0203c.095-.0718.17-.1674.216-.277.046-.1097.063-.2296.048-.3477-.007-.1339-.044-.2646-.108-.3822-.018-.0476-.047-.0901-.085-.1237-.039-.0335-.084-.0571-.134-.0687-.032-.0059-.065-.0004-.093.0155-.029.0158-.051.0411-.062.0715-.016.0448 0 .0764-.014.079-.013.0027-.034-.0237-.026-.0896.005-.0394.024-.0758.053-.1028.041-.0351.093-.0531.147-.05.065.0073.127.0314.179.0697.053.0384.095.0897.122.149.077.1297.121.2763.129.427.018.1376-.005.2775-.066.4022s-.157.2286-.277.2989c-.04.0151-.084.0211-.127.0175-.044-.0037-.085-.0168-.123-.0386-.053-.0448-.063-.079-.058-.0843z" fill="#aa6550"/><path d="m163.216 83.267s-.026 0-.076 0c-.072-.0023-.143-.0102-.214-.0238-.262-.0533-.511-.1581-.732-.3083-.328-.2257-.603-.5197-.807-.8619-.122-.2-.221-.4131-.295-.6352-.072-.2397-.125-.4847-.158-.7328-.114-.8592-.179-1.7243-.195-2.5909 0-.3321 0-.6009 0-.7907-.008-.0969-.003-.1945.016-.29.022.0943.034.1905.037.2873.013.2135.031.4745.052.7908.045.6615.085 1.5814.232 2.5751.036.4244.159.8369.362 1.2112.204.3743.482.7023.819.9633.289.199.615.3371.959.4059z" fill="#ff725e"/><path d="m166.421 71.0716c1.297-.0132 2.056 1.5129 2.394 2.7649.337 1.252.432 2.5698-.238 3.69-.19.211-.434.3668-.706.4507-.13.0088-.26-.0214-.373-.0866s-.205-.1626-.262-.2797c-.194-.3197-.286-.6907-.265-1.064.022-.3732.156-.7311.386-1.0262-.553-.6717-.987-1.433-1.284-2.2509-.37.4913-.886.8544-1.473 1.0385-.179.0703-.378.0768-.561.0185-.045-.0171-.085-.043-.119-.076-.034-.0331-.062-.0727-.08-.1166-.019-.0438-.028-.0908-.028-.1384 0-.0475.01-.0945.029-.1382-.346.427-.815.7363-1.344.8856-.265.0696-.544.0646-.806-.0144-.261-.0791-.496-.2292-.678-.4337-.17-.2129-.25-.4844-.222-.7556s.162-.5205.372-.694c0 0 .757-1.7264 5.258-1.7739z" fill="#263238"/><path d="m43.6699 99.0815 51.7132-9.5598s8.5449 2.5356 8.5449 10.7803c0 8.244-4.5307 11.31-6.9082 12.261l-51.6604 10.738z" fill="#ff725e"/><path d="m44.6926 99.0815c-3.1629 0-5.9858 1.6025-7.9072 4.1405l1.953 3.226-3.0205-1.581c-.9434 1.82-1.467 3.829-1.5322 5.878-.0653 2.05.3295 4.088 1.1553 5.964l5.2978-2.153-4.9209 2.944c1.845 3.477 5.1766 5.799 8.9747 5.799 5.7986 0 10.5166-5.422 10.5166-12.109s-4.7075-12.1085-10.5166-12.1085z" fill="#ff725e"/><path d="m44.6926 99.0815c-3.1629 0-5.9858 1.6025-7.9072 4.1405l1.953 3.226-3.0205-1.581c-.9434 1.82-1.467 3.829-1.5322 5.878-.0653 2.05.3295 4.088 1.1553 5.964l5.2978-2.153-4.9209 2.944c1.845 3.477 5.1766 5.799 8.9747 5.799 5.7986 0 10.5166-5.422 10.5166-12.109s-4.7075-12.1085-10.5166-12.1085z" fill="#000" opacity=".25"/><path d="m55.0088 110.373s.0237-.039.0738-.111l.2293-.318c.3081-.404.6619-.77 1.0543-1.092.6274-.496 1.3428-.868 2.1086-1.099 1.0212-.276 2.0712-.432 3.1286-.464.5851-.029 1.1993-.05 1.845-.068l1.9926-.066c1.3759-.037 2.8493-.032 4.3938-.113.7723-.04 1.5604-.114 2.3722-.23.816-.11 1.6216-.286 2.409-.527.8147-.254 1.6008-.591 2.3458-1.007.7631-.437 1.4965-.924 2.1956-1.457 1.4286-1.068 2.7675-2.204 4.2304-3.063.7152-.425 1.471-.7786 2.2561-1.0543l.572-.203.5746-.1739c.3795-.1213.7591-.2214 1.1334-.319 2.6652-.6678 5.3773-1.133 8.1128-1.3916 1.8378-.2 3.6869-.2775 5.5353-.232.656.0369 1.165.0633 1.505.116l.39.0501.132.0237h-.135l-.39-.0369c-.34-.0448-.849-.0633-1.502-.0922-1.849-.0276-3.6976.0604-5.5353.2635-2.7277.2723-5.4315.7463-8.0891 1.4181-.3743.0975-.7538.1976-1.1307.3189l-.5694.1766-.5693.2029c-.7779.2701-1.5267.6181-2.2351 1.0381-1.4496.854-2.7833 1.988-4.2172 3.058-.705.536-1.4436 1.026-2.2114 1.468-.7531.42-1.5482.76-2.3721 1.015-.7943.242-1.607.418-2.4302.527-.8039.113-1.5972.187-2.3721.224-1.5498.079-3.0206.071-4.3964.103l-1.9926.058c-.6397.016-1.2547.035-1.8451.058-1.0471.03-2.0872.181-3.0996.45-.7634.221-1.4786.583-2.1086 1.068-.3904.315-.744.673-1.0543 1.067l-.2398.311z" fill="#263238"/><path d="m83.6989 106.823c.0159-.022.0345-.041.0554-.058.0395-.04.0975-.098.1766-.169.2422-.202.5076-.375.7907-.514.4611-.218.959-.349 1.4681-.385.6885-.049 1.3777.087 1.9953.396l.0474.023-.0369.04c-.8095.847-1.7764 1.528-2.8466 2.006-1.3013.589-2.7212.868-4.1486.817-.1924 0-.3849-.029-.5773-.045-.1979-.015-.3939-.049-.5851-.103-.1982-.054-.3867-.138-.5588-.25-.1818-.117-.3192-.292-.3901-.496-.0637-.21-.0468-.436.0475-.635.0899-.193.2101-.371.3558-.527.2846-.312.5855-.608.9014-.888 1.332-1.184 2.9034-2.067 4.6073-2.589.744-.229 1.507-.393 2.2799-.487.7509-.083 1.5074-.101 2.2615-.056.369.043.738.064 1.0964.135.363.062.717.168 1.0543.316.3332.144.6283.363.8619.641.2275.275.3703.61.4112.964.0471.68-.1388 1.356-.5272 1.916-.3494.527-.7872.989-1.2941 1.366-.8996.683-1.9173 1.194-3.0021 1.507-.8889.265-1.8018.442-2.7254.528-.8144.079-1.5181.1-2.0927.11-.5746.011-1.0201 0-1.3179 0h-.3453c-.0386.003-.0773.003-.116 0h.116.3453l1.3179-.029c.5746-.018 1.2757-.047 2.0875-.132.9171-.088 1.8236-.264 2.7069-.527 1.0707-.317 2.0747-.827 2.9625-1.505.4954-.37.9227-.824 1.2626-1.341.3707-.541.5472-1.191.5007-1.845-.0377-.333-.1724-.647-.3874-.904-.2222-.262-.5019-.468-.8171-.604-.3248-.142-.6655-.245-1.0148-.306-.3531-.068-.7195-.089-1.0832-.131-.7471-.044-1.4966-.025-2.2404.058-.7641.092-1.5184.254-2.2536.482-2.0913.636-3.9748 1.819-5.4559 3.426-.1369.146-.2499.312-.3348.493-.0813.173-.0973.37-.0448.554.0629.178.1835.33.3427.432.163.104.3407.183.5271.235.1843.051.3732.085.5641.1.1924.016.3821.042.5719.045 1.4104.053 2.8144-.217 4.1038-.791 1.0607-.47 2.0209-1.139 2.8282-1.972v.064c-.6039-.308-1.2794-.447-1.9557-.404-.5023.03-.9947.152-1.4523.361-.2825.132-.548.298-.7907.493l-.1819.158z" fill="#263238"/><path d="m96.5111 90.7368h-.1213-.3531c-.1582 0-.3506-.0184-.5773-.0158h-.7907c-1.6728.0586-3.3319.3242-4.9394.7907-2.3862.6869-4.6216 1.8171-6.5893 3.3316-1.1438.9192-2.2316 1.9058-3.2578 2.9547-1.1021 1.1318-2.2977 2.1687-3.574 3.1-1.2909.927-2.7862 1.53-4.3595 1.758-1.4602.195-2.9312.298-4.4044.308-2.807.045-5.3347.013-7.4512.129s-3.8218.351-4.9578.688c-.4382.122-.8657.28-1.2783.472l-.3137.163c-.0711.037-.1107.053-.1107.053s.0343-.024.1028-.063l.311-.177c.4094-.202.8353-.369 1.2731-.498 1.1386-.351 2.8492-.614 4.9684-.73 2.1191-.116 4.6494-.103 7.4538-.156 1.465-.011 2.928-.112 4.3806-.303 1.5568-.222 3.0365-.819 4.3121-1.739 1.27-.9262 2.4603-1.9568 3.5582-3.0815 1.0313-1.0485 2.1244-2.0342 3.2736-2.952 3.3399-2.5472 7.3982-3.976 11.5972-4.0827h.7908c.2293 0 .4217.0184.5772.0263l.3558.0211c.0413-.0016.0827-.0007.1239.0026z" fill="#263238"/><path d="m104.239 100.428s-.023.043-.076.124l-.232.354c-.129.189-.267.372-.414.548-.194.246-.4.482-.619.706-.957 1.041-2.546 2.341-4.6129 3.788-1.0332.727-2.185 1.492-3.4054 2.33-.6115.418-1.2317.865-1.8608 1.341-.6273.483-1.2968.949-2.0084 1.392-1.4852.925-3.0787 1.663-4.7443 2.198-1.7932.574-3.6656.861-5.5483.851-1.8781-.047-3.7479-.268-5.5851-.661-1.7818-.348-3.4844-.754-5.1239-1.054-1.546-.303-3.1142-.48-4.6889-.528-1.372-.045-2.7442.08-4.0854.372-2.4644.527-4.3121 1.505-5.4165 2.372-.2456.192-.4814.396-.7063.612-.1898.192-.3401.364-.4639.503-.1239.14-.1977.264-.2636.335l-.0896.111c.0243-.041.0507-.081.0791-.119l.2477-.345c.1213-.14.2636-.317.4586-.512.222-.221.4561-.429.7011-.624 1.1018-.881 2.9547-1.866 5.427-2.417.646-.146 1.2999-.254 1.9584-.324.7137-.072 1.431-.1 2.1481-.085 1.5816.049 3.1568.225 4.71.527 1.6421.301 3.3474.701 5.1266 1.055 1.8288.389 3.6896.608 5.5587.656 1.8691.01 3.7281-.275 5.5087-.843 1.6586-.531 3.2458-1.263 4.7259-2.18.7028-.438 1.3697-.897 2.0005-1.379.6299-.477 1.2573-.922 1.8687-1.339 1.2257-.838 2.3722-1.597 3.4265-2.316 2.0687-1.437 3.6637-2.721 4.6287-3.748.245-.264.458-.483.624-.696.151-.173.293-.353.425-.541l.242-.345c.048-.079.079-.119.079-.119z" fill="#263238"/><path d="m73.4353 93.5044-.0395.0554-.1292.1555c-.1186.1318-.2767.3426-.5113.5798-.6522.6956-1.3737 1.3226-2.1534 1.8714-1.1593.8089-2.4147 1.4703-3.7375 1.9689-1.6246.5999-3.3009 1.049-5.0079 1.3416-.904.1661-1.7949.2794-2.6568.3611s-1.7.1265-2.4934.1502c-1.5814.0477-3.0258 0-4.2172-.05-1.1913-.0501-2.1718-.1266-2.8439-.1793l-.7697-.0685-.2003-.0211c-.0227.003-.0458.003-.0685 0h.0685.2003l.7749.0422c.6695.0395 1.6421.0949 2.8414.1397 1.1992.0448 2.6357.0764 4.2171.0211.7908-.0238 1.6263-.0712 2.4855-.1555.8593-.0844 1.7475-.1951 2.6358-.3611 1.6957-.2894 3.362-.7304 4.9789-1.3179 1.3168-.4888 2.5685-1.1377 3.7269-1.932.7799-.539 1.5063-1.1515 2.1692-1.8292.2399-.2319.4033-.4375.5272-.564l.1397-.1476c.0448-.0475.0606-.0633.0632-.0607z" fill="#263238"/><path d="m78.3905 116.514h-.0738-.2082l-.8065-.06c-.7011-.053-1.7132-.132-2.9678-.187-1.4656-.073-2.9344-.048-4.3965.076-1.7909.146-3.5496.562-5.2161 1.234-1.7659.735-3.35 1.658-4.9077 2.258-.7336.292-1.4912.518-2.2641.678-.6733.137-1.3563.221-2.0427.25-.9939.047-1.9899-.022-2.9678-.205-.3453-.066-.6115-.127-.7908-.177l-.2029-.058-.0685-.021c.0235-.004.0476-.004.0711 0l.2056.042c.1792.042.4481.095.7907.153.9757.165 1.9667.221 2.9547.166.6813-.037 1.3588-.125 2.0269-.263.7647-.164 1.5142-.393 2.2403-.683 1.5446-.604 3.126-1.529 4.9025-2.267 1.6777-.677 3.4493-1.093 5.253-1.233 1.4687-.119 2.9439-.136 4.4149-.05 1.2546.068 2.2667.16 2.9652.229l.8065.084.2082.024c.0249.001.0497.005.0738.01z" fill="#263238"/><path d="m42.758 105.9h.0817l.2372-.015c.2083 0 .5272-.027.912-.016.4842.004.9652.078 1.4286.218.6204.191 1.1748.551 1.5999 1.042.4871.615.8197 1.338.9699 2.108.1918.872.2592 1.766.2003 2.657-.0519.988-.2926 1.957-.709 2.854-.2245.475-.5196.913-.875 1.3-.3765.393-.8295.704-1.3311.915-.2536.102-.5193.172-.7907.208-.2693.031-.5416.024-.8092-.019-.5223-.104-1.0062-.349-1.3995-.709-.7723-.696-1.2678-1.568-1.7607-2.372-.2409-.391-.4456-.803-.6115-1.231-.1548-.409-.2438-.841-.2636-1.278-.0197-.41.0495-.819.203-1.199.1587-.342.3754-.653.6404-.92.2361-.238.4571-.491.6616-.757.1724-.245.314-.511.4217-.79.1603-.458.3633-.899.6063-1.318.1572-.267.3915-.48.6721-.612.0741-.03.1523-.048.2319-.055h.0817c-.1044.01-.2066.035-.3031.076-.2677.14-.49.353-.6405.614-.2328.421-.4269.862-.5798 1.318-.1086.284-.2501.554-.4218.804-.206.268-.4269.524-.6615.767-.2555.262-.4641.566-.6168.899-.1456.368-.2104.762-.1898 1.157.0723.878.3701 1.722.8646 2.451.4928.791.991 1.653 1.7422 2.328.3747.343.8372.577 1.3363.674.2553.042.5152.048.7723.019.2606-.034.5157-.101.7591-.2.4852-.203.9231-.503 1.2862-.883.3486-.376.6375-.803.8566-1.266.4105-.882.6493-1.835.7038-2.807.0626-.883-.0004-1.77-.1872-2.635-.1431-.754-.4629-1.463-.933-2.069-.4129-.48-.9501-.837-1.5525-1.031-.4569-.144-.9314-.223-1.4101-.237-.3927-.019-.7011 0-.9093 0h-.3189z" fill="#263238"/><path d="m44.0415 108.676c.0346-.038.0746-.07.1186-.095.1268-.073.2664-.122.4112-.143.2319-.029.4675 0 .6853.085.2883.116.5345.318.7063.577.2106.315.3409.677.3796 1.054.0404.423.0208.849-.058 1.265-.0624.464-.1774.918-.3426 1.355-.1827.485-.5412.884-1.0043 1.118-.2387.116-.5062.16-.7696.126-.2555-.039-.4948-.15-.6906-.319-.3463-.325-.6102-.728-.7696-1.175-.3244-.733-.3967-1.552-.2056-2.33.1414-.524.4507-.987.8804-1.318.1175-.085.2439-.158.3769-.216.0452-.021.0931-.037.1423-.045-.1712.086-.3344.188-.4876.303-.4055.333-.6944.786-.825 1.294-.17.759-.0895 1.552.2293 2.262.1555.427.4092.811.7406 1.122.1783.153.3956.252.6274.288.2391.031.4821-.009.6984-.116.4344-.221.7695-.597.9383-1.054.1647-.425.2805-.867.3453-1.318.0784-.407.1006-.822.0659-1.234-.033-.357-.1524-.701-.3479-1.001-.1572-.249-.3859-.445-.6563-.562-.2052-.087-.4289-.123-.651-.103-.1901.02-.3736.082-.5377.18z" fill="#263238"/><path d="m38.7886 105.742c-.0028-.038-.0028-.077 0-.116-.01-.115-.01-.23 0-.345.0174-.446.1269-.884.3216-1.286.3011-.639.7534-1.194 1.3179-1.619.3499-.268.737-.484 1.1491-.64.4655-.169.9529-.269 1.4471-.298 1.134-.054 2.2647.161 3.2999.627 1.1873.527 2.2689 1.266 3.1919 2.18 1.0184 1.009 1.8336 2.205 2.4011 3.521.6085 1.414.9052 2.942.8698 4.481-.0659 3.163-1.4628 6.134-3.6162 7.849-1.0007.843-2.2234 1.38-3.5213 1.545-.5867.062-1.1796.028-1.7554-.1-.53-.124-1.042-.316-1.5235-.57-.8194-.444-1.5653-1.012-2.2114-1.684-.4857-.505-.9383-1.041-1.3548-1.605-.3479-.461-.6009-.828-.7749-1.078l-.195-.285c-.0422-.063-.0633-.1-.0633-.1l.0738.093.2056.276c.1793.245.4428.609.7907 1.055.4227.555.8795 1.083 1.368 1.581.6431.663 1.3856 1.221 2.2008 1.655.4752.248.9801.434 1.5024.554.5659.123 1.1481.153 1.7238.089 1.2755-.167 2.4759-.698 3.4581-1.528 2.1085-1.698 3.4976-4.637 3.5608-7.76.0365-1.525-.2566-3.04-.8592-4.441-.5594-1.304-1.3648-2.488-2.3722-3.487-.9119-.896-1.9792-1.619-3.1497-2.133-1.0191-.464-2.1333-.683-3.2525-.637-.4857.027-.9651.123-1.4233.287-.4065.151-.7891.359-1.136.619-.5609.413-1.0131.956-1.3178 1.582-.1971.394-.3136.825-.3427 1.265-.0237.292-.0053.453-.0132.453z" fill="#263238"/><path d="m36.7696 116.319c-.0293-.025-.0542-.056-.0738-.089-.0665-.085-.1281-.173-.1845-.264-.2168-.347-.3937-.718-.5272-1.104-.4104-1.29-.4902-2.662-.2319-3.991.2638-1.316.6878-2.595 1.2625-3.808.2109-.467.3901-.841.5272-1.1l.1502-.292c.0369-.069.0553-.103.0606-.1-.0441.142-.0987.28-.1634.414-.1212.284-.2847.658-.4823 1.114-.5451 1.216-.9526 2.489-1.2151 3.796-.2541 1.306-.1899 2.654.1871 3.93.1788.52.4102 1.021.6906 1.494z" fill="#263238"/><path d="m61.7828 95.7527c-.1265 1.2362.4164 2.4539 1.1281 3.4739.7116 1.0204 1.6025 1.9084 2.3142 2.9284 1.4443 2.066 2.0954 4.576 2.554 7.056s.7538 5.008 1.5999 7.38c.2003.569.4823 1.178 1.0332 1.426.427.192.9199.118 1.3837.042l2.9573-.485c.8619-.14 1.7923-.316 2.3722-.959.7907-.862.6695-2.196.4982-3.356l-.9568-6.418c-.1292-.864-.2636-1.774.0422-2.596.3057-.822 1.1729-1.51 2.0163-1.284.289.1.548.272.7527.499.2046.228.3483.503.4176.801.1292.597.1559 1.212.079 1.819l-.5772 8.097c-.0343.482-.0369 1.041.3295 1.354.1522.113.3331.18.522.195.1888.014.3778-.025.5454-.113.331-.186.6044-.46.7908-.791.6958-1.099.8829-2.433 1.1149-3.716.6149-3.393 1.6526-6.696 3.0891-9.831.3901-.854.817-1.7084.9884-2.6361.1713-.9278.058-1.9531-.5404-2.6806-.6299-.767-1.6605-1.0543-2.6357-1.3178l-5.0448-1.3179c-1.5972-.4138-3.2182-.8329-4.8708-.8092-3.6532.0554-6.9347 2.2536-10.543 2.8466" fill="#000" opacity=".09"/><path d="m72.2888 56.4487-1.3469 10.7274 5.3637.709c.1661-.6088.6326-2.9994.6326-2.9994s2.2667.1291 2.7649-2.0612c.2425-1.0543.5614-3.2973.825-5.3163.1415-1.0762-.1439-2.1651-.7951-3.0336-.6513-.8684-1.6166-1.4475-2.6894-1.6132-.5487-.0843-1.1088-.0578-1.6472.0779-.5383.1358-1.044.3779-1.4872.7123s-.815.7542-1.0933 1.2346-.4575 1.0116-.5271 1.5625z" fill="#ffbe9d"/><path d="m76.9565 64.8539c-1.0178-.1978-1.9537-.6942-2.6884-1.4259 0 0 .34 1.7238 2.5698 1.9952z" fill="#eb996e"/><path d="m79.6635 58.9471c-.0142.0838-.061.1586-.1301.2079-.0692.0494-.1551.0694-.2389.0557-.0405-.0058-.0795-.0195-.1147-.0405-.0352-.0209-.066-.0485-.0905-.0813-.0244-.0329-.0422-.0702-.0522-.1099-.0101-.0397-.0122-.081-.0062-.1215.0172-.0819.0656-.1538.135-.2006.0694-.0467.1543-.0646.2366-.0498.0797.0105.152.0522.2009.116.049.0638.0706.1444.0601.224z" fill="#263238"/><path d="m79.8216 58.515c-.0474.0316-.2451-.195-.5825-.2636-.3374-.0685-.622.0448-.6484 0-.0263-.0448.0395-.0869.1634-.1423.1669-.0688.3507-.0854.5272-.0474.1763.0367.3361.1291.456.2635.0896.0949.1186.174.0843.1898z" fill="#263238"/><path d="m76.3477 58.3253c-.0142.0837-.061.1585-.1301.2079-.0692.0494-.1551.0694-.2389.0556-.0407-.0054-.0799-.019-.1152-.0398-.0354-.0208-.0663-.0484-.0908-.0813-.0246-.0329-.0423-.0704-.0522-.1102-.0099-.0399-.0117-.0813-.0054-.1218.0166-.0817.0645-.1537.1335-.2005.0689-.0468.1535-.0647.2355-.0499.0799.0105.1524.0521.2017.1158.0494.0636.0716.1442.0619.2242z" fill="#263238"/><path d="m76.4954 57.8666c-.0475.0316-.2478-.195-.5852-.2636-.3373-.0685-.622.0448-.6484 0-.0263-.0448.0396-.0896.1661-.1449.1668-.0695.351-.0852.5271-.0448.1754.0372.3342.1296.4534.2635.0896.0949.1081.1766.087.1898z" fill="#263238"/><path d="m77.1833 60.6288c.1899-.0167.381-.0105.5694.0185.0869 0 .1713 0 .1976-.0448.0275-.0858.0275-.1779 0-.2636-.0342-.2267-.0738-.4639-.1133-.7117-.1181-.6084-.1859-1.2254-.2029-1.845.1646.5952.2818 1.2024.3505 1.816.0369.2478.0712.485.1028.7117.0322.1157.0219.2391-.029.3479-.0186.028-.0436.0512-.073.0677-.0293.0165-.0621.0258-.0957.0272-.0498.0072-.1004.0072-.1502 0-.1901-.0164-.3771-.0581-.5562-.1239z" fill="#263238"/><path d="m76.1396 60.6499c.0554 0-.0211.3743.2346.7011.2557.3269.6563.3717.6484.4244s-.1002.0501-.2636.0211c-.2153-.0429-.4086-.1605-.5456-.3321-.066-.0808-.1153-.1739-.1452-.2739-.0298-.1-.0396-.2049-.0287-.3086.0158-.1582.0764-.2399.1001-.232z" fill="#263238"/><path d="m76.8644 56.5751c-.0527.0844-.3795-.0316-.7907-.0685s-.7485 0-.7907-.0922c-.0132-.0449.0606-.1187.2082-.1793.1957-.0713.405-.0974.6122-.0765.2073.021.407.0886.5844.1978.1424.079.2004.166.1766.2187z" fill="#263238"/><path d="m79.9086 57.5108c-.0765.0633-.2926-.0659-.5693-.1291-.2768-.0633-.5272-.058-.5641-.1502-.0158-.0449.0369-.1134.1555-.1635.157-.0583.328-.0675.4903-.0263.1657.0409.3142.1331.4243.2636.0817.0896.0975.1739.0633.2055z" fill="#263238"/><path d="m75.188 54.5535h-.0158c-.4086.2002-.724.5505-.8803.9779l-.0158.0421c-.2188.6089-.3401 1.2494-.5667 1.8451-.1951.6225-.5944 1.1611-1.1334 1.5287-.2267.1344-.5904.1845-.7011-.0554-.0329-.0977-.0383-.2025-.0158-.3031.2056-1.5366.0817-2.9678.4217-4.5466.0451-.2123.1404-.4107.278-.5786.1376-.1678.3134-.3002.5127-.3861.3822-.1661.8382-.3268 1.1677-.0738.3294.253.6615 1.0543.8829 1.3969" fill="#263238"/><path d="m72.8159 57.6004c-.0343-.0238-1.4128-.7697-1.6843.7432s1.2994 1.4734 1.3179 1.4286c.0184-.0448.3664-2.1718.3664-2.1718z" fill="#ffbe9d"/><path d="m72.0832 59.1185s-.029 0-.0791.0237c-.0674.0159-.1385.0045-.1976-.0316-.0861-.0795-.1496-.1805-.1838-.2925-.0343-.1121-.0382-.2313-.0113-.3454.0201-.1302.0687-.2544.1423-.3637.0227-.0446.0559-.0831.0968-.112s.0882-.0475.1378-.054c.0317-.0024.0632.0063.0891.0246.026.0182.0448.0449.0533.0755.0131.0475 0 .0738 0 .0791s.0369-.0185.0369-.0843c-.0028-.0462-.0232-.0895-.0571-.1209-.0339-.0315-.0786-.0486-.1248-.0478-.0639.0005-.1266.0176-.182.0494-.0554.0319-.1017.0775-.1343.1324-.0881.1198-.146.259-.1687.4059-.0322.133-.0244.2725.0225.401s.1308.2403.2411.3212c.0385.0191.0809.029.1239.029.0429 0 .0853-.0099.1238-.029.0607-.0263.0765-.058.0712-.0606z" fill="#eb996e"/><path d="m74.1336 53.2409c-.2398-.68.9568-1.3179 1.7475-1.3996s1.6895.4955 2.3722.8988c.4323.2636.8487.5667 1.3442.651.3338.0377.6714.0253 1.0016-.0369.3314-.0633.6723-.0579 1.0016.0158.1637.0394.3137.1225.4339.2404s.2062.2662.2487.4291c.0147.0814.0119.165-.0082.2452-.0201.0803-.0571.1553-.1084.2201-.0514.0649-.116.118-.1895.1559-.0735.038-.1542.0598-.2368.0641.1167-.035.2403-.0411.3599-.0179.1197.0232.2319.0751.3271.1512.0953.0762.1706.1742.2196.2859.049.1116.0701.2334.0617.355s-.0462.2394-.1101.3432-.1521.1905-.2569.2528c-.1048.0622-.2231.0982-.3448.1047s-.2432-.0167-.3541-.0674c.2478-.116.5272.2214.4349.4823-.0572.1246-.1459.2321-.2573.312-.1113.08-.2416.1296-.3779.144-.6826.1423-1.3943-.1028-1.9952-.4586-.601-.3558-1.1281-.825-1.7212-1.1966-.593-.3717-1.5814-1.0227-2.2693-.9331-.5114.0659-.9647.5667-1.2046.3822-.1119-.0942-.2001-.2134-.2574-.3481-.0572-.1346-.0819-.2808-.072-.4268.0242-.2924.0954-.579.2108-.8487" fill="#263238"/><path d="m81.9302 54.73s-.1028.0949-.3005.2346c-.2826.1944-.6082.3175-.9489.3585-.5023.0673-1.0111-.0642-1.418-.3664-.4612-.3374-.7907-.8882-1.2098-1.4259-.3728-.5362-.9007-.9455-1.5129-1.1729-.2546-.0873-.5257-.1155-.7928-.0826-.2671.0328-.5233.126-.7491.2723-.1471.1054-.2714.2392-.3656.3936-.0942.1545-.1563.3263-.1826.5052-.0127.0962-.0127.1937 0 .29.0158.0632.0263.0948.0316.0948-.0031-.126.0039-.252.0211-.3769.071-.3333.2685-.6262.5508-.817.2141-.1296.4543-.2098.7032-.2349.249-.0251.5004.0056.736.0899.5804.2247 1.08.6186 1.4338 1.1307.4033.5272.7538 1.0938 1.2493 1.447.3652.2583.8039.3922 1.2511.3817.4471-.0104.8791-.1646 1.2318-.4396.0755-.0602.1452-.1273.2082-.2004.0259-.0231.0474-.0508.0633-.0817z" fill="#455a64"/><path d="m72.4495 57.4529s.0738-.0264.1555-.1344c.1117-.1543.1775-.3371.1897-.5272.0712-.4902-.2451-1.0991-.1555-1.7791.0301-.3178.1571-.6186.3638-.8619.1748-.1898.4073-.3168.6615-.3611.1761-.0344.3582-.0207.5272.0396.116.0448.1739.0869.1819.0764.0079-.0105-.0422-.0659-.1582-.1318-.1722-.085-.366-.1162-.5561-.0896-.2855.0339-.5502.1663-.7486.3743-.2312.2606-.3725.5886-.4033.9357-.0339.3379-.0053.6792.0844 1.0068.0738.2572.1128.5232.116.7907-.0167.2417-.1068.4725-.2583.6616z" fill="#455a64"/><path d="m77.3494 118.686 1.2019 6.031 2.3274 4.496c.04.077.0638.161.0699.247.006.086-.0058.173-.0347.254-.029.082-.0745.156-.1336.219s-.1306.113-.21.148c-.0918.04-.1921.058-.2922.051s-.1971-.038-.2824-.091c-1.1123-.672-5.1924-3.163-5.2557-3.619-.0738-.527-1.9478-7.09-1.9478-7.09z" fill="#ff725e"/><path d="m80.5703 130.08-5.9199-4.061.0553.263c.0492.221.1754.416.3559.551.4797.364 1.8292 1.337 4.9156 3.224.0885.054.1889.085.2923.091s.2066-.014.3008-.057z" fill="#fff" opacity=".36"/><path d="m75.4489 123.807c.0862.037.1556.105.1946.19s.0448.182.0162.272c-.0343.087-.1011.158-.1865.198s-.1829.045-.2721.015c-.0905-.041-.1627-.114-.2031-.205-.0403-.091-.0459-.193-.0157-.288.0457-.087.1234-.153.2169-.184.0934-.031.1952-.025.2839.018" fill="#fff" opacity=".36"/><path d="m78.6119 127.764c.1033-.22.2463-.418.4217-.585.2002-.137.4248-.234.6616-.285 0-.016-.0844-.048-.2293-.034-.193.017-.3764.091-.5272.213-.1484.119-.2599.278-.3215.459-.0317.139-.0211.229-.0053.232z" fill="#263238"/><path d="m79.2208 128.473c.0343.018.1819-.219.4718-.377.1855-.081.3756-.15.5693-.208-.1054-.037-.218-.048-.3284-.032s-.2155.057-.3068.121c-.3295.182-.4428.485-.4059.496z" fill="#263238"/><path d="m77.5867 126.912c.3997-.489.9339-.85 1.5366-1.038-.3285.008-.6476.111-.9199.295-.2722.184-.4862.442-.6167.743z" fill="#263238"/><path d="m77.0673 125.104c.0237.032.3242-.182.7538-.292.4296-.111.7907-.085.7907-.124-.2717-.079-.5598-.082-.833-.008-.2732.073-.5211.22-.7168.424z" fill="#263238"/><path d="m76.6692 123.346c.243-.141.5035-.25.7749-.324.2801-.031.563-.023.8408.024 0-.016-.0738-.077-.2319-.127-.206-.058-.4229-.068-.6334-.029-.2105.04-.4088.129-.579.259-.1266.11-.1819.187-.1714.197z" fill="#263238"/><path d="m77.3599 122.69c.0032-.079-.0112-.157-.0422-.229-.0664-.204-.1731-.392-.3137-.554-.0928-.126-.2242-.219-.3742-.264-.0507-.008-.1027-.001-.1495.02s-.0865.056-.1141.099c-.0462.09-.0584.194-.0343.293.0586.198.1846.37.3564.486.1719.115.3786.167.5846.146.2025-.024.3933-.108.5481-.241s.2668-.308.3217-.505c.0136-.049.0164-.101.0082-.151-.0082-.051-.0272-.099-.0557-.141-.0331-.041-.0783-.07-.129-.083-.0506-.013-.1042-.01-.153.009-.1408.066-.2617.168-.3505.295-.1333.166-.2368.355-.3058.556-.0319.072-.0472.151-.0448.23.1037-.262.2468-.507.4244-.725.0815-.107.1884-.193.311-.248.026-.012.055-.014.0827-.008.0276.007.0523.023.0701.045.0171.029.0278.062.0315.095.0036.034.0001.068-.0104.1-.052.169-.1519.319-.2875.433s-.3012.186-.4768.207c-.1744.017-.3493-.026-.496-.121-.1466-.096-.2562-.239-.3106-.406-.0192-.067-.0135-.139.0159-.203.0139-.025.0353-.045.0614-.057.026-.013.0552-.016.0835-.011.1271.039.2392.117.3216.221.1821.211.3265.452.427.712z" fill="#263238"/><path d="m73.1427 120.566 4.4412-.707-.1686-.835-4.3938 1.12z" fill="#000" opacity=".09"/><path d="m85.9576 116.67-1.0306 4.702s4.4307 2.622 4.3252 3.511l-9.1829-1.669 1.3021-7.38z" fill="#ff725e"/><path d="m82.1596 120.444c-.0931.011-.1792.055-.2415.125s-.0964.161-.0958.255c.0074.093.0503.18.1199.243s.1606.097.2544.094c.0987-.011.1898-.058.2556-.133.0657-.074.1015-.171.1002-.27-.0175-.097-.0721-.184-.1523-.241-.0802-.058-.1797-.082-.2773-.067" fill="#fff" opacity=".36"/><path d="m80.0693 123.201.1582-.74 8.748 1.876s.3769.264.2636.527z" fill="#fff" opacity=".36"/><path d="m85.0853 121.338c0 .045-.2373.024-.485.129-.2478.105-.398.264-.4375.245-.0396-.018.0764-.263.3769-.393.3004-.129.5614-.021.5456.019z" fill="#263238"/><path d="m85.976 121.912c0 .045-.2055.085-.3927.248-.1871.164-.2636.356-.311.345-.0474-.01-.0264-.263.2082-.466s.5008-.171.4955-.127z" fill="#263238"/><path d="m86.3136 123.164c-.0422 0-.0633-.234.0949-.458.1581-.224.3874-.285.4006-.243s-.1423.148-.2636.335c-.1212.187-.1871.369-.2319.366z" fill="#263238"/><path d="m85.2011 120.241c-.0264.037-.2214-.063-.4771-.092-.2556-.029-.4691.016-.4876-.026-.0184-.042.203-.169.5061-.129.3031.039.485.216.4586.247z" fill="#263238"/><path d="m85.752 117.59-.1819.835-4.5071-.859.1318-.762z" fill="#000" opacity=".09"/><path d="m85.3909 119.29c-.1588.013-.318-.018-.4613-.087-.2559-.095-.4906-.239-.6905-.424-.0475-.037-.0885-.082-.1213-.132-.0232-.038-.0335-.082-.0292-.126.0043-.043.0229-.085.053-.117.0282-.027.0625-.047.1001-.059.0376-.011.0773-.014.116-.007.0578.009.1138.027.166.053.0918.043.18.093.2636.15.1417.1.2679.22.3743.356.1091.118.1799.266.2029.424-.0237 0-.1028-.15-.2899-.35-.1076-.118-.2309-.221-.3664-.306-.0797-.05-.1635-.093-.2504-.129-.0922-.045-.1765-.061-.2082-.021-.0316.04-.0131.021 0 .053.0246.037.0549.07.0896.097.0688.065.1409.127.2162.185.1298.1.2683.188.4138.263.1445.049.2855.108.4217.177z" fill="#263238"/><path d="m85.3197 119.343c-.0622-.148-.076-.311-.0395-.467.0236-.172.0753-.338.1529-.493.0478-.093.1043-.181.1686-.263.0361-.056.0858-.101.1444-.132s.1242-.047.1904-.045c.041.008.0788.027.1088.056s.0508.067.0599.107c.0147.058.0209.118.0184.177-.0024.105-.022.209-.058.308-.0561.168-.153.319-.282.441-.2214.205-.4191.224-.4191.208s.1608-.082.34-.288c.1027-.117.179-.256.2241-.405.0254-.086.0387-.175.0395-.264 0-.1-.0184-.184-.058-.182-.0395.003-.137.05-.1871.121-.0609.071-.1147.148-.1608.23-.0786.138-.1363.287-.1713.442-.0633.269-.0448.446-.0712.449z" fill="#263238"/><path d="m74.5553 86.7673 14.7733 2.989c.6972.1431 1.3558.4332 1.9321.8508.5762.4177 1.0568.9534 1.4097 1.5715.3529.618.57 1.3041.6369 2.0127.0669.7085-.0181 1.4232-.2491 2.0963l-5.7986 21.5604-7.4038-.693 4.4808-20.2954-15.7538-3.7322z" fill="#263238"/><path d="m63.2191 90.1464c-.4946.7244-.8148 1.5535-.9355 2.4223-.1208.8688-.0387 1.7538.2397 2.5856.019.059.041.1171.0659.1739.1634.3242 4.9262 3.4871 4.9262 3.4871l4.1512 21.6657 6.7054-1.703-1.6368-19.7228c-.2077-2.5158-1.2505-4.8899-2.9626-6.7449l-2.127-2.3089-7.786-.7907z" fill="#263238"/><path d="m86.4663 92.5396c.0158.0132-.1713.2636-.4455.6748-.3602.5387-.6783 1.1044-.9515 1.6921-.3264.7068-.591 1.4405-.7907 2.1929l-.058.2083v-.2135c-.0142-.1385-.0142-.278 0-.4165.0388.134.0618.2719.0686.4112h-.0659c.1583-.7707.4069-1.52.7406-2.2325.2768-.5935.6095-1.1592.9937-1.6895.1476-.2029.2635-.3611.369-.4665.1054-.1054.1318-.166.1397-.1608z" fill="#455a64"/><path d="m84.6001 92.8982c-.0363.2189-.0856.4354-.1476.6484-.1201.5202-.2003 1.0489-.2398 1.5814-.035.5322-.0271 1.0664.0237 1.5973.0319.2201.0512.4419.058.6642-.0802-.2099-.1307-.4299-.1502-.6537-.0776-.5349-.0979-1.0765-.0607-1.6157.0379-.5397.1315-1.0741.2794-1.5946.0521-.2183.1318-.4292.2372-.6273z" fill="#455a64"/><path d="m77.1806 104.416c-.0152-.047-.0232-.095-.0237-.145 0-.108-.0264-.247-.0422-.419l-.1397-1.539c-.1277-1.695-.361-3.3794-.6985-5.0449-.1964-.9115-.5202-1.7908-.962-2.612-.3821-.6597-.8232-1.2834-1.3179-1.8634-.4112-.5061-.7591-.9041-.991-1.1861-.1081-.1344-.1977-.2399-.2636-.3269-.0336-.0359-.0628-.0757-.087-.1186.0391.0301.0744.0646.1055.1028.0764.0791.1686.1819.2846.3084.2451.2636.6036.6616 1.0253 1.1624.5094.5754.9622 1.1985 1.3522 1.8608.4526.8268.7837 1.7145.9831 2.6357.3409 1.6708.5628 3.3638.6642 5.0658.0527.651.0764 1.181.0975 1.545 0 .171.0132.311.0185.421.0053.051.0035.103-.0053.153z" fill="#455a64"/><path d="m71.6667 120.489c-.0074-.022-.0136-.044-.0185-.066l-.0448-.192c-.0369-.179-.087-.427-.1529-.741-.1291-.659-.3136-1.581-.5403-2.738-.4454-2.325-1.0543-5.517-1.729-9.044-.6748-3.526-1.2705-6.723-1.7106-9.0481-.2188-1.1492-.3954-2.0823-.5272-2.7412-.0632-.3136-.1107-.564-.1476-.7433-.0369-.1792-.0553-.2635-.0553-.2635.1127.3231.1965.6556.2504.9936.1397.6432.3321 1.5815.564 2.7333.4586 2.3112 1.0754 5.5062 1.7449 9.0402.6695 3.535 1.2572 6.724 1.6921 9.049.2082 1.152.3796 2.087.5008 2.746.0554.317.0975.567.1292.749l.0316.192c.0079.024.0123.049.0132.074z" fill="#455a64"/><path d="m90.0405 104.369c.0028-.051.0117-.101.0264-.15.029-.111.0632-.251.1054-.425.1002-.384.2372-.914.4059-1.56s.3875-1.442.6194-2.3063c.232-.8645.5034-1.8213.7275-2.8308.2277-.9449.3523-1.9117.3716-2.8835.0044-.4207-.0525-.8397-.1687-1.244-.11-.3492-.2736-.6791-.4849-.9779-.3186-.429-.6798-.8246-1.0781-1.1808l-.3215-.2978c-.0395-.0325-.0756-.0687-.1081-.1081 0 0 .0448.0263.1239.0896s.195.1555.34.2794c.4156.3445.7906.7354 1.1176 1.165.2281.3064.4061.6471.5271 1.0095.1249.4137.1879.8435.1871 1.2757-.013.9814-.1358 1.9584-.3663 2.9125-.2241 1.0147-.4982 1.9662-.7407 2.8307-.2425.8648-.4586 1.6418-.6431 2.3008s-.3374 1.168-.4481 1.55c-.05.171-.0922.308-.1265.419-.0168.046-.0389.091-.0659.132z" fill="#ff725e"/><path d="m78.1929 75.1913c0 .2636 1.6341 11.7686 2.9625 12.5646 1.3284.7959 11.1149-.3796 11.1149-.3796l-.6721-4.341-7.4934-.2636-.8988-9.6626c-.058-.6252-.2634-1.2278-.5992-1.7583s-.7925-.9739-1.3328-1.2939z" fill="#ff725e"/><path d="m64.7794 65.2729c2.0295-.5034 4.262-.5429 6.5683-.4138l5.0817 1.3785 5.2003 4.0959-4.8788 13.0917.3111 3.8482-5.1951 2.9652-8.0047-1.0332-.6906-17.4855z" fill="#ff725e"/><path d="m70.6308 65.2729c0-.0527.0184-.1028.029-.1555-.005-.066-.0165-.1313-.0343-.195z" fill="#ff725e"/><path d="m77.2888 65.5367c-.057-.0824-.1392-.1442-.2342-.176s-.1978-.032-.293-.0006c-.1874.0623-.3649.1511-.5271.2636-.3955.2097-.8318.3309-1.2788.355-.4469.0241-.8938-.0494-1.3095-.2153-.8194-.3366-1.5318-.8897-2.0612-1.5999-.0715-.1028-.1607-.1921-.2635-.2636-.0548-.0361-.1189-.0554-.1845-.0554s-.1298.0193-.1845.0554c-.0679.0721-.1097.1649-.1186.2636-.058.3163-.1134.6352-.1714.9541-.166.7908-.7064 1.621-.3742 2.3722.1765.4006.6167.6247 1.0384.7907 1.4045.5307 2.917.7116 4.407.5272.3222-.0086.6315-.1288.875-.3401.2636-.2793.232-.6905.2636-1.0542.031-.4569.1472-.9039.3427-1.3179.0632-.1845.1634-.3901.0738-.5588z" fill="#ff725e"/><path d="m70.7442 64.3269c.0253.1226.0253.2491 0 .3716-.0162.3052-.1125.6007-.2794.8567-.2108.2899-.4454.4902-.5667.6747-.1212.1845-.1555.3163-.1766.311-.021-.0053-.0184-.1555.1002-.3611.1638-.2416.3397-.4747.5271-.6984.1519-.2405.2524-.5097.2952-.7908.0158-.1254.0495-.2479.1002-.3637z" fill="#263238"/><path d="m76.3028 66.7332c-.0477.0666-.1055.1252-.1713.174-.173.1397-.3603.2607-.5588.3611-.6633.339-1.4219.4431-2.152.2952-.7301-.148-1.3884-.5391-1.8675-1.1096-.1451-.1684-.2698-.3533-.3716-.5509-.0432-.0689-.0744-.1447-.0922-.224.16.2492.3361.4878.5271.7142.48.5353 1.1199.9014 1.8246 1.0439s1.4366.0537 2.0868-.2531c.2688-.1316.5277-.2822.7749-.4508z" fill="#263238"/><g opacity=".3"><path d="m71.2397 65.9558s.1397 1.6763 1.8161 1.9294c.5131.0644 1.034.0202 1.5289-.1296s.9528-.402 1.344-.7402c0 0-1.3811.8645-2.8466.3927-1.4654-.4718-1.8424-1.4523-1.8424-1.4523z" fill="#000" opacity=".3"/><path d="m73.5459 67.9299c-.1649-.001-.3296-.0133-.4929-.0369-.3219-.0407-.6295-.1575-.8972-.3409s-.4878-.4279-.642-.7134c-.1469-.2708-.2417-.5667-.2794-.8725v-.0421l.0158.0395c.0914.2021.2162.3874.369.5482.4319.4522.9818.7743 1.5874.9298.6056.1556 1.2427.1385 1.8391-.0494.3052-.0868.5983-.2117.8724-.3717-.665.5733-1.5101.8951-2.388.9094zm-2.2931-1.9347c.0389.2892.1281.5693.2636.8277.1524.2853.371.5299.6375.7133.2664.1835.5729.3004.8939.341.7062.1016 1.4266-.0162 2.0637-.3374.2718-.1302.5268-.2931.7591-.485-.2601.1426-.535.2566-.8197.34-.5998.1916-1.2414.2101-1.8512.0534-.6098-.1566-1.1631-.4821-1.5963-.939-.1425-.1524-.2607-.3257-.3506-.514z" fill="#263238" opacity=".3"/></g><path d="m74.5027 67.5582c.2158-.1871.3717-.4337.4481-.7089.0764-.2751.07-.5668-.0185-.8383.0132 0 .0791.0711.1318.2293.0654.2088.0691.4321.0107.643-.0585.2108-.1766.4004-.3402.5457-.1265.1081-.224.1423-.2319.1292z" fill="#263238"/><path d="m76.1448 65.6948c.15.1546.2356.3604.2396.5757.0039.2154-.0742.4241-.2185.584.0449-.1916.0757-.3863.0922-.5825-.0249-.1947-.0628-.3875-.1133-.5772z" fill="#263238"/><path d="m73.1954 65.6289c.029.0237-.203.3268-.3427.767s-.1397.8224-.1766.8224c-.0797-.2851-.0611-.5887.0528-.8619.0693-.2881.2336-.5443.4665-.7275z" fill="#263238"/><path d="m79.9087 73.8182c.0342 0-.398 1.5551-.9647 3.4501-.5667 1.8951-1.0543 3.4265-1.0886 3.4265-.0342 0 .398-1.5551.9647-3.4528s1.0543-3.4344 1.0886-3.4238z" fill="#263238"/><path d="m82.2676 85.4101c-.0628-.1627-.0862-.3379-.0685-.5114.0152-.4216.1499-.8303.3883-1.1784s.5709-.6213.9586-.7878c.1556-.0807.3281-.1231.5034-.1239 0 .0211-.1871.0659-.4639.2056-.3589.1863-.6666.4578-.8961.7907-.2234.3339-.361.7178-.4007 1.1176-.029.2899 0 .4849-.0211.4876z" fill="#263238"/><path d="m72.1305 64.8751c-.3589.3063-.5848.7401-.6299 1.2098-.0158 0-.0474-.0791-.0474-.2135-.0014-.1837.043-.3649.1291-.5272.0827-.1576.2009-.2938.3453-.398.1133-.0632.195-.0843.2029-.0711z" fill="#263238"/><path d="m81.4216 88.0747c.5827-.1226 1.1292-.3781 1.5969-.7466s.844-.84 1.0995-1.3778c.0976-.2803.2429-.5416.4296-.7723.3049-.2576.6808-.4166 1.078-.456l5.1081-1.0306c-.0158-.2345-.029-.4533-.0448-.6879l-4.8471-.1502-3.6505 1.4391-.7697 3.5688" fill="#000" opacity=".04"/><path d="m63.2217 73.0167 1.5814-.8988-1.4365 4.6126z" fill="#000" opacity=".09"/><path d="m93.683 78.3437c-.0765-.4455.3663-.8329.8091-.9278.4429-.0949.9067 0 1.3575-.0422 1.2546-.116 2.2377-1.2151 3.487-1.389.5291-.0607 1.0644.0403 1.5344.2897.471.2494.855.6354 1.101 1.1072.23.4787.324 1.0113.272 1.5398-.052.5284-.248 1.0325-.567 1.4571-.33.4159-.758.7429-1.247.9514-.4881.2084-1.0207.2918-1.5494.2425-.506-.0474-1.0253-.2108-1.5129-.0606-.2858.1191-.5595.2656-.817.4375-.335.1923-.7246.2674-1.107.2135-.1895-.0309-.3671-.1124-.5141-.2357-.1471-.1234-.2581-.2842-.3215-.4654" fill="#263238"/><path d="m67.3335 78.1645c-1.9083-.904-3.5872-1.2968-5.6932-1.136-.7477.0566-1.4898.172-2.2193.3453-3.5082.8487-7.3247 4.3332-6.7211 8.9272.3953 3.018 3.0258 8.7665 8.8192 9.1829 1.6411.1011 3.2793-.2393 4.7443-.9857 1.0508-.5263 2.0715-1.1106 3.0574-1.7501.9913-.6411 2.1575-.9579 3.3369-.9067 1.7448.0764 4.2567-.2636 6.1043-1.2467 3.4265-1.8108 4.0195-4.3806 3.2868-7.222-.5851-2.272-1.1676-5.1476-4.3964-6.555-1.7607-.767-4.1513-.8356-7.1613 1.1281-.4753.2734-1.0066.4353-1.5536.4732s-1.0955-.0491-1.604-.2545z" fill="#263238"/><path d="m66.4137 79.3003c-.7736-.0818-1.5247-.309-2.214-.6694-1.7938-.9136-3.8501-1.1727-5.8145-.7328-3.5055.8408-6.5155 4.4808-5.9225 9.0037.3849 2.8993 1.6658 8.1708 7.243 8.748 1.7475.1621 3.5054-.1694 5.0738-.9568 1.0709-.5312 2.1118-1.1207 3.1181-1.7659.9486-.607 2.0615-.9061 3.1866-.8566 1.7422.0764 4.4465-.0369 6.1887-1.2388 2.7465-1.8872 3.6742-4.2831 2.8334-6.9689-.6905-2.2008-1.0674-5.0949-3.9114-6.5656-1.7001-.8777-4.1038-.4692-7.1165 1.4681-.8048.4675-1.7418.6556-2.6647.535z" fill="#455a64"/><path d="m71.681 86.9052c.5001-1.8583-.6011-3.7701-2.4594-4.2701-1.8583-.5001-3.7701.6011-4.2701 2.4594s.6011 3.7701 2.4594 4.2701 3.7701-.6011 4.2701-2.4594z" fill="#263238"/><path d="m64.6794 85.2202 33.0943-7.6437c.2096-.0487.4268-.0554.6391-.0199.2122.0356.4153.1128.5976.2272.1823.1145.3401.2638.4644.4395.1243.1756.2126.3742.2599.5841.0944.4219.0175.8639-.2138 1.2291s-.598.6237-1.0197.7187l-32.9968 7.4328c-.7248-.9489-1.0517-1.9294-.825-2.9678z" fill="#455a64"/><g fill="#263238"><path d="m67.4284 89.3057c-.0854-.0009-.17-.016-.2504-.0448-.2223-.0623-.4364-.1508-.6378-.2636-.6819-.3672-1.2113-.9647-1.4937-1.6859s-.2995-1.5192-.0482-2.2518c.0731-.2188.1713-.4285.2925-.6247.0411-.0746.0926-.1429.1529-.203-.1395.2759-.2592.5613-.3584.854-.2192.7143-.1903 1.4818.082 2.1775.2723.6958.7719 1.2791 1.4177 1.6549.2714.1493.5533.2788.8434.3874z"/><path d="m100.09 80.3258c0 .0343-7.6827 1.8002-17.1766 3.9536-9.494 2.1534-17.1982 3.8535-17.2061 3.8166s7.6805-1.8002 17.1771-3.9536c9.4965-2.1534 17.1986-3.8456 17.2056-3.8166z"/><path d="m85.1669 80.3732c0 .0369-4.5044 1.1175-10.0764 2.4143-5.5719 1.2968-10.0975 2.3221-10.1054 2.2878s4.5019-1.1149 10.0764-2.4143c5.5746-1.2994 10.0975-2.3221 10.1054-2.2878z"/><path d="m71.6853 86.6383c-.1921-.465-.3438-.9456-.4534-1.4365-.154-.4825-.2669-.9771-.3374-1.4787.1916.4651.3433.9457.4534 1.4365.1537.4826.2666.9772.3374 1.4787z"/><path d="m69.3447 87.1971c-.1916-.464-.3424-.9437-.4507-1.4339-.1528-.4794-.2622-.9717-.3269-1.4707.3453.9423.6098 1.9122.7908 2.8993z"/><path d="m67.0094 87.7559c-.1918-.4641-.3435-.9438-.4533-1.4338-.1498-.4803-.2591-.9723-.3269-1.4708.1916.4651.3433.9457.4534 1.4365.1496.4794.2589.9705.3268 1.4681z"/><path d="m73.9862 86.169c-.1918-.4641-.3435-.9438-.4533-1.4338-.1496-.4794-.2589-.9705-.3268-1.4681.3473.9416.6119 1.9117.7907 2.8993z"/><path d="m76.2897 85.7027c-.1913-.465-.3421-.9456-.4507-1.4365-.1526-.4786-.262-.9699-.3268-1.4681.1904.4653.3412.9458.4507 1.4365.1514.4789.2608.9701.3268 1.4681z"/><path d="m78.5829 85.1333c-.1932-.4635-.3449-.9434-.4533-1.4338-.1513-.4799-.2607-.972-.3269-1.4707.1916.4651.3433.9456.4534 1.4364.1496.4795.2589.9705.3268 1.4681z"/><path d="m80.8759 84.5799c-.1916-.4651-.3433-.9457-.4534-1.4365-.1514-.479-.2607-.9702-.3268-1.4681.1921.4649.3438.9455.4534 1.4365.1498.4793.2592.9704.3268 1.4681z"/><path d="m83.1691 84.0341c-.3435-.9428-.608-1.9126-.7907-2.8993.1933.4636.345.9434.4534 1.4338.1545.4778.2674.9682.3373 1.4655z"/><path d="m85.6545 83.4596c-.1902-.4644-.341-.9441-.4507-1.4338-.1555-.4778-.2692-.9681-.34-1.4655.1916.4639.3424.9437.4507 1.4338.1569.4774.2707.9678.34 1.4655z"/><path d="m88.1164 82.893c-.3477-.9415-.6123-1.9117-.7907-2.8993.3468.9417.6114 1.9118.7907 2.8993z"/><path d="m90.5885 82.3235c-.1918-.4641-.3435-.9438-.4533-1.4338-.1498-.4803-.2591-.9723-.3269-1.4708.1911.4653.3428.9458.4534 1.4365.1511.479.2605.9702.3268 1.4681z"/><path d="m93.061 81.7542c-.1916-.464-.3424-.9437-.4507-1.4339-.1528-.4794-.2622-.9716-.3269-1.4707.3453.9423.6098 1.9122.7908 2.8993z"/><path d="m95.5358 81.1849c-.193-.4646-.3447-.9453-.4534-1.4365-.1513-.479-.2607-.9702-.3268-1.4681.1919.4647.3427.9454.4507 1.4364.1515.4791.2617.9703.3295 1.4682z"/><path d="m98.0083 80.6156c-.3469-.9418-.6114-1.9118-.7908-2.8993.1919.4641.3435.9438.4534 1.4338.153.4783.2659.9685.3374 1.4655z"/><path d="m95.723 76.7174c.0083.0657-.003.1324-.0326.1916-.0295.0592-.076.1084-.1335.1412s-.1234.0479-.1894.0433c-.0661-.0047-.1293-.0288-.1816-.0693-.0523-.0406-.0915-.0957-.1125-.1585s-.0229-.1304-.0054-.1943c.0174-.0638.0534-.1211.1033-.1645.05-.0435.1117-.0711.1774-.0794.0436-.0056.0879-.0025.1303.0091s.0821.0314.1169.0583c.0347.0269.0638.0604.0857.0986.0218.0382.0358.0803.0414.1239z"/><path d="m96.7746 76.3431c.0032.0843-.0253.1667-.0798.2311-.0546.0643-.1313.1058-.215.1164s-.1683-.0105-.2372-.0593c-.0688-.0487-.117-.1214-.1348-.2039-.01-.0457-.0103-.093-.0009-.1389.0093-.0458.0281-.0892.0552-.1274.027-.0382.0617-.0704.1018-.0945.0401-.024.0848-.0395.1312-.0454.0465-.0059.0936-.002.1385.0113.0448.0134.0864.0359.1221.0661.0357.0303.0647.0677.0852.1098.0204.042.0319.0879.0337.1347z"/><path d="m97.9291 75.9555c.0078.0657-.004.1322-.0339.1911-.0299.059-.0767.1077-.1343.1402-.0576.0324-.1235.047-.1894.0421-.0659-.005-.1289-.0294-.1809-.0701-.0521-.0407-.091-.0959-.1117-.1587-.0208-.0628-.0225-.1303-.0049-.194s.0536-.1208.1036-.1641c.05-.0432.1116-.0708.1772-.079.0884-.0105.1773.0144.2474.0692s.1157.1351.1269.2233z"/><path d="m95.6992 77.6822c-.0342 0-.1318-.1872-.2161-.4402s-.1265-.4692-.0923-.4824c.0343-.0131.1292.1872.2162.4402.087.2531.1265.4613.0922.4824z"/><path d="m96.7957 77.4369c-.0316 0-.1291-.1872-.2135-.4402-.0843-.253-.1265-.4691-.0922-.4797.0342-.0105.1291.1845.2135.4375.0843.2531.1265.4718.0922.4824z"/><path d="m97.9344 76.9967c-.0342 0-.1291-.1871-.2161-.4402-.087-.253-.1265-.4691-.0922-.4797.0342-.0105.1317.1845.2161.4376.0843.253.1265.4718.0922.4823z"/><path d="m98.8123 82.1417c.0041-.0891.0432-.1729.1089-.2331.0657-.0603.1525-.0921.2416-.0885.066.0032.1296.0258.1827.065.0532.0393.0935.0933.116.1555.0225.0621.0261.1295.0103.1936-.0157.0642-.0501.1223-.0988.1669-.0487.0447-.1095.0739-.1748.0841-.0652.0102-.1321.0008-.192-.027-.06-.0277-.1104-.0726-.1449-.1289s-.0516-.1216-.049-.1876z"/><path d="m97.7156 82.3158c.01-.0842.0514-.1616.1159-.2167.0646-.0551.1475-.0839.2323-.0805.0848.0033.1652.0385.2252.0984.0601.06.0953.1404.0987.2252-.01.0842-.0514.1616-.116.2167-.0645.0551-.1475.0838-.2322.0805-.0848-.0033-.1653-.0385-.2253-.0984-.06-.06-.0952-.1404-.0986-.2252z"/><path d="m96.5137 82.5213c.0027-.0662.0248-.13.0638-.1835.0389-.0536.0928-.0943.155-.1172.0621-.0229.1295-.0268.1939-.0114.0643.0155.1227.0497.1676.0983s.0744.1094.0848.1748c.0103.0654.0011.1323-.0266.1924-.0277.0602-.0726.1107-.129.1453s-.1218.0517-.1879.0492c-.044-.0017-.0872-.0121-.1272-.0305s-.0759-.0445-.1058-.0768c-.0298-.0323-.053-.0702-.0682-.1115s-.0222-.0852-.0204-.1291z"/><path d="m98.9967 81.1824c.0343 0 .0976.2056.1397.4691.0422.2636.0475.485.0132.4903s-.0975-.2056-.1397-.4692c-.0422-.2635-.0501-.485-.0132-.4902z"/><path d="m97.8738 81.2429c.0343 0 .0975.2056.1397.4692s.0474.485.0132.4902c-.0343.0053-.1002-.2029-.1424-.4691-.0421-.2662-.0474-.485-.0105-.4903z"/><path d="m96.6773 81.4907c.0369 0 .1001.2056.1423.4692s.0474.485 0 .4902c-.0474.0053-.0975-.2056-.1397-.4691-.042-.1606-.0429-.3292-.0026-.4903z"/></g><path d="m67.771 79.2583s-.0343.0554-.1081.1555l-.3295.4323-1.2177 1.5814c-.5801.8032-1.2388 1.5466-1.9662 2.2193-.9293.7834-2.0042 1.3755-3.1629 1.7422-1.2283.4138-2.4644.5272-3.5583.7143-.5195.0835-1.0322.2051-1.534.3637-.436.1393-.853.3323-1.2414.5746-.5705.3427-1.0441.8253-1.3759 1.4022-.0852.1597-.1566.3264-.2134.4982-.0369.116-.0607.1792-.0607.1792s0-.0659.0448-.1845c.0521-.1741.1191-.3435.2004-.506.3267-.5889.7996-1.0836 1.3732-1.4365.392-.2466.8123-.4448 1.2519-.5904.5043-.1611 1.0197-.2853 1.542-.3717 1.0991-.1924 2.3273-.3057 3.5477-.7169 1.1576-.3604 2.2325-.9463 3.1628-1.7237.7258-.6667 1.3843-1.403 1.9663-2.1983l1.2388-1.5682.34-.4244c.0606-.0949.1002-.1423.1002-.1423z" fill="#e0e0e0"/><path d="m65.0326 79.0132c-.0436.0243-.0885.0463-.1344.0659-.1302.0585-.257.1245-.3795.1977-.4462.275-.8494.6143-1.1967 1.0068-.4559.4876-.9067 1.1413-1.4443 1.845-.2813.3677-.5906.7132-.9252 1.0332-.3666.3373-.7749.626-1.2151.8593-.8562.4401-1.7848.7222-2.7411.8329-.7774.0928-1.5613.1193-2.3432.079-.6642-.0289-1.2019-.079-1.5814-.1159l-.427-.0422c-.0976 0-.1476-.0211-.1476-.0211h.1476l.4296.029c.3716.0264.9093.0659 1.5814.0896.7779.0326 1.5572.0018 2.33-.0922.947-.1152 1.8662-.3972 2.7148-.8329.4349-.2297.838-.515 1.1993-.8487.3332-.3151.6408-.6562.9199-1.0201.5403-.6932.9989-1.3468 1.4602-1.8318.3554-.3926.7687-.7286 1.2256-.9963.1667-.0977.3434-.1772.5271-.2372z" fill="#e0e0e0"/><path d="m58.243 80.6051c-.1649.1371-.3509.2466-.5509.3242-.5458.23-1.1515.2771-1.7264.1344-.1931-.0357-.3743-.1191-.5271-.2425-.0453-.0368-.0771-.0875-.0904-.1442-.0134-.0568-.0075-.1164.0166-.1694.0575-.0967.1393-.1767.2372-.232.3782-.2735.7984-.4836 1.2441-.622.4912-.1554 1.0061-.2223 1.5208-.1977.2734.0091.5445.0534.8065.1318.2691.0852.5116.2387.7038.4454.1981.2157.3081.4979.3083.7907-.0072.1408-.0445.2784-.1096.4035-.065.125-.1562.2346-.2673.3214-.4301.2875-.9175.4782-1.4285.5587-.8442.1994-1.7107.288-2.5778.2636-.5846-.0188-1.1641-.1145-1.7238-.2846-.2055-.0606-.4056-.1381-.5983-.232 0 0 .0554.0158.1555.0554.1002.0395.2636.0896.4507.1476.5597.159 1.137.2475 1.7185.2635.8618.0154 1.722-.0803 2.5593-.2846.4666-.1186.9884-.2188 1.397-.5483.1025-.0794.1865-.1802.2461-.2953.0596-.1152.0935-.2419.0992-.3715-.0009-.2708-.1035-.5313-.2873-.7301-.1877-.198-.424-.3434-.6853-.4217-.2569-.0769-.5227-.1203-.7907-.1292-.9713-.0483-1.9308.2301-2.7254.7908-.0881.0493-.1624.12-.2161.2055-.018.0417-.0221.0881-.0117.1322.0105.0442.0349.0838.0697.113.1472.1175.3209.1971.506.2319.5639.1445 1.159.1067 1.7001-.108.1468-.059.2887-.1295.4243-.2109.0949-.0633.1529-.0896.1529-.0896z" fill="#e0e0e0"/><path d="m80.3672 86.3825h-.2846c-.2736.0106-.5459.0423-.8145.0949-.4238.083-.8386.2065-1.2388.369-.53.2166-1.0421.4748-1.5313.7723-.5483.3242-1.1229.7248-1.7449 1.1439-.6557.4573-1.3407.8711-2.0506 1.2388-.7933.4008-1.6521.6562-2.5356.7538-.9461.0973-1.9007.0752-2.8413-.0659-1.9346-.2636-3.7138-.8223-5.3795-1.078-.7833-.1352-1.5775-.197-2.3722-.1845-.6935.0138-1.3821.1193-2.048.3136-.9721.2676-1.8602.7783-2.5804 1.484-.192.1976-.3683.41-.5271.6352-.1002.1581-.1581.2372-.1581.2372s.0474-.0844.1449-.2451c.1497-.2311.3199-.4481.5087-.6484.7168-.7198 1.6075-1.2419 2.5857-1.5156.6697-.1989 1.3627-.3088 2.0611-.3268.8007-.0148 1.6011.0452 2.3906.1792 1.6737.2636 3.4555.7908 5.3796 1.0728.9345.1393 1.8827.1624 2.8228.0685.8749-.0979 1.7254-.3504 2.5119-.7459.7084-.3634 1.3917-.7737 2.0453-1.2283.6247-.4164 1.2019-.8118 1.7528-1.1333.4931-.2964 1.0086-.5538 1.5419-.7697.4052-.1583.8244-.2783 1.252-.3584.2698-.0477.543-.0742.817-.0791z" fill="#e0e0e0"/><path d="m57.8871 94.1211h.1292l.3716.0211 1.3627.1028.9409.0712c.3578.0412.718.0579 1.0781.05.1903-.0086.3769-.0561.5482-.1396.0873-.0425.1646-.103.2268-.1775s.108-.1614.1343-.2548c.035-.2045.0043-.4149-.0875-.601-.0919-.186-.2402-.3382-.4238-.4349-.3789-.1901-.7921-.3021-1.2151-.3294-1.5262-.169-3.0685.1132-4.436.8118-.1449.0711-.2635.1344-.3268.1739l-.116.0607c.032-.0288.0674-.0536.1055-.0738.0738-.0448.1792-.1134.3215-.1872.4024-.2151.8242-.3916 1.2599-.5271.6468-.2094 1.3188-.3308 1.9979-.3611.401-.0193.803-.006 1.2019.0395.4351.0258.8604.1406 1.2493.3374.1982.1051.3577.2706.4553.4725.0977.2019.1284.4297.0877.6503-.03.103-.0811.1986-.1501.2807-.069.0822-.1543.1491-.2505.1964-.1801.0884-.3768.1378-.5773.145-.3636.0052-.7273-.0133-1.0885-.0554l-.941-.0843-1.36-.1239-.3717-.0396c-.0429-.0032-.0853-.0112-.1265-.0237z" fill="#e0e0e0"/><path d="m79.3894 88.5254s-.0159.0264-.0528.0685l-.1634.1819c-.0711.0791-.1607.1739-.2635.2794-.1028.1054-.232.2266-.3796.3505-.3333.2942-.6854.5663-1.0543.8145-.4586.2987-.9387.563-1.4365.7907-.5009.222-1.0171.4078-1.5445.5561-.433.1169-.8732.205-1.3179.2636-.1871.0316-.3611.0395-.5113.0527-.1296.0138-.2598.0208-.3901.0211h-.3295c.0274-.0082.0558-.0126.0844-.0132l.2451-.0184c.1054 0 .2346-.0132.3848-.0317.1503-.0184.3216-.0316.5087-.0659.4447-.0646.8848-.157 1.3179-.2767.5229-.1502 1.0346-.3369 1.5314-.5588.4946-.2303.9728-.4945 1.4312-.7907.3715-.2416.728-.5057 1.0674-.7907.1476-.1186.2636-.2399.3822-.34.1186-.1002.2056-.1924.2794-.2636l.1766-.1713c.01-.0202.0214-.0396.0343-.058z" fill="#e0e0e0"/><path d="m78.828 80.3126s-.0316.0395-.0975.1081c-.098.1001-.2019.1943-.3111.282-.406.3191-.8644.5652-1.3547.7274-.7283.2341-1.4886.3533-2.2536.3532-.9326-.0141-1.8637-.0819-2.7886-.2029-.9212-.1195-1.8526-.1389-2.7781-.058-.7548.0799-1.487.3055-2.156.6642-.4489.2439-.8456.5734-1.1676.97-.2214.2873-.3058.4717-.3163.4638.0196-.0442.0416-.0873.0659-.1291.0672-.1229.143-.2409.2267-.3532.3165-.4086.7129-.7485 1.165-.9989.6715-.3701 1.4096-.6039 2.1718-.688.9313-.0855 1.8691-.0678 2.7965.0527.9217.1183 1.849.1878 2.7781.2083.7586.0027 1.5131-.1102 2.2377-.3348.4875-.1553.9455-.3914 1.3548-.6984.2873-.2214.4191-.3822.427-.3664z" fill="#e0e0e0"/><path d="m73.9677 78.4226c.0105.0365.0246.0718.0421.1054.0297.0448.0686.0827.114.1114.0454.0286.0964.0472.1496.0547.082.0177.1675.0098.2448-.0227.0774-.0326.1428-.0881.1875-.1592.0523-.0984.0779-.2089.0742-.3204-.0037-.1114-.0366-.22-.0953-.3148-.1546-.2286-.3823-.3977-.6458-.4797-.2914-.1227-.6068-.1776-.9225-.1608-.1675.0131-.3281.0724-.4639.1714-.1416.1039-.2511.2454-.3163.4085-.0695.1709-.0965.3562-.0786.5398.0179.1837.0802.3602.1814.5145.2067.3132.5133.5473.8698.6642.334.108.6858.1501 1.0359.1239.5968-.0407 1.1798-.1983 1.7158-.4639.3602-.1807.6959-.4066.999-.6721.1054-.0976.1871-.1713.2398-.2267.0263-.0283.0544-.0547.0844-.0791-.021.0327-.0457.0628-.0738.0896-.0475.058-.1265.1371-.2293.2373-.2991.2767-.6342.5117-.9963.6984-.5389.2789-1.1291.4449-1.7344.4876-.3559.0282-.714-.013-1.0543-.1212-.3737-.1225-.695-.3677-.9119-.6958-.1086-.1651-.1749-.3543-.1933-.5509-.0184-.1967.0118-.3949.0879-.5772.0706-.1753.1882-.3276.34-.4402.1473-.1048.3204-.1677.5008-.1819.3272-.0169.6539.0427.9541.174.2746.0883.5108.2678.6695.5087.0601.1047.0917.2233.0917.344s-.0316.2393-.0917.3439c-.0499.0766-.1224.1358-.2074.1693s-.1783.0398-.2671.0179c-.0547-.0106-.1066-.0327-.1521-.065-.0454-.0323-.0834-.074-.1114-.1222-.0218-.033-.0345-.0712-.0369-.1107z" fill="#e0e0e0"/><path d="m65.1327 87.7981c-.0421.004-.0845.004-.1265 0l-.3611-.0264c-.1556-.0131-.348-.029-.5694-.0369s-.477-.0263-.7591-.021c-.5587 0-1.2282.0131-1.9662.0738-.7968.0762-1.5888.1968-2.3722.361-.7859.1721-1.5612.3895-2.3221.6511-.6984.2477-1.3178.5008-1.8239.7406-.2636.1107-.4823.232-.68.3295s-.369.1898-.5061.2636l-.3189.1713c-.0361.0217-.074.0402-.1133.0553.0324-.0267.0678-.0497.1054-.0685l.311-.1845c.1344-.0817.3005-.1792.5008-.2794.2003-.1001.4191-.2267.6774-.3426.594-.2854 1.2028-.5388 1.8239-.7591.763-.2656 1.541-.4856 2.33-.659.7898-.1671 1.589-.2859 2.3933-.3558.6565-.0551 1.3155-.0744 1.9741-.058.282 0 .5272.0211.7591.0343.232.0132.4138.029.5693.0474l.3611.0422z" fill="#e0e0e0"/><path d="m76.3162 86.1638c-.0522.0355-.109.0639-.1687.0844-.1107.05-.2768.1186-.4797.195-1.0678.3996-2.179.6721-3.3105.8118-.2161.0264-.3927.0422-.5271.0501-.0631.0075-.1268.0075-.1898 0 .0612-.017.1238-.0285.1871-.0343l.5087-.0738c.4323-.0659 1.0227-.1713 1.6684-.3294.6458-.1582 1.2204-.3374 1.6316-.4798l.4876-.1686c.0624-.0239.1268-.0425.1924-.0554z" fill="#e0e0e0"/><path d="m101.733 77.2815c.045.0528.081.1135.105.1792.075.1693.133.346.171.5272.134.62.066 1.2666-.195 1.845-.264.5719-.702 1.0459-1.252 1.3548-.167.0932-.343.1675-.527.2214-.0644.0256-.1332.0391-.2027.0395 0-.0237.2797-.0949.6717-.34.519-.3134.93-.776 1.181-1.3273.25-.5512.329-1.1653.224-1.7618-.066-.4639-.2-.7275-.176-.738z" fill="#ff725e"/><path d="m82.3677 84.3584s0 .0343.0158.0975c.0158.0633.0185.1555.0211.2768.0115.3428-.0079.6859-.058 1.0253-.1586 1.129-.6158 2.1953-1.3242 3.0886-.7085.8934-1.6426 1.5814-2.7058 1.9931-.3195.1251-.6494.2221-.9858.2899-.1186.0264-.2135.0343-.2767.0448-.0633.0106-.0949 0-.0976 0 .4477-.1141.8878-.2558 1.3179-.4243 1.0351-.4261 1.944-1.11 2.6402-1.9865.6962-.8766 1.1565-1.9167 1.3371-3.0214.0656-.4586.1044-.9207.116-1.3838z" fill="#ff725e"/><path d="m115.096 79.5059c.204-.1646.465-.2424.727-.2167.261.0257.502.1528.671.3541s.252.4607.232.7226-.142.5055-.34.6785-.455.2616-.718.2469c-.262-.0148-.508-.1317-.685-.3257s-.271-.4497-.262-.7123c.009-.2625.121-.511.311-.6921" fill="#ff725e"/><path d="m113.541 87.4422c.151-.1238.345-.1832.54-.1654.195.0177.376.111.503.2601s.19.3419.176.5372c-.013.1953-.103.3775-.249.5076s-.338.1976-.533.1882c-.196-.0094-.38-.0951-.513-.2386s-.205-.3335-.2-.5292c.006-.1957.087-.3816.228-.5178" fill="#ff725e"/><path d="m109.605 82.682c.116-.0906.262-.1324.408-.1164s.28.0885.373.202.138.259.125.4052-.082.2816-.194.3771c-.111.0956-.255.1436-.402.134-.146-.0097-.283-.0764-.381-.1857-.098-.1094-.149-.2527-.143-.3994.007-.1466.07-.2849.178-.3852" fill="#ff725e"/><path d="m65.7073 82.9773s1.4022.7301 1.7896.7696c.3875.0396 1.7449 0 1.7449 0s.1766.3743-.6669.5957c-.2134.058-.6457.1661-.9831.2636-.0481.0121-.0923.0363-.1283.0704s-.0627.0768-.0776.1242c-.0148.0473-.0172.0976-.007.1462.0102.0485.0327.0936.0653.131.4534.5271 1.252 1.4127 1.3627 1.4391.1555.0395.8619-.6827.991-.8276.1924-.2162.8118-.0712.3664.6115-.3954.6009-1.252 1.4048-1.5261 1.1597l-1.0279-.8988s1.3363 1.6157 1.4391 2.1086-.456.5719-.7907.2161c-.1635-.1766-1.5973-1.845-1.5973-1.845s1.9294 2.6357 1.2309 2.6911c-.4085.0263-1.6342-1.9057-1.6342-1.9057l.63 1.4813c.0295.0651.0345.1386.0143.2072-.0202.0685-.0644.1275-.1244.1661-.0601.0387-.1321.0545-.2029.0445-.0707-.01-.1355-.0451-.1825-.0988-.2806-.3519-.5351-.7236-.7618-1.1123-.2214-.3559-2.301-3.1076-2.301-3.1076z" fill="#ffbe9d"/><path d="m54.6029 81.0874 8.3131 4.7443 3.234-3.3131-8.2024-6.5103 6.8529-3.8903-.0211-6.8451-10.0448 5.398c-.7934.4265-1.4795 1.0278-2.0064 1.7584-.5269.7305-.8809 1.5713-1.0352 2.4588-.2143 1.2073-.0497 2.4514.4713 3.5613.521 1.11 1.3729 2.0315 2.4386 2.638z" fill="#ff725e"/><path d="m56.1343 74.6326c.3786.139.7341.3345 1.0543.5798.3439.2147.6524.4815.9146.7907-.3429-.2046-.6729-.43-.9884-.6747-.3404-.2122-.6678-.4446-.9805-.6958z" fill="#263238"/><path d="m57.3889 73.4861c.3101.3353.5391.7373.6694 1.1751.1302.4378.1582.8996.0818 1.3499-.0325-.4443-.1022-.8851-.2082-1.3179-.1481-.4164-.3296-.8201-.543-1.2071z" fill="#263238"/><path d="m92.3652 87.4581c-.0915-.2007-.1595-.4112-.203-.6273-.1054-.3928-.2293-.941-.3347-1.5498-.1054-.6089-.1687-1.1703-.2003-1.5815-.0324-.2172-.0386-.4376-.0185-.6563.0549.2117.0911.4278.1081.6458.0553.4032.1344.9541.2398 1.563.1055.6088.2135 1.157.2952 1.5524.0558.2144.0937.433.1134.6537z" fill="#263238"/><path d="m92.2097 79.7696c0 .68.2214 2.525.2214 2.525l-.7907 1.0543.5456 3.524 3.5582-3.8139c.2446-.2586.4062-.5845.4639-.9357.1898-1.165.6062-3.8218.4797-3.9747-.2003-.2372-.5535.0738-.6853.6589-.0685.3084-.6299 2.0454-.6299 2.0454s-.3348-2.4196-.5588-2.6964c-.3505-.4322-.5271.3031-.5034.825.0395.6484.0448 1.4207.0448 1.8661-.0002.0125-.0047.0245-.0129.0339-.0082.0095-.0195.0157-.0318.0176s-.025-.0007-.0356-.0072-.0186-.0166-.0225-.0285c-.2293-.7907-.8092-2.6173-1.1545-2.4565-.3452.1608-.1871.941-.1027 1.3179.3505 1.5208.1291 1.534.1291 1.534l-.5403-1.7528c-.0134-.0415-.0422-.0763-.0804-.0974s-.083-.0267-.1252-.0159c-.1819.0448-.1713.2267-.1687.3769z" fill="#ffbe9d"/><path d="m94.2366 80.7131c.0158 0 .0738.1081.1397.3058.0884.2609.1225.5372.1001.8118-.0253.2806-.1462.5439-.3426.7459-.1555.1502-.29.1845-.2952.1713-.0053-.0132.1028-.079.2266-.2319.1597-.2016.2576-.4451.2821-.7011.0195-.259-.001-.5195-.0607-.7723-.034-.1065-.0509-.2177-.05-.3295z" fill="#eb996e"/><path d="m95.2961 80.4521c.0158 0 .0765.1108.1424.3058.0872.2612.1204.5374.0975.8118-.0249.2814-.1459.5458-.3427.7486-.1555.1502-.2899.1818-.2952.1686-.0052-.0131.1055-.079.2293-.2319.1591-.2007.2561-.4435.2794-.6985.0204-.2597.0008-.5211-.058-.7749-.0342-.1065-.0519-.2176-.0527-.3295z" fill="#eb996e"/><path d="m96.2291 82.5767c.0263.0237-.7697.9119-1.7791 1.9794-.5918.6617-1.2173 1.2925-1.874 1.8898-.0238-.0237.7722-.9093 1.7817-1.9794s1.8398-1.9136 1.8714-1.8898z" fill="#ff725e"/><path d="m96.6377 79.0684c.0238.1749.0238.3522 0 .5271-.0185.3295-.0554.7907-.116 1.2783-.0606.4877-.1344.9463-.1977 1.2705-.0203.1808-.0646.358-.1318.5271-.0342 0 .0791-.8091.2004-1.8028.1212-.9937.2082-1.8029.2451-1.8002z" fill="#ff725e"/><path d="m60.6439 95.584c-.0684.0046-.1371.0046-.2056 0-.1945-.0004-.389-.011-.5825-.0316-.7144-.0728-1.4143-.2504-2.0769-.5272-.986-.4097-1.887-.9996-2.6568-1.7396-1.4499-1.3792-2.3932-3.2064-2.6779-5.1871-.0901-.623-.121-1.2531-.0923-1.8819.0507-1.0652.2594-2.1169.6194-3.1207.2365-.6772.5523-1.3239.941-1.9268.1013-.1653.2121-.3246.3321-.477.0362-.0572.0786-.1103.1265-.1582-.029.0607-.0644.1181-.1055.1714-.0711.1133-.1871.2635-.311.4902-.3677.6101-.669 1.2578-.8988 1.932-.3415.9983-.5385 2.0403-.5851 3.0944-.0234.6166.0093 1.2342.0975 1.845.105.6595.2817 1.3056.5272 1.9267.4731 1.2019 1.1994 2.2878 2.1297 3.184.7551.7363 1.6398 1.3269 2.6093 1.7422.6528.2837 1.3422.4744 2.048.5667.4692.0738.7617.0764.7617.0975z" fill="#263238"/><path d="m78.0584 39.8489.1476.2636c.0569.1016.1408.1856.2425.2424l.2636.1476-.2636.1476c-.1005.0584-.1841.142-.2425.2425l-.1476.2636-.1476-.2636c-.0568-.1017-.1407-.1856-.2424-.2425l-.2636-.1476.2636-.1476c.1028-.0553.1871-.1396.2424-.2424z" fill="#263238"/><path d="m116.991 19.522.15.2635c.055.1029.14.1872.243.2425l.263.1476-.263.1503c-.103.0553-.188.1396-.243.2425l-.15.2635-.148-.2635c-.055-.1029-.139-.1872-.242-.2425l-.264-.1503.264-.1476c.103-.0553.187-.1396.242-.2425z" fill="#263238"/><path d="m136.622 44.8276.15.2636c.055.1029.14.1872.243.2425l.263.1502-.263.1476c-.103.0553-.188.1397-.243.2425l-.15.2636-.148-.2636c-.055-.1028-.139-.1872-.242-.2425l-.264-.1476.264-.1502c.103-.0553.187-.1396.242-.2425z" fill="#263238"/><path d="m107.268 112.437c-2.749-4.117-2.349-10.066.927-13.7772.567-.6431 1.287-1.2573 2.143-1.2915.857-.0343 1.758.8065 1.466 1.6157-.211.5772-.912.8988-1.036 1.502-.145.699.677 1.318 1.378 1.176s1.205-.767 1.468-1.431c.264-.6645.346-1.3841.58-2.0588.235-.6748.667-1.3416 1.345-1.5683.587-.195 1.236-.0237 1.845-.1239 1.146-.1924 1.939-1.3178 2.127-2.4749.187-1.1571-.101-2.3116-.359-3.4449-.258-1.1334-.485-2.3195-.192-3.4449.435-1.6685 2.032-2.8994 3.74-3.1287s3.466.4323 4.776 1.5551 2.211 2.6595 2.815 4.2752c1.126 3.0082 1.284 6.2934.451 9.3956-.834 3.1025-2.616 5.8665-5.098 7.9055-.994.817-2.109 1.518-2.934 2.496s-1.373 2.335-.97 3.558" fill="#ff725e"/><path d="m107.268 112.437c-2.749-4.117-2.349-10.066.927-13.7772.567-.6431 1.287-1.2573 2.143-1.2915.857-.0343 1.758.8065 1.466 1.6157-.211.5772-.912.8988-1.036 1.502-.145.699.677 1.318 1.378 1.176s1.205-.767 1.468-1.431c.264-.6645.346-1.3841.58-2.0588.235-.6748.667-1.3416 1.345-1.5683.587-.195 1.236-.0237 1.845-.1239 1.146-.1924 1.939-1.3178 2.127-2.4749.187-1.1571-.101-2.3116-.359-3.4449-.258-1.1334-.485-2.3195-.192-3.4449.435-1.6685 2.032-2.8994 3.74-3.1287s3.466.4323 4.776 1.5551 2.211 2.6595 2.815 4.2752c1.126 3.0082 1.284 6.2934.451 9.3956-.834 3.1025-2.616 5.8665-5.098 7.9055-.994.817-2.109 1.518-2.934 2.496s-1.373 2.335-.97 3.558" fill="#fff" opacity=".49"/><path d="m110.372 112.882c-.59-.999-1.196-2.04-1.317-3.194-.122-1.155.408-2.462 1.494-2.873.733-.277 1.582-.108 2.312-.359 1.054-.358 1.65-1.441 2.253-2.372 1.012-1.569 2.308-2.936 3.822-4.03.519-.4163 1.124-.7124 1.771-.8671.325-.072.663-.0575.98.0419.317.0995.603.2804.828.5248.651.7904.264 2.0324-.395 2.8364s-1.537 1.433-1.987 2.372c-.528 1.115-.346 2.422-.29 3.661.055 1.239-.124 2.636-1.121 3.381-.411.301-.914.451-1.338.736-.425.285-.775.791-.623 1.281" fill="#ff725e"/><path d="m124.421 95.9134c-.199.2366-.298.5413-.276.8497.022.3083.163.596.393.802.231.206.533.3141.842.3013.308-.0127.6-.1453.813-.3695.213-.2243.33-.5226.326-.8317-.003-.3092-.127-.6047-.345-.8241-.218-.2193-.512-.3452-.822-.3509-.309-.0057-.608.1092-.834.3204" fill="#ff725e"/><path d="m107.028 112.316c-.508-.013-1.01.107-1.458.348-.448.24-.825.592-1.096 1.022-.42.644-.567 1.429-.408 2.181s.61 1.411 1.254 1.831c.435.276.937.426 1.452.435l14.333.174.894-5.638z" fill="#263238"/><path d="m104.047 114.796c.157-.135.335-.243.527-.319.527-.205 1.091-.295 1.655-.264.833.041 1.654.209 2.436.498.445.145.909.301 1.399.422.501.134 1.019.19 1.537.166 1.054-.071 1.993-.596 2.926-.756.832-.13 1.683-.039 2.469.263.526.194 1.037.424 1.529.691.174.092.308.168.398.221.048.022.094.05.134.085-.051-.014-.101-.034-.147-.061l-.409-.198c-.498-.247-1.011-.462-1.536-.646-.772-.281-1.604-.357-2.415-.221-.473.106-.939.243-1.394.411-.498.187-1.018.307-1.547.356-.533.024-1.066-.033-1.582-.171-.495-.127-.962-.288-1.404-.435-.77-.294-1.58-.471-2.402-.527-.553-.039-1.108.035-1.631.218-.186.08-.367.168-.543.267z" fill="#455a64"/><path d="m113.999 116.298c.03-.02.06-.038.093-.053.095-.039.195-.067.297-.081.197-.025.396-.006.583.058.187.063.358.169.498.308l.04.04-.053.026c-.377.195-.792.308-1.216.332-.425.023-.849-.044-1.246-.198-.121-.044-.238-.102-.348-.171-.065-.037-.121-.09-.161-.154s-.063-.137-.068-.212c.01-.077.039-.149.086-.21.046-.062.107-.11.178-.141.123-.063.245-.126.374-.179.502-.207 1.04-.311 1.583-.309.543.003 1.08.113 1.58.325.225.088.434.215.616.374.095.081.166.185.207.302s.049.243.025.365c-.06.221-.194.415-.379.551-.167.126-.354.223-.554.284-.351.114-.72.161-1.088.14-.527-.038-1.047-.151-1.542-.335-.177-.06-.311-.11-.403-.147-.048-.014-.093-.034-.135-.061.05.006.098.017.145.034l.409.124c.495.161 1.009.258 1.528.288.358.014.715-.036 1.055-.148.184-.059.358-.148.514-.264.161-.12.278-.29.332-.485.021-.101.014-.207-.02-.305-.034-.099-.093-.186-.173-.253-.172-.148-.368-.265-.579-.346-.977-.408-2.075-.414-3.055-.015-.124.05-.244.107-.361.171-.111.06-.206.142-.206.24.007.054.026.106.056.152s.071.084.118.111c.102.064.209.118.322.161.38.149.787.217 1.196.201.408-.016.808-.117 1.176-.296l-.013.066c-.13-.134-.289-.238-.464-.303s-.362-.09-.549-.074c-.135.017-.268.046-.398.087z" fill="#455a64"/><path d="m121.501 113.436s-.214-.079-.607-.206c-.551-.183-1.119-.316-1.694-.395-.853-.123-1.719-.11-2.568.039-.954.166-1.932.643-3.012.975-1.081.333-2.204.488-3.163.198-.96-.29-1.724-.712-2.407-.991-.305-.134-.62-.247-.941-.34-.24-.063-.487-.105-.735-.124h-.263c-.08 0-.145.013-.201.016-.055.006-.111.006-.166 0 .053-.017.108-.029.164-.034.055 0 .121-.021.2-.027h.277c.253.01.504.044.751.103.324.083.642.189.951.316.691.264 1.468.702 2.404.96s2.027.134 3.089-.208c1.062-.343 2.051-.804 3.034-.968.861-.142 1.74-.142 2.601 0 .581.089 1.15.236 1.7.44.193.072.343.135.441.182.05.017.098.038.145.064z" fill="#455a64"/><path d="m119.853 116.348c-.038.044-.08.084-.126.119-.085.076-.214.182-.382.316-.48.373-.99.706-1.524.996-.796.435-1.659.735-2.554.886-1.103.188-2.236.07-3.276-.343-1.099-.448-2.011-1.107-2.899-1.6-.76-.472-1.606-.788-2.489-.93-.596-.081-1.203-.012-1.765.2-.204.087-.4.189-.588.306.166-.15.358-.27.566-.353.567-.24 1.187-.326 1.798-.251.9.13 1.763.442 2.538.918.891.49 1.806 1.146 2.884 1.581 1.016.406 2.125.525 3.205.345.882-.143 1.736-.427 2.527-.843.535-.281 1.049-.601 1.537-.957l.395-.292c.048-.038.099-.07.153-.098z" fill="#455a64"/><path d="m122.871 113.046c.486.295.873.728 1.112 1.244.239.517.318 1.092.229 1.654-.09.561-.345 1.083-.733 1.499-.387.416-.89.708-1.444.837s-1.134.09-1.665-.112c-.532-.201-.992-.557-1.32-1.021-.329-.464-.512-1.015-.526-1.584-.015-.568.141-1.128.446-1.608.397-.638 1.031-1.092 1.763-1.262.731-.171 1.5-.044 2.138.353z" fill="#455a64"/><path d="m122.871 113.046c-.208-.101-.422-.189-.64-.264-.509-.154-1.051-.162-1.564-.022s-.976.422-1.336.813c-.335.366-.57.813-.68 1.297-.122.533-.085 1.09.106 1.602.201.553.579 1.024 1.075 1.341s1.082.461 1.669.412c.277-.02.549-.084.806-.19.249-.096.482-.23.691-.395.39-.306.696-.707.885-1.165.204-.492.266-1.031.178-1.556s-.322-1.014-.676-1.412c-.162-.165-.333-.32-.514-.464.207.112.394.257.554.43.449.469.722 1.08.769 1.729.037.449-.032.9-.2 1.318-.193.479-.508.9-.915 1.22-.215.176-.457.318-.716.419-.27.112-.556.18-.847.203-.616.054-1.234-.098-1.755-.432-.522-.333-.919-.83-1.128-1.413-.104-.272-.163-.558-.177-.849-.015-.279.01-.558.074-.83.119-.503.367-.966.72-1.344.306-.328.684-.581 1.104-.738.607-.234 1.277-.247 1.893-.037.224.073.436.184.624.327z" fill="#263238"/><path d="m121.385 113.196c.044.003.088.015.129.034.081.029.203.077.356.142.152.066.332.159.527.277.236.133.447.307.622.514.215.257.347.573.379.907.035.378-.013.759-.139 1.117-.128.405-.375.762-.709 1.023-.379.264-.845.369-1.3.293-.447-.058-.876-.216-1.254-.462-.182-.111-.34-.257-.464-.43-.125-.173-.214-.369-.261-.576-.063-.376-.034-.762.087-1.123.093-.315.226-.616.395-.896.117-.209.275-.391.466-.535.19-.145.409-.248.641-.304.127-.026.257-.031.385-.015.045.003.089.014.129.034-.168-.014-.336-.002-.501.034-.22.064-.425.17-.603.314-.178.143-.326.321-.435.522-.158.276-.281.571-.367.877-.109.341-.134.702-.073 1.055.045.191.128.371.244.529.115.159.262.292.43.393.363.231.771.38 1.197.438.421.071.852-.023 1.205-.264.313-.245.547-.578.669-.957.121-.337.17-.696.145-1.054-.025-.313-.143-.612-.34-.857-.166-.201-.364-.373-.588-.508-.197-.124-.377-.219-.527-.295-.279-.151-.448-.217-.445-.227z" fill="#263238"/><path d="m121.661 113.968s.024-.021.082-.013c.077.023.145.07.193.134.078.097.142.206.187.322l.195.438c.071.163.158.334.229.527.092.221.099.469.019.695-.057.121-.138.228-.24.314-.101.086-.22.149-.348.185-.269.071-.553.062-.817-.027-.266-.073-.513-.202-.725-.377-.103-.092-.178-.21-.219-.342-.033-.126-.04-.257-.018-.385.037-.223.093-.442.166-.656.059-.189.148-.367.263-.528.082-.122.193-.222.322-.291.13-.069.275-.104.422-.104.079.002.158.022.229.058.025.012.048.029.066.05-.095-.033-.195-.052-.295-.055-.135.009-.265.05-.38.119-.115.07-.213.165-.285.279-.197.358-.326.749-.379 1.154-.021.111-.014.225.022.332.035.107.098.204.181.28.2.158.429.276.675.345.238.083.496.093.74.029.11-.03.211-.083.299-.156.088-.072.159-.162.21-.263.074-.196.074-.413 0-.609-.063-.192-.145-.372-.208-.527-.064-.156-.127-.308-.18-.445-.036-.113-.089-.219-.155-.317-.04-.061-.096-.11-.161-.142-.061-.024-.09-.019-.09-.024z" fill="#263238"/></svg>