<svg width="240" height="245" viewBox="0 0 240 245" fill="none" xmlns="http://www.w3.org/2000/svg">
<path d="M37.7122 64.6885H207.449C208.685 64.6885 209.871 65.1795 210.745 66.0535C211.619 66.9275 212.11 68.1129 212.11 69.349V187.385H33.0518V69.3562C33.0508 68.7436 33.1707 68.1368 33.4044 67.5705C33.6382 67.0042 33.9814 66.4896 34.4142 66.0561C34.8471 65.6225 35.3612 65.2786 35.9271 65.0439C36.493 64.8093 37.0996 64.6885 37.7122 64.6885V64.6885Z" fill="#263238"/>
<path d="M212.48 187.748H32.6885V69.3559C32.6885 68.0229 33.2175 66.7444 34.1594 65.8012C35.1012 64.858 36.379 64.3271 37.7119 64.3252H207.449C208.783 64.3271 210.061 64.8577 211.004 65.8008C211.947 66.7438 212.478 68.0223 212.48 69.3559V187.748ZM33.4144 187.022H211.754V69.3559C211.752 68.2148 211.298 67.121 210.491 66.3141C209.684 65.5072 208.59 65.053 207.449 65.0511H37.7119C36.5715 65.053 35.4784 65.5074 34.6727 66.3145C33.8669 67.1216 33.4144 68.2155 33.4144 69.3559V187.022Z" fill="#263238"/>
<path d="M233.648 243.644H11.5131C9.05948 243.644 6.99058 240.124 8.07947 237.924L33.0515 189.41H212.117L237.22 237.757C238.316 239.949 236.138 243.644 233.648 243.644Z" fill="#263238"/>
<path d="M233.648 244.008H11.5132C10.8251 243.965 10.1594 243.746 9.57895 243.374C8.9985 243.002 8.52245 242.488 8.19572 241.881C7.78387 241.287 7.5264 240.599 7.44656 239.881C7.36672 239.162 7.46701 238.435 7.73839 237.765L32.812 189.048H212.335L212.436 189.237L237.539 237.591C237.809 238.276 237.904 239.018 237.815 239.749C237.726 240.481 237.457 241.178 237.031 241.779C236.696 242.402 236.211 242.932 235.621 243.321C235.03 243.71 234.352 243.946 233.648 244.008V244.008ZM33.2911 189.774L8.39898 238.106C8.18404 238.665 8.11066 239.268 8.18539 239.862C8.26012 240.456 8.48063 241.023 8.82728 241.511C9.09144 242.008 9.47533 242.432 9.94427 242.744C10.4132 243.055 10.9524 243.245 11.5132 243.297H233.648C234.229 243.234 234.785 243.03 235.268 242.7C235.751 242.371 236.144 241.927 236.414 241.409C236.772 240.913 237.002 240.336 237.086 239.73C237.169 239.124 237.103 238.507 236.893 237.932L211.892 189.774H33.2911Z" fill="#263238"/>
<path d="M233.648 241.619H11.5132C10.951 241.619 10.398 241.476 9.9066 241.203C9.4152 240.93 9.00162 240.536 8.70504 240.059C8.40846 239.581 8.23868 239.036 8.21179 238.474C8.1849 237.913 8.30177 237.353 8.55136 236.85L33.0515 187.385H212.117L236.61 236.85C236.859 237.353 236.976 237.913 236.949 238.474C236.922 239.036 236.753 239.581 236.456 240.059C236.16 240.536 235.746 240.93 235.255 241.203C234.763 241.476 234.21 241.619 233.648 241.619V241.619Z" fill="white"/>
<path d="M233.648 241.982H11.5134C10.8871 241.987 10.2698 241.832 9.72043 241.531C9.17108 241.23 8.70798 240.794 8.3753 240.263C8.04262 239.732 7.85145 239.125 7.82004 238.5C7.78863 237.874 7.91802 237.251 8.19587 236.69L32.696 187.225C32.7245 187.163 32.7707 187.11 32.8288 187.074C32.8869 187.038 32.9543 187.02 33.0227 187.022H212.117C212.184 187.02 212.251 187.039 212.308 187.075C212.364 187.111 212.409 187.163 212.437 187.225L236.937 236.69C237.213 237.249 237.343 237.869 237.313 238.493C237.283 239.116 237.094 239.721 236.765 240.251C236.436 240.781 235.977 241.218 235.431 241.521C234.886 241.824 234.272 241.982 233.648 241.982V241.982ZM33.2913 187.748L8.87825 237.009C8.6558 237.458 8.5515 237.955 8.57522 238.455C8.59893 238.955 8.74989 239.441 9.01378 239.866C9.27767 240.291 9.64575 240.642 10.0832 240.885C10.5206 241.129 11.0129 241.256 11.5134 241.256H233.648C234.149 241.256 234.641 241.129 235.078 240.885C235.516 240.642 235.884 240.291 236.148 239.866C236.412 239.441 236.563 238.955 236.586 238.455C236.61 237.955 236.506 237.458 236.283 237.009L211.892 187.748H33.2913Z" fill="#263238"/>
<path d="M201.272 74.4014H43.897V177.665H201.272V74.4014Z" fill="white"/>
<path d="M201.627 178.028H43.5342V74.0459H201.627V178.028ZM44.2601 177.302H200.901V74.7718H44.2601V177.302Z" fill="#263238"/>
<path d="M197.758 121.463H47.9839V173.948H197.758V121.463Z" fill="#F28888"/>
<path opacity="0.46" d="M67.1267 153.026V151.72C67.1267 151.527 67.0502 151.342 66.9141 151.206C66.7779 151.07 66.5933 150.994 66.4007 150.994H65.399C65.2466 150.328 64.9841 149.693 64.6222 149.113L65.3481 148.388C65.4747 148.253 65.5452 148.075 65.5452 147.89C65.5452 147.705 65.4747 147.528 65.3481 147.393L64.4117 146.457C64.2767 146.328 64.0973 146.256 63.9108 146.256C63.7243 146.256 63.5449 146.328 63.4099 146.457L62.684 147.182C62.1029 146.819 61.4649 146.557 60.7966 146.406V145.382C60.7966 145.19 60.7201 145.005 60.5839 144.869C60.4478 144.733 60.2632 144.656 60.0706 144.656H58.7494C58.5569 144.656 58.3723 144.733 58.2361 144.869C58.1 145.005 58.0235 145.19 58.0235 145.382V146.406C57.3579 146.558 56.7224 146.821 56.1433 147.182L55.4174 146.457C55.2828 146.33 55.105 146.26 54.9202 146.26C54.7354 146.26 54.5575 146.33 54.4229 146.457L53.5227 147.364C53.3962 147.499 53.3257 147.676 53.3257 147.861C53.3257 148.046 53.3962 148.224 53.5227 148.359L54.2487 149.084C53.8868 149.663 53.6243 150.299 53.4719 150.965H52.4774C52.2849 150.965 52.1002 151.041 51.9641 151.177C51.8279 151.313 51.7515 151.498 51.7515 151.691V153.012C51.7515 153.204 51.8279 153.389 51.9641 153.525C52.1002 153.661 52.2849 153.738 52.4774 153.738H53.501C53.652 154.406 53.9146 155.044 54.2777 155.625L53.5518 156.351C53.4252 156.486 53.3547 156.663 53.3547 156.848C53.3547 157.033 53.4252 157.211 53.5518 157.346L54.4882 158.282C54.6229 158.409 54.8007 158.479 54.9855 158.479C55.1703 158.479 55.3481 158.409 55.4827 158.282L56.2087 157.556C56.7877 157.918 57.4232 158.18 58.0888 158.333V159.356C58.0888 159.549 58.1653 159.734 58.3015 159.87C58.4376 160.006 58.6222 160.082 58.8148 160.082H60.136C60.3285 160.082 60.5131 160.006 60.6493 159.87C60.7854 159.734 60.8619 159.549 60.8619 159.356V158.333C61.5302 158.182 62.1683 157.919 62.7493 157.556L63.4752 158.282C63.6102 158.411 63.7896 158.482 63.9761 158.482C64.1627 158.482 64.342 158.411 64.477 158.282L65.4135 157.346C65.5401 157.211 65.6105 157.033 65.6105 156.848C65.6105 156.663 65.5401 156.486 65.4135 156.351L64.6876 155.625C65.0507 155.044 65.3133 154.406 65.4643 153.738H66.4879C66.6624 153.717 66.8234 153.633 66.9409 153.502C67.0584 153.371 67.1244 153.202 67.1267 153.026ZM59.7367 155.349C59.1166 155.412 58.4923 155.281 57.9494 154.975C57.4066 154.669 56.9717 154.203 56.7044 153.64C56.4372 153.076 56.3507 152.445 56.4569 151.83C56.563 151.216 56.8566 150.65 57.2973 150.209C57.738 149.769 58.3042 149.475 58.9184 149.369C59.5325 149.263 60.1644 149.349 60.7275 149.616C61.2905 149.884 61.7571 150.319 62.0632 150.861C62.3693 151.404 62.4999 152.029 62.4372 152.649C62.3671 153.341 62.0601 153.988 61.568 154.48C61.076 154.972 60.429 155.279 59.7367 155.349V155.349Z" fill="white"/>
<path opacity="0.46" d="M79.5909 162.283V160.962C79.5909 160.769 79.5144 160.585 79.3783 160.448C79.2421 160.312 79.0575 160.236 78.8649 160.236H77.8849C77.7314 159.567 77.4663 158.929 77.1009 158.348L77.8269 157.622C77.9556 157.487 78.0274 157.308 78.0274 157.122C78.0274 156.935 77.9556 156.756 77.8269 156.621L76.8904 155.684C76.7554 155.556 76.576 155.484 76.3895 155.484C76.203 155.484 76.0236 155.556 75.8886 155.684L75.1627 156.41C74.581 156.048 73.9432 155.786 73.2753 155.633V154.624C73.2753 154.432 73.1988 154.247 73.0626 154.111C72.9265 153.975 72.7419 153.898 72.5493 153.898H71.2209C71.0284 153.898 70.8437 153.975 70.7076 154.111C70.5714 154.247 70.495 154.432 70.495 154.624V155.648C69.8271 155.8 69.1892 156.063 68.6075 156.425L67.8816 155.699C67.7466 155.57 67.5672 155.498 67.3807 155.498C67.1942 155.498 67.0148 155.57 66.8798 155.699L65.9434 156.635C65.8147 156.77 65.7429 156.95 65.7429 157.136C65.7429 157.323 65.8147 157.502 65.9434 157.637L66.6693 158.363C66.3008 158.942 66.0356 159.581 65.8853 160.25H64.869C64.6765 160.25 64.4918 160.327 64.3557 160.463C64.2195 160.599 64.1431 160.784 64.1431 160.976V162.297C64.1431 162.49 64.2195 162.675 64.3557 162.811C64.4918 162.947 64.6765 163.023 64.869 163.023H65.8853C66.0357 163.691 66.301 164.327 66.6693 164.904L65.9434 165.629C65.8147 165.764 65.7429 165.944 65.7429 166.13C65.7429 166.317 65.8147 166.496 65.9434 166.631L66.8798 167.56C67.0148 167.689 67.1942 167.761 67.3807 167.761C67.5672 167.761 67.7466 167.689 67.8816 167.56L68.6075 166.835C69.1892 167.196 69.8271 167.459 70.495 167.611V168.635C70.495 168.827 70.5714 169.012 70.7076 169.148C70.8437 169.284 71.0284 169.361 71.2209 169.361H72.5493C72.7419 169.361 72.9265 169.284 73.0626 169.148C73.1988 169.012 73.2753 168.827 73.2753 168.635V167.611C73.9432 167.459 74.581 167.196 75.1627 166.835L75.8886 167.56C76.0236 167.689 76.203 167.761 76.3895 167.761C76.576 167.761 76.7554 167.689 76.8904 167.56L77.8269 166.631C77.9556 166.496 78.0274 166.317 78.0274 166.13C78.0274 165.944 77.9556 165.764 77.8269 165.629L77.1009 164.904C77.4663 164.325 77.7314 163.69 77.8849 163.023H78.9012C79.0899 163.014 79.2675 162.931 79.3963 162.793C79.5251 162.655 79.5949 162.472 79.5909 162.283V162.283ZM72.2009 164.635C71.579 164.699 70.9524 164.569 70.4073 164.263C69.8622 163.957 69.4254 163.489 69.1567 162.924C68.8881 162.36 68.8009 161.726 68.907 161.11C69.0132 160.494 69.3076 159.925 69.7497 159.483C70.1918 159.041 70.76 158.747 71.3761 158.641C71.9923 158.534 72.6262 158.622 73.1908 158.89C73.7554 159.159 74.223 159.596 74.5293 160.141C74.8355 160.686 74.9655 161.313 74.9014 161.934C74.83 162.626 74.5225 163.273 74.0307 163.764C73.5389 164.256 72.8927 164.564 72.2009 164.635Z" fill="white"/>
<path d="M81.0069 126.516H53.8571C53.7743 126.516 53.6949 126.483 53.6364 126.425C53.5778 126.366 53.5449 126.287 53.5449 126.204C53.5449 126.121 53.5776 126.041 53.6359 125.981C53.6942 125.921 53.7736 125.887 53.8571 125.885H81.0069C81.0916 125.885 81.1728 125.918 81.2327 125.978C81.2926 126.038 81.3263 126.119 81.3263 126.204C81.3244 126.288 81.2899 126.367 81.2302 126.425C81.1705 126.484 81.0904 126.516 81.0069 126.516V126.516Z" fill="#263238"/>
<path d="M81.0069 130.436H53.8571C53.7736 130.434 53.6942 130.4 53.6359 130.34C53.5776 130.28 53.5449 130.2 53.5449 130.117C53.5449 130.034 53.5778 129.955 53.6364 129.896C53.6949 129.838 53.7743 129.805 53.8571 129.805H81.0069C81.0904 129.805 81.1705 129.837 81.2302 129.896C81.2899 129.954 81.3244 130.033 81.3263 130.117C81.3263 130.202 81.2926 130.283 81.2327 130.343C81.1728 130.403 81.0916 130.436 81.0069 130.436Z" fill="#263238"/>
<path d="M81.0069 134.348H53.8571C53.7743 134.348 53.6949 134.315 53.6364 134.257C53.5778 134.198 53.5449 134.119 53.5449 134.036C53.5449 133.953 53.5776 133.873 53.6359 133.813C53.6942 133.753 53.7736 133.719 53.8571 133.717H81.0069C81.0916 133.717 81.1728 133.75 81.2327 133.81C81.2926 133.87 81.3263 133.951 81.3263 134.036C81.3244 134.12 81.2899 134.199 81.2302 134.257C81.1705 134.316 81.0904 134.348 81.0069 134.348V134.348Z" fill="#263238"/>
<path d="M81.0069 138.268H53.8571C53.7736 138.266 53.6942 138.232 53.6359 138.172C53.5776 138.112 53.5449 138.032 53.5449 137.949C53.5449 137.866 53.5778 137.787 53.6364 137.728C53.6949 137.67 53.7743 137.637 53.8571 137.637H81.0069C81.0904 137.637 81.1705 137.669 81.2302 137.728C81.2899 137.786 81.3244 137.865 81.3263 137.949C81.3263 138.034 81.2926 138.115 81.2327 138.175C81.1728 138.235 81.0916 138.268 81.0069 138.268Z" fill="#263238"/>
<path d="M194.883 79.2725H50.8586C49.2709 79.2725 47.9839 80.5595 47.9839 82.1472V82.4738C47.9839 84.0615 49.2709 85.3485 50.8586 85.3485H194.883C196.471 85.3485 197.758 84.0615 197.758 82.4738V82.1472C197.758 80.5595 196.471 79.2725 194.883 79.2725Z" fill="#F28888"/>
<path d="M194.883 99.3076H50.8586C49.2709 99.3076 47.9839 100.595 47.9839 102.182V102.509C47.9839 104.097 49.2709 105.384 50.8586 105.384H194.883C196.471 105.384 197.758 104.097 197.758 102.509V102.182C197.758 100.595 196.471 99.3076 194.883 99.3076Z" fill="#F28888"/>
<path d="M115.111 204.554L115.423 197.94H105.964L105.333 204.554H115.111Z" fill="#263238"/>
<path d="M115.46 204.916H104.934L105.66 197.577H115.823L115.46 204.916ZM105.732 204.19H114.763L115.046 198.303H106.291L105.732 204.19Z" fill="white"/>
<path d="M134.667 204.554L134.348 197.94H124.882L124.889 204.554H134.667Z" fill="#263238"/>
<path d="M135.052 204.916H124.526V197.577H134.689L135.052 204.916ZM125.252 204.19H134.283L134 198.303H125.245L125.252 204.19Z" fill="white"/>
<path d="M185.591 211.617H195.711L193.337 204.554H183.559L185.591 211.617Z" fill="#263238"/>
<path d="M196.212 211.973H185.323L183.072 204.184H193.598L196.212 211.973ZM185.867 211.247H195.203L193.076 204.91H184.038L185.867 211.247Z" fill="white"/>
<path d="M105.332 204.554L105.964 197.94H96.4979L95.5542 204.554H105.332Z" fill="#263238"/>
<path d="M105.667 204.916H95.1406L96.186 197.577H106.349L105.667 204.916ZM95.9754 204.19H105.006L105.565 198.303H96.8538L95.9754 204.19Z" fill="white"/>
<path d="M85.7758 204.554L87.039 197.94H77.5728L75.9976 204.554H85.7758Z" fill="#263238"/>
<path d="M86.081 204.916H75.5405L77.29 197.577H87.453L86.081 204.916ZM76.4625 204.19H85.4785L86.5964 198.303H77.8853L76.4625 204.19Z" fill="white"/>
<path d="M173.781 204.554L172.191 197.94H162.732L164.002 204.554H173.781Z" fill="#263238"/>
<path d="M174.238 204.916H163.697L162.289 197.577H172.452L174.238 204.916ZM164.3 204.19H173.316L171.908 198.303H163.196L164.3 204.19Z" fill="white"/>
<path d="M183.559 204.554L181.65 197.94H172.191L173.781 204.554H183.559Z" fill="#263238"/>
<path d="M184.038 204.916H173.49L171.733 197.577H181.896L184.038 204.916ZM174.064 204.19H183.072L181.381 198.303H172.67L174.064 204.19Z" fill="white"/>
<path d="M75.9975 204.554L77.5728 197.94H68.1139L66.2192 204.554H75.9975Z" fill="#263238"/>
<path d="M76.288 204.916H65.7402L67.8382 197.577H78.0375L76.288 204.916ZM66.7057 204.19H75.7073L77.1083 198.303H68.3971L66.7057 204.19Z" fill="white"/>
<path d="M144.446 204.554L143.807 197.94H134.348L134.668 204.554H144.446Z" fill="#263238"/>
<path d="M144.845 204.916H134.319L133.963 197.577H144.126L144.845 204.916ZM135.016 204.19H144.047L143.48 198.303H134.726L135.016 204.19Z" fill="white"/>
<path d="M193.337 204.554L191.116 197.94H181.649L183.559 204.554H193.337Z" fill="#263238"/>
<path d="M193.838 204.916H183.283L181.171 197.577H191.377L193.838 204.916ZM183.828 204.19H192.829L190.855 198.303H182.144L183.828 204.19Z" fill="white"/>
<path d="M164.002 204.554L162.732 197.94H153.266L154.224 204.554H164.002Z" fill="#263238"/>
<path d="M164.438 204.916H153.912L152.852 197.577H163.015L164.438 204.916ZM154.536 204.19H163.545L162.413 198.303H153.701L154.536 204.19Z" fill="white"/>
<path d="M154.224 204.554L153.266 197.94H143.807L144.445 204.554H154.224Z" fill="#263238"/>
<path d="M154.645 204.916H144.119L143.393 197.577H153.556L154.645 204.916ZM144.772 204.19H153.803L152.954 198.303H144.206L144.772 204.19Z" fill="white"/>
<path d="M124.889 204.554L124.882 197.94H115.423L115.111 204.554H124.889Z" fill="#263238"/>
<path d="M125.252 204.916H114.733L115.075 197.577H125.238L125.252 204.916ZM115.496 204.19H124.526V198.303H115.771L115.496 204.19Z" fill="white"/>
<path d="M56.4485 204.554H46.6702L43.9697 211.617H54.0819L56.4485 204.554Z" fill="#263238"/>
<path d="M54.3431 211.973H43.4541L46.4304 204.184H56.9637L54.3431 211.973ZM44.4922 211.247H53.8204L55.9401 204.91H46.9168L44.4922 211.247Z" fill="white"/>
<path d="M58.655 197.94H49.1889L46.6699 204.554H56.4482L58.655 197.94Z" fill="#263238"/>
<path d="M56.7024 204.916H46.1401L48.9422 197.577H59.1561L56.7024 204.916ZM47.1927 204.19H56.1798L58.147 198.303H49.4359L47.1927 204.19Z" fill="white"/>
<path d="M66.2193 204.554L68.1139 197.94H58.6551L56.4482 204.554H66.2193Z" fill="#263238"/>
<path d="M66.4955 204.916H55.9404L58.3941 197.577H68.5571L66.4955 204.916ZM56.9495 204.19H65.951L67.6352 198.303H58.924L56.9495 204.19Z" fill="white"/>
<path d="M41.0733 219.188L37.9663 227.326H48.8335L51.5557 219.188H41.0733Z" fill="#263238"/>
<path d="M49.095 227.689H37.4365L40.8629 218.825H52.0931L49.095 227.689ZM38.4891 226.963H48.5723L51.0259 219.551H41.3275L38.4891 226.963Z" fill="white"/>
<path d="M54.0819 211.617H43.9697L41.0732 219.189H51.5557L54.0819 211.617Z" fill="#263238"/>
<path d="M51.8167 219.551H40.543L43.7153 211.246H54.6042L51.8167 219.551ZM41.6028 218.825H51.294L53.5807 211.979H44.2162L41.6028 218.825Z" fill="white"/>
<path d="M51.5557 219.188L48.8335 227.326H59.7007L62.0309 219.188H51.5557Z" fill="#263238"/>
<path d="M59.9762 227.689H48.3613L51.3231 218.825H62.5388L59.9762 227.689ZM49.3341 226.963H59.4245L61.5515 219.551H51.8168L49.3341 226.963Z" fill="white"/>
<path d="M95.5542 204.554L96.4979 197.94H87.039L85.7759 204.554H95.5542Z" fill="#263238"/>
<path d="M95.8736 204.916H85.3403L86.7341 197.577H96.8972L95.8736 204.916ZM86.2187 204.19H95.242L96.0768 198.303H87.3221L86.2187 204.19Z" fill="white"/>
<path d="M94.5453 211.617L95.5544 204.554H85.7761L84.4331 211.617H94.5453Z" fill="#263238"/>
<path d="M94.8645 211.973H83.9756L85.4637 204.184H95.9607L94.8645 211.973ZM84.8685 211.247H94.233L95.1404 204.91H86.0808L84.8685 211.247Z" fill="white"/>
<path d="M84.433 211.617L85.7759 204.554H75.9976L74.3135 211.617H84.433Z" fill="#263238"/>
<path d="M84.7308 211.972H73.8418L75.7074 204.19H86.2117L84.7308 211.972ZM74.7783 211.246H84.1282L85.3405 204.909H76.2882L74.7783 211.246Z" fill="white"/>
<path d="M104.665 211.617L105.333 204.554H95.5545L94.5454 211.617H104.665Z" fill="#263238"/>
<path d="M104.992 211.973H94.1025L95.2132 204.184H105.703L104.992 211.973ZM94.9664 211.247H104.331L104.933 204.91H95.8738L94.9664 211.247Z" fill="white"/>
<path d="M66.2196 204.554H56.4486L54.082 211.617H64.2015L66.2196 204.554Z" fill="#263238"/>
<path d="M64.47 211.973H53.5811L56.1799 204.184H66.7059L64.47 211.973ZM54.5901 211.247H63.9256L65.7404 204.91H56.7026L54.5901 211.247Z" fill="white"/>
<path d="M187.776 219.189H198.252L195.711 211.617H185.591L187.776 219.189Z" fill="#263238"/>
<path d="M198.76 219.551H187.501L185.112 211.246H196.001L198.76 219.551ZM188.045 218.825H197.751L195.486 211.972H186.049L188.045 218.825Z" fill="white"/>
<path d="M74.3134 211.617L75.9975 204.554H66.2193L64.2012 211.617H74.3134Z" fill="#263238"/>
<path d="M74.6038 211.973H63.7148L65.9507 204.184H76.4332L74.6038 211.973ZM64.6803 211.247H74.0303L75.5403 204.91H66.4952L64.6803 211.247Z" fill="white"/>
<path d="M54.0819 211.617L51.5557 219.189H62.0309L64.2014 211.617H54.0819Z" fill="#263238"/>
<path d="M62.3068 219.551H51.0259L53.8207 211.246H64.7097L62.3068 219.551ZM52.0567 218.825H61.7551L63.7151 211.979H54.3434L52.0567 218.825Z" fill="white"/>
<path d="M165.36 211.617L164.002 204.554H154.224L155.248 211.617H165.36Z" fill="#263238"/>
<path d="M165.803 211.973H154.914L153.789 204.184H164.271L165.803 211.973ZM155.56 211.247H164.924L163.698 204.91H154.645L155.56 211.247Z" fill="white"/>
<path d="M155.248 211.617L154.224 204.554H144.446L145.128 211.617H155.248Z" fill="#263238"/>
<path d="M155.661 211.973H144.772L144.046 204.184H154.536L155.661 211.973ZM145.455 211.247H154.834L153.919 204.91H144.845L145.455 211.247Z" fill="white"/>
<path d="M185.592 211.617L183.559 204.554H173.781L175.479 211.617H185.592Z" fill="#263238"/>
<path d="M186.049 211.973H175.16L173.287 204.184H183.799L186.049 211.973ZM175.733 211.247H185.083L183.254 204.91H174.238L175.733 211.247Z" fill="white"/>
<path d="M124.896 211.617L124.889 204.554H115.111L114.777 211.617H124.896Z" fill="#263238"/>
<path d="M125.26 211.973H114.371L114.734 204.184H125.223L125.26 211.973ZM115.162 211.247H124.534V204.91H115.46L115.162 211.247Z" fill="white"/>
<path d="M145.128 211.617L144.446 204.554H134.667L135.009 211.617H145.128Z" fill="#263238"/>
<path d="M145.527 211.973H134.638L134.253 204.184H144.743L145.527 211.973ZM135.364 211.247H144.736L144.126 204.91H135.052L135.364 211.247Z" fill="white"/>
<path d="M135.009 211.617L134.667 204.554H124.889L124.896 211.617H135.009Z" fill="#263238"/>
<path d="M135.393 211.972H124.504V204.19H135.016L135.393 211.972ZM125.23 211.246H134.602L134.29 204.909H125.252L125.23 211.246Z" fill="white"/>
<path d="M114.777 211.617L115.111 204.554H105.333L104.665 211.617H114.777Z" fill="#263238"/>
<path d="M115.125 211.973H104.236L104.962 204.184H115.452L115.125 211.973ZM105.064 211.247H114.436L114.733 204.91H105.666L105.064 211.247Z" fill="white"/>
<path d="M145.128 211.617L145.861 219.189H156.336L155.247 211.617H145.128Z" fill="#263238"/>
<path d="M156.758 219.551H145.528L144.729 211.246H155.56L156.758 219.551ZM146.188 218.825H155.923L154.928 211.972H145.528L146.188 218.825Z" fill="white"/>
<path d="M155.248 211.617L156.336 219.189H166.819L165.36 211.617H155.248Z" fill="#263238"/>
<path d="M167.255 219.551H156.025L154.834 211.246H165.665L167.255 219.551ZM156.656 218.825H166.376L165.062 211.972H155.662L156.656 218.825Z" fill="white"/>
<path d="M64.2013 211.617L62.0308 219.189H72.5059L74.3135 211.617H64.2013Z" fill="#263238"/>
<path d="M72.8037 219.551H61.5518L63.9256 211.246H74.7782L72.8037 219.551ZM62.5172 218.825H72.2229L73.8563 211.979H64.47L62.5172 218.825Z" fill="white"/>
<path d="M165.36 211.617L166.819 219.189H177.294L175.479 211.617H165.36Z" fill="#263238"/>
<path d="M177.759 219.551H166.521L164.924 211.246H175.762L177.759 219.551ZM167.117 218.825H176.837L175.16 211.972H165.803L167.117 218.825Z" fill="white"/>
<path d="M124.896 211.617L124.904 219.189H135.379L135.009 211.617H124.896Z" fill="#263238"/>
<path d="M135.764 219.551H124.541V211.246H135.365L135.764 219.551ZM125.267 218.825H135.002L134.668 211.979H125.231L125.267 218.825Z" fill="white"/>
<path d="M175.479 211.617L177.294 219.189H187.777L185.592 211.617H175.479Z" fill="#263238"/>
<path d="M188.227 219.551H177.011L175.015 211.246H185.867L188.227 219.551ZM177.555 218.825H187.261L185.323 211.972H175.937L177.555 218.825Z" fill="white"/>
<path d="M135.009 211.617L135.379 219.189H145.861L145.128 211.617H135.009Z" fill="#263238"/>
<path d="M146.26 219.551H135.037L134.631 211.246H145.454L146.26 219.551ZM135.727 218.825H145.462L144.801 211.979H135.364L135.727 218.825Z" fill="white"/>
<path d="M84.4329 211.617L82.9883 219.189H93.4707L94.5451 211.617H84.4329Z" fill="#263238"/>
<path d="M93.7829 219.551H82.5527L84.128 211.246H94.9662L93.7829 219.551ZM83.4239 218.825H93.1296L94.1096 211.979H84.7305L83.4239 218.825Z" fill="white"/>
<path d="M74.3134 211.617L72.5059 219.189H82.9883L84.4329 211.617H74.3134Z" fill="#263238"/>
<path d="M83.286 219.551H72.0776L74.0304 211.246H84.8685L83.286 219.551ZM72.9705 218.825H82.6907L83.9902 211.979H74.6039L72.9705 218.825Z" fill="white"/>
<path d="M114.777 211.617L114.429 219.189H124.904L124.897 211.617H114.777Z" fill="#263238"/>
<path d="M125.267 219.551H114.044L114.436 211.254H125.26L125.267 219.551ZM114.806 218.825H124.541V211.973H115.104L114.806 218.825Z" fill="white"/>
<path d="M104.664 211.617L103.946 219.189H114.428L114.777 211.617H104.664Z" fill="#263238"/>
<path d="M114.77 219.551H103.547L104.331 211.246H115.162L114.77 219.551ZM104.345 218.825H114.08L114.4 211.979H104.962L104.345 218.825Z" fill="white"/>
<path d="M94.5451 211.617L93.4707 219.189H103.946L104.665 211.617H94.5451Z" fill="#263238"/>
<path d="M104.273 219.551H93.0498L94.2331 211.246H105.064L104.273 219.551ZM93.8846 218.825H103.612L104.265 211.979H94.8283L93.8846 218.825Z" fill="white"/>
<path d="M175.479 211.617L173.781 204.554H164.002L165.36 211.617H175.479Z" fill="#263238"/>
<path d="M175.937 211.972H165.048L163.545 204.19H174.049L175.937 211.972ZM165.657 211.246H175.015L173.49 204.909H164.438L165.657 211.246Z" fill="white"/>
<path d="M58.6551 197.94L60.9127 191.175H51.7733L49.189 197.94H58.6551Z" fill="#263238"/>
<path d="M58.9166 198.303H48.6665L51.5267 190.812H61.4211L58.9166 198.303ZM49.7191 197.577H58.4303L60.4484 191.537H52.0276L49.7191 197.577Z" fill="white"/>
<path d="M49.1892 197.94H40.4563L37.6396 204.554H46.6702L49.1892 197.94Z" fill="#263238"/>
<path d="M46.9171 204.916H37.0952L40.2167 197.577H49.7192L46.9171 204.916ZM38.2059 204.19H46.4307L48.6811 198.303H40.6958L38.2059 204.19Z" fill="white"/>
<path d="M51.7733 191.175H43.338L40.4561 197.94H49.189L51.7733 191.175Z" fill="#263238"/>
<path d="M49.4431 198.303H39.9116L43.0985 190.812H52.3033L49.4431 198.303ZM41.0078 197.577H48.9422L51.2507 191.537H43.5848L41.0078 197.577Z" fill="white"/>
<path d="M46.6701 204.554H37.6396L34.627 211.617H43.9697L46.6701 204.554Z" fill="#263238"/>
<path d="M44.2167 211.973H34.0537L37.3712 204.184H47.164L44.2167 211.973ZM35.1789 211.247H43.7158L46.1405 204.91H37.8794L35.1789 211.247Z" fill="white"/>
<path d="M43.9697 211.617H34.6269L31.4038 219.189H41.0732L43.9697 211.617Z" fill="#263238"/>
<path d="M41.3272 219.551H30.8521L34.3873 211.246H44.4923L41.3272 219.551ZM31.9482 218.825H40.8626L43.476 211.979H34.8664L31.9482 218.825Z" fill="white"/>
<path d="M41.0729 219.188H31.4035L27.9336 227.326H37.966L41.0729 219.188Z" fill="#263238"/>
<path d="M38.2127 227.689H27.3818L31.1639 218.825H41.5883L38.2127 227.689ZM28.4852 226.963H37.7118L40.543 219.551H31.6431L28.4852 226.963Z" fill="white"/>
<path d="M203.115 204.554L205.823 211.617H214.774L211.761 204.554H203.115Z" fill="#263238"/>
<path d="M215.326 211.973H205.576L202.585 204.184H212.023L215.326 211.973ZM206.077 211.247H214.222L211.522 204.91H203.638L206.077 211.247Z" fill="white"/>
<path d="M208.734 219.189H218.004L214.774 211.617H205.823L208.734 219.189Z" fill="#263238"/>
<path d="M218.549 219.551H208.48L205.301 211.246H215.014L218.549 219.551ZM208.981 218.825H217.453L214.549 211.979H206.375L208.981 218.825Z" fill="white"/>
<path d="M211.856 227.326H221.467L218.005 219.188H208.734L211.856 227.326Z" fill="#263238"/>
<path d="M222.019 227.689H211.609L208.204 218.825H218.244L222.019 227.689ZM212.102 226.963H220.893L217.736 219.551H209.278L212.102 226.963Z" fill="white"/>
<path d="M134.348 197.94L134.014 191.175H124.875L124.882 197.94H134.348Z" fill="#263238"/>
<path d="M134.726 198.303H124.519V190.812H134.363L134.726 198.303ZM125.245 197.577H133.956L133.658 191.537H125.238L125.245 197.577Z" fill="white"/>
<path d="M203.115 204.554H211.761L208.945 197.94H200.575L203.115 204.554Z" fill="#263238"/>
<path d="M212.313 204.916H202.876L200.059 197.577H209.199L212.313 204.916ZM203.362 204.19H211.209L208.705 198.303H201.104L203.362 204.19Z" fill="white"/>
<path d="M198.252 219.189H208.734L205.823 211.617H195.711L198.252 219.189Z" fill="#263238"/>
<path d="M209.278 219.551H197.99L195.203 211.246H206.092L209.278 219.551ZM198.527 218.825H208.219L205.576 211.972H196.212L198.527 218.825Z" fill="white"/>
<path d="M68.1142 197.94L70.0524 191.175H60.9129L58.6553 197.94H68.1142Z" fill="#263238"/>
<path d="M68.3899 198.303H58.147L60.6514 190.812H70.5314L68.3899 198.303ZM59.156 197.577H67.8672L69.6022 191.537H61.1886L59.156 197.577Z" fill="white"/>
<path d="M191.116 197.94L193.337 204.554H203.115L200.575 197.94H191.116Z" fill="#263238"/>
<path d="M203.638 204.916H193.076L190.607 197.577H200.821L203.638 204.916ZM193.598 204.19H202.585L200.328 198.303H191.616L193.598 204.19Z" fill="white"/>
<path d="M208.944 197.94L206.062 191.175H197.976L200.574 197.94H208.944Z" fill="#263238"/>
<path d="M209.497 198.303H200.328L197.424 190.812H206.302L209.497 198.303ZM200.822 197.577H208.393L205.823 191.537H198.506L200.822 197.577Z" fill="white"/>
<path d="M200.575 197.94L197.976 191.175H188.844L191.116 197.94H200.575Z" fill="#263238"/>
<path d="M201.105 198.303H190.854L188.335 190.812H198.23L201.105 198.303ZM191.377 197.577H200.045L197.729 191.537H189.345L191.377 197.577Z" fill="white"/>
<path d="M166.819 219.188L168.387 227.326H179.254L177.294 219.188H166.819Z" fill="#263238"/>
<path d="M179.711 227.689H168.097L166.391 218.825H177.599L179.711 227.689ZM168.685 226.963H178.79L177.011 219.551H167.254L168.685 226.963Z" fill="white"/>
<path d="M200.989 227.326H211.856L208.734 219.188H198.252L200.989 227.326Z" fill="#263238"/>
<path d="M212.386 227.689H200.727L197.751 218.825H208.981L212.386 227.689ZM201.25 226.963H211.326L208.48 219.551H198.76L201.25 226.963Z" fill="white"/>
<path d="M191.116 197.94L188.844 191.175H179.704L181.65 197.94H191.116Z" fill="#263238"/>
<path d="M191.617 198.303H181.381L179.203 190.812H189.09L191.617 198.303ZM181.925 197.577H190.637L188.611 191.537H180.183L181.925 197.577Z" fill="white"/>
<path d="M187.776 219.188L190.121 227.326H200.988L198.252 219.188H187.776Z" fill="#263238"/>
<path d="M201.489 227.689H189.875L187.319 218.825H198.542L201.489 227.689ZM190.39 226.963H200.48L197.991 219.551H188.227L190.39 226.963Z" fill="white"/>
<path d="M177.294 219.188L179.254 227.326H190.121L187.776 219.188H177.294Z" fill="#263238"/>
<path d="M190.6 227.689H178.985L176.858 218.825H188.067L190.6 227.689ZM179.537 226.963H189.635L187.501 219.551H177.759L179.537 226.963Z" fill="white"/>
<path d="M195.711 211.617H205.823L203.115 204.554H193.337L195.711 211.617Z" fill="#263238"/>
<path d="M206.375 211.973H195.486L192.865 204.184H203.398L206.375 211.973ZM195.994 211.247H205.322L202.883 204.91H193.838L195.994 211.247Z" fill="white"/>
<path d="M105.964 197.94L106.603 191.175H97.4635L96.498 197.94H105.964Z" fill="#263238"/>
<path d="M106.291 198.303H96.0771L97.1515 190.812H107.002L106.291 198.303ZM96.9192 197.577H105.63L106.204 191.537H97.7831L96.9192 197.577Z" fill="white"/>
<path d="M181.649 197.94L179.704 191.175H170.564L172.191 197.94H181.649Z" fill="#263238"/>
<path d="M182.136 198.303H171.907L170.078 190.812H179.944L182.136 198.303ZM172.474 197.577H181.185L179.443 191.537H171.029L172.474 197.577Z" fill="white"/>
<path d="M96.4979 197.94L97.4634 191.175H88.324L87.0391 197.94H96.4979Z" fill="#263238"/>
<path d="M96.8173 198.303H86.5962L88.0481 190.812H97.9062L96.8173 198.303ZM87.4746 197.577H96.1857L97.0496 191.537H88.6288L87.4746 197.577Z" fill="white"/>
<path d="M124.882 197.94L124.874 191.175H115.742L115.423 197.94H124.882Z" fill="#263238"/>
<path d="M125.245 198.303H115.045L115.394 190.812H125.237L125.245 198.303ZM115.808 197.577H124.519V191.537H116.083L115.808 197.577Z" fill="white"/>
<path d="M87.0394 197.94L88.3243 191.175H79.1921L77.5732 197.94H87.0394Z" fill="#263238"/>
<path d="M87.3223 198.303H77.1157L78.9015 190.812H88.7742L87.3223 198.303ZM78.0231 197.577H86.7343L87.8885 191.537H79.475L78.0231 197.577Z" fill="white"/>
<path d="M77.5731 197.94L79.192 191.175H70.0525L68.1143 197.94H77.5731Z" fill="#263238"/>
<path d="M77.8849 198.303H67.6348L69.8126 190.812H79.6852L77.8849 198.303ZM68.6148 197.577H77.3259L78.7778 191.537H70.328L68.6148 197.577Z" fill="white"/>
<path d="M115.423 197.94L115.742 191.175H106.603L105.964 197.94H115.423Z" fill="#263238"/>
<path d="M115.772 198.303H105.565L106.291 190.812H116.142L115.772 198.303ZM106.334 197.577H115.046L115.329 191.537H106.922L106.334 197.577Z" fill="white"/>
<path d="M172.191 197.94L170.565 191.175H161.425L162.732 197.94H172.191Z" fill="#263238"/>
<path d="M172.648 198.303H162.427L160.975 190.812H170.84L172.648 198.303ZM163.029 197.577H171.741L170.289 191.537H161.868L163.029 197.577Z" fill="white"/>
<path d="M162.732 197.94L161.425 191.175H152.293L153.266 197.94H162.732Z" fill="#263238"/>
<path d="M163.168 198.303H152.954L151.872 190.812H161.73L163.168 198.303ZM153.585 197.577H162.296L161.135 191.537H152.714L153.585 197.577Z" fill="white"/>
<path d="M143.807 197.94L143.154 191.175H134.014L134.348 197.94H143.807Z" fill="#263238"/>
<path d="M144.206 198.303H134L133.637 190.812H143.48L144.206 198.303ZM134.689 197.577H143.4L142.812 191.537H134.392L134.689 197.577Z" fill="white"/>
<path d="M166.819 219.188H156.337H145.861H135.379H124.904H114.429H103.946H93.471H82.9885H72.5061H62.0309L59.7007 227.326H70.5679H81.4351H92.3095H103.177H114.044H124.911H135.778H146.645H157.513H168.387L166.819 219.188Z" fill="#263238"/>
<path d="M168.823 227.689H59.207L61.7405 218.825H167.117L168.823 227.689ZM60.1798 226.963H167.944L166.492 219.551H62.3067L60.1798 226.963Z" fill="white"/>
<path d="M153.266 197.94L152.293 191.175H143.153L143.807 197.94H153.266Z" fill="#263238"/>
<path d="M153.687 198.303H143.48L142.754 190.812H152.605L153.687 198.303ZM144.134 197.577H152.845L151.966 191.537H143.546L144.134 197.577Z" fill="white"/>
<path d="M136.773 133.702C147.465 133.702 156.133 122.668 156.133 109.056C156.133 95.4452 147.465 84.4111 136.773 84.4111C126.08 84.4111 117.412 95.4452 117.412 109.056C117.412 122.668 126.08 133.702 136.773 133.702Z" fill="#263238"/>
<path d="M136.773 134.058C125.884 134.058 117.042 122.843 117.042 109.057C117.042 95.2717 125.891 84.0488 136.773 84.0488C147.654 84.0488 156.496 95.2645 156.496 109.057C156.496 122.85 147.647 134.058 136.773 134.058ZM136.773 84.7748C126.29 84.7748 117.768 95.6637 117.768 109.057C117.768 122.451 126.29 133.332 136.773 133.332C147.255 133.332 155.77 122.443 155.77 109.057C155.77 95.671 147.248 84.7748 136.773 84.7748V84.7748Z" fill="#263238"/>
<path d="M93.1297 171.821C91.3511 171.821 89.3331 170.246 88.2587 169.273C86.7487 167.901 85.188 165.977 85.188 165.121C85.188 163.894 99.7066 120.113 101.384 115.14C101.402 115.082 101.435 115.03 101.48 114.988C101.524 114.946 101.579 114.916 101.638 114.901C101.696 114.886 101.756 114.886 101.814 114.9C101.873 114.914 101.926 114.941 101.972 114.981L107.467 119.997C107.51 120.036 107.543 120.085 107.563 120.139C107.583 120.193 107.59 120.252 107.583 120.309L102.168 167.872C102.161 167.927 102.142 167.98 102.112 168.027C102.081 168.073 102.041 168.112 101.993 168.141C101.768 168.279 96.469 171.502 93.4128 171.807L93.1297 171.821ZM101.899 115.924C97.3256 129.717 86.0373 163.836 85.9284 165.164C85.9284 165.578 87.0319 167.197 88.7596 168.758C90.4873 170.318 92.2077 171.219 93.3547 171.11C95.9753 170.848 100.614 168.17 101.478 167.64L106.857 120.454L101.899 115.924Z" fill="#263238"/>
<path d="M133.818 108.824L101.703 115.249L106.843 178.521H169.476L177.824 112.679L139.597 108.505L133.818 108.824Z" fill="#F28888"/>
<path d="M169.476 178.885H106.843C106.752 178.885 106.665 178.85 106.598 178.788C106.532 178.726 106.492 178.641 106.487 178.551L101.34 115.278C101.333 115.19 101.359 115.102 101.412 115.031C101.466 114.96 101.543 114.911 101.63 114.894L133.782 108.469L139.589 108.143L177.868 112.324C177.964 112.334 178.052 112.381 178.114 112.455C178.144 112.494 178.166 112.538 178.178 112.585C178.191 112.633 178.194 112.682 178.187 112.73L169.839 178.58C169.825 178.666 169.781 178.744 169.714 178.8C169.647 178.855 169.563 178.886 169.476 178.885V178.885ZM107.184 178.159H169.156L177.418 113.006L139.589 108.89L133.891 109.21L102.117 115.569L107.184 178.159Z" fill="#263238"/>
<path opacity="0.3" d="M106.842 178.522H169.476L171.051 166.13L170.935 165.527L155.821 168.823L162.412 141.078L126.145 157.012L117.354 165.803H122.849L106.675 176.445L106.842 178.522Z" fill="white"/>
<path d="M130.406 105.261C130.406 105.261 125.194 108.113 123.873 110.676C122.552 113.238 117.085 132.272 117.085 132.272L126.08 134.203L117.412 138.377L130.53 175.952L151.407 174.667L164.997 135.162L156.641 131.634L164.031 128.418C164.031 128.418 156.968 114.93 153.142 109.151C149.317 103.373 130.406 105.261 130.406 105.261Z" fill="#F28888"/>
<path d="M130.558 176.314C130.484 176.314 130.411 176.291 130.35 176.248C130.289 176.205 130.243 176.145 130.217 176.074L117.085 138.493C117.057 138.409 117.061 138.317 117.096 138.236C117.13 138.154 117.194 138.088 117.274 138.05L124.991 134.333L117.005 132.627C116.956 132.617 116.91 132.597 116.869 132.568C116.828 132.539 116.793 132.503 116.766 132.46C116.74 132.417 116.724 132.369 116.718 132.319C116.711 132.269 116.715 132.218 116.729 132.17C116.954 131.393 122.261 113.085 123.546 110.516C124.831 107.946 129.978 105.064 130.195 104.94C130.238 104.917 130.285 104.905 130.333 104.904C131.11 104.824 149.425 103.053 153.353 108.948C157.178 114.675 164.242 128.119 164.292 128.25C164.314 128.296 164.325 128.345 164.325 128.395C164.325 128.445 164.314 128.495 164.292 128.54C164.278 128.588 164.252 128.631 164.218 128.668C164.184 128.704 164.143 128.733 164.096 128.751L157.483 131.655L165.055 134.856C165.14 134.893 165.208 134.96 165.245 135.045C165.283 135.13 165.287 135.226 165.258 135.313L151.719 174.819C151.695 174.885 151.652 174.944 151.596 174.986C151.539 175.029 151.471 175.054 151.4 175.058L130.522 176.343L130.558 176.314ZM117.884 138.566L130.813 175.588L151.139 174.339L164.488 135.379L156.452 131.981C156.386 131.954 156.329 131.908 156.289 131.848C156.249 131.789 156.228 131.719 156.227 131.647C156.228 131.577 156.249 131.508 156.287 131.449C156.326 131.389 156.381 131.343 156.445 131.314L163.479 128.257C162.347 126.08 156.22 114.552 152.757 109.383C149.186 104.026 131.771 105.536 130.486 105.652C129.891 105.986 125.346 108.556 124.199 110.879C123.052 113.202 118.327 129.361 117.543 132.039L126.159 133.883C126.233 133.899 126.3 133.938 126.351 133.994C126.402 134.05 126.434 134.12 126.442 134.195C126.449 134.27 126.434 134.346 126.397 134.412C126.361 134.478 126.306 134.531 126.239 134.566L117.884 138.566Z" fill="#263238"/>
<path d="M129.593 179.167L129.324 113.006L146.667 111.395L151.755 178.521L129.593 179.167Z" fill="white"/>
<path d="M129.593 179.53C129.499 179.53 129.408 179.493 129.339 179.429C129.271 179.359 129.232 179.265 129.23 179.167L128.962 113.006C128.959 112.915 128.992 112.827 129.053 112.76C129.113 112.692 129.198 112.651 129.288 112.643L146.631 111.068C146.679 111.061 146.727 111.065 146.774 111.078C146.82 111.092 146.863 111.116 146.899 111.148C146.974 111.212 147.021 111.303 147.03 111.402L152.111 178.529C152.114 178.577 152.107 178.626 152.091 178.672C152.075 178.718 152.05 178.761 152.017 178.797C151.984 178.834 151.944 178.863 151.899 178.883C151.854 178.903 151.805 178.914 151.756 178.913L129.6 179.559L129.593 179.53ZM129.687 113.333L129.956 178.79L151.364 178.173L146.333 111.794L129.687 113.333Z" fill="#263238"/>
<path d="M126.755 95.6562C126.755 95.6562 128.998 108.186 129.325 111.394C129.651 114.603 137.941 137.419 140.424 133.695C143.132 129.637 146.348 116.861 146.958 113.964C147.567 111.068 147.604 98.5527 147.604 98.5527C147.604 98.5527 139.277 104.331 126.755 95.6562Z" fill="white"/>
<path d="M139.771 134.472C139.678 134.47 139.585 134.458 139.495 134.435C136.083 133.586 129.274 114.53 128.962 111.431C128.65 108.331 126.421 95.8521 126.392 95.7215C126.379 95.6505 126.387 95.5771 126.416 95.5109C126.444 95.4446 126.492 95.3884 126.553 95.3494C126.614 95.3104 126.685 95.2905 126.757 95.2921C126.829 95.2937 126.899 95.3168 126.958 95.3585C139.139 103.794 147.342 98.3058 147.422 98.2622C147.479 98.2284 147.544 98.2105 147.611 98.2105C147.677 98.2105 147.742 98.2284 147.8 98.2622C147.858 98.2944 147.907 98.3416 147.942 98.399C147.976 98.4564 147.995 98.5219 147.996 98.5889C147.996 99.097 147.996 111.184 147.342 114.08C146.616 117.231 143.473 129.818 140.729 133.934C140.627 134.097 140.486 134.232 140.319 134.326C140.151 134.42 139.963 134.47 139.771 134.472V134.472ZM127.248 96.4401C127.757 99.3439 129.426 108.621 129.666 111.358C129.978 114.487 136.86 133.034 139.655 133.731C139.785 133.731 139.938 133.731 140.112 133.499C142.762 129.514 145.97 116.802 146.645 113.899C147.19 111.452 147.27 101.761 147.277 99.1914C145.186 100.259 137.637 103.257 127.248 96.4401Z" fill="#263238"/>
<path d="M147.502 106.88C147.633 102.771 147.633 98.5531 147.633 98.5531C147.633 98.5531 139.277 104.361 126.755 95.6494C126.755 95.6494 127.677 100.811 128.425 105.355C130.138 107.533 133.397 110.996 137.419 111.642C141.549 112.31 144.889 110.117 147.502 106.88Z" fill="#F28888"/>
<path opacity="0.5" d="M147.502 106.88C147.633 102.771 147.633 98.5531 147.633 98.5531C147.633 98.5531 139.277 104.361 126.755 95.6494C126.755 95.6494 127.677 100.811 128.425 105.355C130.138 107.533 133.397 110.996 137.419 111.642C141.549 112.31 144.889 110.117 147.502 106.88Z" fill="white"/>
<path d="M154.376 83.1342C154.376 83.1342 157.905 78.6335 157.905 83.7731C157.905 88.9127 154.376 89.5805 154.376 89.5805V83.1342Z" fill="white"/>
<path d="M154.376 89.9214C154.291 89.9225 154.208 89.8914 154.144 89.8343C154.102 89.802 154.068 89.7601 154.045 89.7121C154.023 89.6642 154.012 89.6115 154.013 89.5584V83.1339C154.012 83.0529 154.037 82.9737 154.086 82.9089C154.398 82.5169 155.995 80.5859 157.215 81.0069C157.941 81.2538 158.267 82.1612 158.267 83.7727C158.267 89.1519 154.478 89.9069 154.442 89.9141L154.376 89.9214ZM154.739 83.2573V89.0648C155.618 88.7163 157.541 87.5185 157.541 83.7727C157.541 82.0741 157.149 81.7547 156.982 81.6966C156.445 81.5151 155.364 82.4951 154.739 83.2573Z" fill="#263238"/>
<path d="M119.365 72.5352C119.365 72.5352 123.539 91.4602 123.539 94.0518C123.539 99.5035 133.818 105.616 138.312 106.901C142.805 108.186 153.73 98.2259 154.376 95.6561C155.022 93.0863 155.335 70.6042 154.05 66.1107C152.765 61.6172 145.397 58.7207 140.562 58.7207C135.727 58.7207 121.615 61.2905 119.365 72.5352Z" fill="white"/>
<path d="M139.197 107.38C138.866 107.383 138.536 107.339 138.217 107.249C133.861 106 123.176 99.8298 123.176 94.0514C123.176 91.5325 119.052 72.8034 119.009 72.6147C119.002 72.5641 119.002 72.5128 119.009 72.4623C121.31 60.949 135.705 58.3574 140.562 58.3574C145.418 58.3574 153.048 61.2611 154.398 66.0087C155.748 70.7563 155.356 93.2239 154.725 95.7719C154.253 97.6666 148.961 102.901 144.199 105.652C142.181 106.792 140.504 107.38 139.197 107.38ZM119.735 72.5348C120.061 74.023 123.902 91.5179 123.902 94.0587C123.902 99.2564 133.985 105.289 138.42 106.559C139.618 106.9 141.491 106.363 143.843 105.006C148.561 102.283 153.636 97.1366 154.006 95.5686C154.608 93.1513 154.971 70.6983 153.687 66.212C152.445 61.8564 145.077 59.0834 140.547 59.0834C135.865 59.0834 121.992 61.5588 119.735 72.5276V72.5348Z" fill="#263238"/>
<path d="M140.562 58.7207C135.749 58.7207 121.615 61.2905 119.365 72.5134C119.365 72.5134 121.862 83.8379 122.994 90.168C122.994 87.2643 123.503 81.7037 126.624 79.2791C130.936 75.9253 138.13 75.4389 142.203 73.5224C146.275 71.606 147.233 66.5753 147.233 66.5753C147.233 66.5753 147.473 75.4389 149.411 77.6022C151.349 79.7654 153.251 81.2318 153.491 85.0284C153.73 88.8251 154.449 92.6943 152.533 95.8158C150.616 98.9373 142.703 104.919 139.11 106.117C138.558 106.305 138.021 106.465 137.513 106.618C137.796 106.719 138.072 106.814 138.326 106.886C142.827 108.171 153.745 98.2113 154.391 95.6415C155.037 93.0718 155.349 70.5897 154.064 66.0962C152.779 61.6027 145.397 58.7207 140.562 58.7207Z" fill="#F28888"/>
<path d="M133.891 104.998C132.141 103.234 127.358 98.3489 125.18 95.8299C124.551 95.1123 123.987 94.3397 123.496 93.5215C123.496 93.732 123.496 93.9207 123.496 94.0514C123.539 98.0803 129.143 102.465 133.891 104.998Z" fill="#F28888"/>
<g opacity="0.5">
<path opacity="0.5" d="M140.562 58.7207C135.749 58.7207 121.615 61.2905 119.365 72.5134C119.365 72.5134 121.862 83.8379 122.994 90.168C122.994 87.2643 123.503 81.7037 126.624 79.2791C130.936 75.9253 138.13 75.4389 142.203 73.5224C146.275 71.606 147.233 66.5753 147.233 66.5753C147.233 66.5753 147.473 75.4389 149.411 77.6022C151.349 79.7654 153.251 81.2318 153.491 85.0284C153.73 88.8251 154.449 92.6943 152.533 95.8158C150.616 98.9373 142.703 104.919 139.11 106.117C138.558 106.305 138.021 106.465 137.513 106.618C137.796 106.719 138.072 106.814 138.326 106.886C142.827 108.171 153.745 98.2113 154.391 95.6415C155.037 93.0718 155.349 70.5897 154.064 66.0962C152.779 61.6027 145.397 58.7207 140.562 58.7207Z" fill="white"/>
<path opacity="0.5" d="M133.891 104.998C132.141 103.234 127.358 98.3489 125.18 95.8299C124.551 95.1123 123.987 94.3397 123.496 93.5215C123.496 93.732 123.496 93.9207 123.496 94.0514C123.539 98.0803 129.143 102.465 133.891 104.998Z" fill="white"/>
</g>
<path d="M135.996 84.1573C135.996 85.0575 135.597 85.7834 135.096 85.7834C134.595 85.7834 134.188 85.0575 134.188 84.1573C134.188 83.2572 134.595 82.5312 135.096 82.5312C135.597 82.5312 135.996 83.2572 135.996 84.1573Z" fill="#263238"/>
<path d="M146.573 84.1573C146.573 85.0575 146.166 85.7834 145.665 85.7834C145.164 85.7834 144.758 85.0575 144.758 84.1573C144.758 83.2572 145.164 82.5312 145.665 82.5312C146.166 82.5312 146.573 83.2572 146.573 84.1573Z" fill="#263238"/>
<path d="M141.658 91.0324C141.585 91.0335 141.514 91.0117 141.454 90.97C141.394 90.9283 141.349 90.8689 141.324 90.8001C141.288 90.7115 141.288 90.6122 141.325 90.5238C141.362 90.4355 141.432 90.3652 141.52 90.3282C142.972 89.762 145.019 88.6441 145.15 87.9472C145.208 87.6786 145.099 87.5842 144.177 87.3809C143.507 87.2897 142.876 87.0131 142.355 86.5824C141.273 85.5008 142.159 82.4664 142.268 82.1252C142.296 82.0289 142.361 81.9477 142.449 81.8994C142.492 81.8754 142.54 81.8603 142.589 81.8548C142.639 81.8494 142.688 81.8537 142.736 81.8675C142.784 81.8813 142.828 81.9044 142.867 81.9354C142.906 81.9664 142.938 82.0048 142.962 82.0482C142.986 82.0917 143.001 82.1395 143.007 82.1888C143.012 82.2381 143.008 82.2881 142.994 82.3357C142.645 83.4682 142.311 85.4863 142.899 86.0743C143.324 86.3942 143.824 86.5992 144.351 86.6695C145.077 86.8365 146.086 87.0615 145.876 88.1214C145.614 89.4571 142.435 90.7856 141.803 91.0251C141.756 91.0382 141.706 91.0406 141.658 91.0324Z" fill="#263238"/>
<path d="M138.442 95.8665C137.697 95.91 136.953 95.7613 136.282 95.4346C135.611 95.1079 135.035 94.6142 134.609 94.0009C134.582 93.9616 134.564 93.9172 134.554 93.8705C134.545 93.8238 134.544 93.7756 134.554 93.7289C134.563 93.6822 134.582 93.6378 134.609 93.5985C134.636 93.5592 134.671 93.5257 134.711 93.5C134.791 93.4474 134.888 93.4286 134.982 93.4477C135.076 93.4667 135.159 93.522 135.212 93.6016C136.954 96.2222 141.019 94.6832 141.019 94.6687C141.109 94.6331 141.209 94.6345 141.297 94.6726C141.386 94.7107 141.455 94.7825 141.491 94.872C141.527 94.9615 141.525 95.0615 141.487 95.15C141.449 95.2385 141.377 95.3082 141.288 95.3438C140.375 95.6736 139.413 95.8502 138.442 95.8665V95.8665Z" fill="#263238"/>
<path d="M131.778 81.6316C131.735 81.6385 131.691 81.6385 131.648 81.6316C131.603 81.6147 131.561 81.5891 131.526 81.5561C131.491 81.5232 131.463 81.4836 131.444 81.4397C131.424 81.3958 131.413 81.3485 131.412 81.3004C131.411 81.2523 131.419 81.2045 131.437 81.1598C131.813 80.2711 132.507 79.5542 133.382 79.1489C133.919 78.9409 134.492 78.8439 135.068 78.8639C135.643 78.8839 136.208 79.0203 136.729 79.2651C136.819 79.3007 136.89 79.3704 136.928 79.4589C136.967 79.5474 136.968 79.6474 136.932 79.7369C136.897 79.8265 136.827 79.8982 136.738 79.9363C136.65 79.9744 136.55 79.9758 136.46 79.9402C136.029 79.7316 135.559 79.6125 135.08 79.5901C134.601 79.5676 134.122 79.6423 133.673 79.8095C132.976 80.1425 132.423 80.7143 132.112 81.4211C132.084 81.4858 132.037 81.5406 131.978 81.5782C131.918 81.6158 131.849 81.6344 131.778 81.6316V81.6316Z" fill="#263238"/>
<path d="M147.291 80.4403C147.236 80.4396 147.181 80.4269 147.131 80.4031C147.081 80.3793 147.037 80.3449 147.001 80.3023C146.275 79.3949 145.615 78.9521 144.961 78.9811C144.646 79.0347 144.345 79.1542 144.078 79.3318C143.812 79.5094 143.586 79.7412 143.415 80.012C143.363 80.0924 143.281 80.1495 143.188 80.1712C143.095 80.1928 142.996 80.1774 142.914 80.1281C142.873 80.1036 142.837 80.071 142.808 80.0322C142.78 79.9934 142.76 79.9493 142.749 79.9025C142.738 79.8557 142.737 79.8072 142.745 79.7598C142.754 79.7125 142.772 79.6674 142.798 79.6272C143.029 79.2568 143.338 78.9418 143.705 78.7047C144.071 78.4675 144.485 78.3141 144.918 78.2552C145.847 78.2044 146.725 78.7488 147.575 79.8595C147.633 79.9356 147.659 80.0318 147.647 80.1271C147.635 80.2223 147.585 80.3088 147.509 80.3677C147.447 80.4153 147.37 80.4408 147.291 80.4403V80.4403Z" fill="#263238"/>
<path d="M155.661 61.2904C152.482 57.6608 149.128 57.8786 147.124 58.6626C144.409 54.0892 135.437 50.4596 123.895 54.866C110.407 60.0055 112.011 73.82 112.657 76.3898C113.303 78.9596 117.797 85.7035 120.686 86.0229C120.686 86.0229 123.256 83.7725 123.256 81.5294C123.256 79.2863 129.361 74.7855 135.459 72.8545C139.299 71.6422 143.517 69.4136 145.956 66.568C145.911 68.4365 146.391 70.2801 147.342 71.889C149.273 74.7928 152.162 76.3898 152.162 77.3553C152.162 78.3208 153.767 81.8488 155.066 81.8488C156.366 81.8488 156.351 76.7092 156.67 74.4588C156.99 72.2084 160.155 66.43 155.661 61.2904Z" fill="#263238"/>
<path d="M120.649 86.3861H120.606C117.448 86.0304 112.918 79.0614 112.265 76.4771C112.229 76.3174 108.679 60.2671 123.735 54.5322C134.849 50.2928 144.061 53.2473 147.277 58.2199C148.917 57.6682 152.503 57.1311 155.93 61.0511C159.683 65.3413 158.26 70.0526 157.382 72.8765C157.204 73.4113 157.061 73.9568 156.953 74.5098C156.873 75.0543 156.815 75.7875 156.75 76.557C156.474 79.9761 156.198 82.212 154.986 82.212C153.389 82.212 151.734 78.379 151.734 77.3555C151.734 77.0506 151.008 76.3682 150.282 75.7149C149.039 74.6449 147.932 73.4258 146.986 72.0852C146.113 70.6913 145.613 69.0965 145.534 67.4538C143.226 69.7985 139.545 71.911 135.473 73.1959C129.317 75.1414 123.524 79.5333 123.524 81.5223C123.524 83.9034 120.94 86.1901 120.831 86.2917C120.781 86.3399 120.718 86.3727 120.649 86.3861ZM133.963 53.2473C130.547 53.2887 127.167 53.9529 123.989 55.2073C109.521 60.7244 112.933 76.1432 112.969 76.3029C113.608 78.8582 117.876 85.1157 120.533 85.6384C121.027 85.1738 122.856 83.3154 122.856 81.5296C122.856 79.0106 129.143 74.459 135.313 72.5063C139.633 71.1488 143.495 68.8331 145.643 66.3286C145.693 66.2726 145.758 66.2329 145.831 66.2147C145.903 66.1966 145.98 66.2009 146.05 66.227C146.119 66.2535 146.178 66.3004 146.219 66.3613C146.261 66.4223 146.283 66.4944 146.282 66.5682C146.236 68.3672 146.697 70.1429 147.611 71.6932C148.525 72.9817 149.595 74.1521 150.797 75.1777C151.814 76.1141 152.489 76.7312 152.489 77.3555C152.489 78.2919 154.057 81.486 155.015 81.486C155.654 81.486 155.937 77.9943 156.06 76.4989C156.118 75.7149 156.184 74.9744 156.264 74.4082C156.375 73.8181 156.525 73.2361 156.714 72.666C157.57 69.8203 158.892 65.5155 155.385 61.5302C152.162 57.8497 148.91 58.3651 147.255 59.004C147.174 59.0343 147.085 59.0349 147.004 59.0056C146.923 58.9764 146.855 58.9191 146.812 58.8442C145.106 55.9841 140.467 53.2473 133.963 53.2473Z" fill="#263238"/>
<path d="M117.949 78.0019H117.884C117.79 77.9842 117.706 77.9301 117.652 77.8512C117.598 77.7723 117.577 77.6751 117.594 77.5808C117.804 76.4556 118.595 75.4974 120.018 74.6335C120.101 74.5864 120.199 74.5737 120.291 74.598C120.383 74.6224 120.462 74.6819 120.51 74.7638C120.559 74.8456 120.573 74.9433 120.55 75.0357C120.528 75.1281 120.469 75.2079 120.388 75.2578C119.162 75.9838 118.479 76.8041 118.305 77.7188C118.288 77.8 118.243 77.8728 118.178 77.9246C118.113 77.9763 118.032 78.0036 117.949 78.0019V78.0019Z" fill="white"/>
<path d="M122.544 74.1905C122.471 74.19 122.399 74.1677 122.338 74.1263C122.278 74.085 122.231 74.0264 122.203 73.9582C122.17 73.8687 122.174 73.7697 122.213 73.6827C122.252 73.5958 122.325 73.5278 122.414 73.4936C124.933 72.6002 127.508 71.8727 130.123 71.3158C132.069 70.8658 133.912 70.4302 135.444 69.9438C141.193 68.1145 144.417 63.1056 144.453 63.062C144.477 63.0207 144.51 62.9847 144.549 62.9564C144.588 62.928 144.632 62.9077 144.679 62.8969C144.725 62.886 144.774 62.8848 144.821 62.8932C144.868 62.9016 144.914 62.9195 144.954 62.9459C145.035 62.9979 145.091 63.0799 145.112 63.1738C145.132 63.2677 145.115 63.3658 145.063 63.4467C142.772 66.797 139.463 69.3197 135.626 70.6407C134.072 71.1344 132.214 71.5699 130.254 72.0273C127.673 72.5642 125.129 73.2674 122.639 74.1324C122.61 74.1559 122.578 74.1755 122.544 74.1905Z" fill="white"/>
<path d="M116.867 67.7151C116.794 67.7156 116.723 67.6927 116.664 67.6498C116.585 67.5966 116.529 67.5141 116.51 67.4203C116.491 67.3264 116.51 67.2289 116.562 67.1489C117.288 66.0237 119.248 66.1035 122.174 66.2197C124.546 66.3526 126.925 66.338 129.295 66.1761C135.894 65.6462 141.789 61.6754 141.847 61.6318C141.927 61.5793 142.024 61.5605 142.118 61.5795C142.212 61.5985 142.294 61.6539 142.348 61.7334C142.375 61.7723 142.394 61.8163 142.404 61.8627C142.414 61.9091 142.415 61.9571 142.406 62.0038C142.397 62.0505 142.379 62.0949 142.353 62.1345C142.327 62.1741 142.293 62.2081 142.253 62.2343C142.006 62.4013 136.141 66.3576 129.353 66.9021C126.954 67.0676 124.546 67.0822 122.145 66.9456C119.561 66.844 117.695 66.7641 117.165 67.5554C117.133 67.6046 117.088 67.645 117.036 67.6728C116.984 67.7007 116.926 67.7152 116.867 67.7151V67.7151Z" fill="white"/>
<path d="M155.865 71.5042C155.817 71.5024 155.77 71.4911 155.727 71.4711C155.684 71.4511 155.645 71.4228 155.612 71.3877C155.58 71.3527 155.555 71.3116 155.538 71.2668C155.522 71.222 155.514 71.1744 155.516 71.1267C155.549 70.2294 155.483 69.3311 155.32 68.4481C155.31 68.4013 155.309 68.3529 155.317 68.3057C155.326 68.2585 155.344 68.2136 155.37 68.1735C155.397 68.1335 155.431 68.0993 155.471 68.0729C155.511 68.0464 155.556 68.0284 155.603 68.0198C155.651 68.0103 155.699 68.0103 155.746 68.0199C155.794 68.0294 155.838 68.0482 155.878 68.0752C155.918 68.1023 155.952 68.1369 155.979 68.1773C156.005 68.2176 156.023 68.2628 156.032 68.3101C156.203 69.2485 156.274 70.2024 156.242 71.1558C156.24 71.2035 156.229 71.2503 156.209 71.2936C156.189 71.337 156.161 71.3759 156.126 71.4083C156.091 71.4406 156.05 71.4658 156.005 71.4822C155.96 71.4987 155.912 71.5062 155.865 71.5042Z" fill="white"/>
<path d="M155.269 67.2869C155.194 67.2874 155.12 67.2638 155.058 67.2194C154.997 67.175 154.951 67.1122 154.928 67.0401C154.459 65.7484 153.708 64.5781 152.728 63.6146C151.748 62.6512 150.565 61.9192 149.266 61.4722C149.173 61.4451 149.095 61.3829 149.047 61.2988C149 61.2147 148.987 61.1154 149.012 61.0221C149.025 60.9763 149.047 60.9336 149.077 60.8965C149.107 60.8593 149.144 60.8284 149.186 60.8055C149.228 60.7825 149.273 60.7681 149.321 60.7629C149.368 60.7577 149.416 60.7619 149.462 60.7753C150.879 61.2439 152.169 62.0305 153.235 63.0748C154.301 64.1192 155.113 65.3936 155.611 66.8005C155.627 66.8458 155.633 66.8937 155.631 66.9417C155.628 66.9896 155.616 67.0366 155.595 67.0798C155.574 67.123 155.545 67.1616 155.509 67.1934C155.473 67.2252 155.431 67.2496 155.386 67.2651C155.348 67.2793 155.309 67.2867 155.269 67.2869V67.2869Z" fill="white"/>
<path d="M131.923 100.237C130.979 100.274 130.039 100.079 129.187 99.6707C126.421 98.2188 121.506 91.6854 121.303 91.3806C121.245 91.3035 121.221 91.2067 121.234 91.1114C121.248 91.0161 121.299 90.9302 121.376 90.8724C121.453 90.8146 121.549 90.7898 121.645 90.8035C121.74 90.8171 121.826 90.868 121.884 90.945C121.935 91.0103 126.9 97.6453 129.528 99.0319C132.156 100.418 137.085 98.4874 137.136 98.4656C137.18 98.4485 137.228 98.4403 137.276 98.4416C137.324 98.4429 137.371 98.4536 137.415 98.4732C137.459 98.4927 137.498 98.5207 137.531 98.5555C137.564 98.5904 137.59 98.6313 137.607 98.6762C137.625 98.721 137.633 98.7687 137.631 98.8167C137.63 98.8646 137.619 98.9119 137.6 98.9557C137.58 98.9995 137.552 99.039 137.518 99.072C137.483 99.105 137.442 99.1309 137.397 99.148C135.641 99.7968 133.794 100.164 131.923 100.237V100.237Z" fill="#263238"/>
<path d="M139.066 98.8652C139.066 99.5258 138.253 100.07 137.259 100.07C136.264 100.07 135.451 99.5258 135.451 98.8652C135.451 98.2046 136.257 97.6602 137.259 97.6602C138.261 97.6602 139.066 98.1973 139.066 98.8652Z" fill="#263238"/>
<path d="M118.762 81.9721C118.762 81.9721 112.802 66.5388 118.762 57.334C118.762 57.334 109.55 66.8074 117.681 84.1426L118.762 81.9721Z" fill="white"/>
<path d="M122.893 86.9742C123.437 90.6039 122.45 93.7399 120.679 94.0085C118.908 94.2771 117.049 91.5548 116.497 87.9324C115.946 84.31 116.947 81.1668 118.712 80.8982C120.476 80.6296 122.377 83.3518 122.893 86.9742Z" fill="white"/>
<path d="M120.461 94.3711C118.566 94.3711 116.715 91.6634 116.163 87.9756C115.88 86.3293 115.967 84.6407 116.417 83.032C116.875 81.5802 117.681 80.6728 118.682 80.5276C120.671 80.2299 122.697 83.0248 123.277 86.9013C123.557 88.5478 123.47 90.2356 123.023 91.8448C122.559 93.2967 121.76 94.2041 120.758 94.3493C120.66 94.3638 120.56 94.371 120.461 94.3711ZM119.009 81.2317C118.944 81.2245 118.878 81.2245 118.813 81.2317C118.087 81.3334 117.506 82.0666 117.136 83.2353C116.721 84.7387 116.644 86.3155 116.911 87.8522C117.412 91.206 119.132 93.8557 120.679 93.6161C121.405 93.5145 121.993 92.7813 122.363 91.6125C122.774 90.1085 122.851 88.5325 122.588 86.9956C122.072 83.8015 120.468 81.2462 118.98 81.2462L119.009 81.2317Z" fill="#263238"/>
<path d="M119.69 93.8996C121.26 93.6635 122.092 90.5378 121.548 86.9181C121.004 83.2983 119.29 80.5553 117.72 80.7914C116.15 81.0274 115.318 84.1531 115.862 87.7728C116.407 91.3926 118.12 94.1356 119.69 93.8996Z" fill="white"/>
<path d="M119.488 94.284C118.661 94.284 117.811 93.6525 117.078 92.4837C116.246 91.0561 115.708 89.4765 115.496 87.8378C114.908 83.954 115.866 80.7091 117.673 80.4405C119.481 80.1719 121.303 82.9958 121.92 86.8723C122.195 88.5016 122.146 90.1693 121.775 91.7796C121.383 93.2314 120.664 94.1316 119.75 94.2695L119.488 94.284ZM117.891 81.1447H117.768C116.592 81.3189 115.663 84.0484 116.214 87.6781C116.408 89.2111 116.901 90.6911 117.666 92.0336C118.305 93.0427 119.002 93.5726 119.604 93.4855C120.207 93.3984 120.73 92.6797 121.056 91.5255C121.404 90.0127 121.449 88.4459 121.187 86.9158C120.657 83.4822 119.06 81.1447 117.891 81.1447Z" fill="#263238"/>
<path d="M177.824 112.68L186.194 178.848L169.476 178.522L177.824 112.68Z" fill="#F28888"/>
<path d="M186.194 179.211L169.498 178.884C169.447 178.884 169.396 178.872 169.35 178.851C169.304 178.83 169.263 178.799 169.229 178.761C169.197 178.722 169.173 178.677 169.159 178.628C169.145 178.579 169.142 178.528 169.149 178.478L177.49 112.636C177.501 112.547 177.544 112.466 177.611 112.407C177.678 112.348 177.764 112.316 177.853 112.316V112.316C177.941 112.318 178.026 112.351 178.091 112.409C178.156 112.468 178.198 112.549 178.209 112.636L186.579 178.797C186.587 178.849 186.584 178.902 186.568 178.952C186.553 179.003 186.527 179.049 186.492 179.088C186.455 179.13 186.409 179.163 186.357 179.184C186.306 179.205 186.25 179.215 186.194 179.211V179.211ZM169.89 178.166L185.78 178.478L177.795 115.569L169.89 178.166Z" fill="#263238"/>
<path opacity="0.3" d="M182.383 148.765L173.679 153.992L173.824 144.214L169.476 178.521L186.194 178.848L184.822 168.039L177.526 168.278L184.001 161.549L183.951 161.106L175.051 164.155L183.101 154.406L182.383 148.765Z" fill="white"/>
<path d="M118.014 93.166C118.014 93.166 120.483 92.3022 121.02 93.2531C121.557 94.2041 122.181 98.3346 122.167 98.9226C122.152 99.5106 121.949 100.048 120.831 99.6486C119.713 99.2493 117.927 95.6124 117.927 95.6124L118.014 93.166Z" fill="white"/>
<path d="M121.492 100.179C121.223 100.172 120.958 100.118 120.708 100.019C119.517 99.5765 117.92 96.4332 117.615 95.8016C117.604 95.7465 117.604 95.6898 117.615 95.6347L117.688 93.1955C117.689 93.1222 117.713 93.051 117.756 92.9914C117.798 92.9318 117.858 92.8865 117.927 92.8616C118.392 92.7019 120.715 91.9542 121.368 93.1157C121.942 94.1247 122.588 98.3642 122.566 98.9739C122.576 99.17 122.541 99.3657 122.463 99.5459C122.385 99.726 122.266 99.8855 122.116 100.012C121.93 100.132 121.712 100.19 121.492 100.179V100.179ZM118.305 95.5621C118.98 96.9196 120.258 99.0756 120.954 99.3369C121.455 99.5184 121.63 99.4385 121.68 99.4095C121.731 99.3805 121.811 99.199 121.818 98.9522C121.818 98.4513 121.216 94.3643 120.715 93.4714C120.475 93.0358 119.263 93.2028 118.385 93.4714L118.305 95.5621Z" fill="#263238"/>
<path d="M107.213 106.262C107.213 106.262 109.499 91.5615 109.55 89.9645C109.601 88.3674 111.728 87.0608 112.744 86.6688C113.761 86.2768 119.568 86.4655 120.185 86.4873C120.802 86.5091 123.285 86.3784 123.263 87.2132C123.241 88.048 123.023 88.4038 120.947 88.7377C118.871 89.0716 113.906 89.3329 113.906 89.3329L112.606 91.2929L118.77 92.469C118.77 92.469 120.221 93.1078 119.96 94.1023C119.699 95.0968 118.98 99.4597 118.966 100.055C118.951 100.65 118.312 101.035 116.839 101.993C115.959 102.562 114.97 102.941 113.935 103.104C113.935 103.104 114.051 106.102 113.209 106.472L111.111 107.409L110.821 124.562L101.347 123.488L107.213 106.262Z" fill="white"/>
<path d="M110.813 124.86H110.77L101.333 123.786C101.278 123.779 101.226 123.761 101.18 123.732C101.133 123.703 101.094 123.665 101.064 123.619C101.041 123.57 101.029 123.516 101.029 123.462C101.029 123.408 101.041 123.355 101.064 123.306L106.93 106.145C107.046 105.419 109.209 91.4453 109.253 89.9281C109.303 88.0988 111.634 86.6687 112.686 86.2985C113.739 85.9282 118.319 86.0371 120.258 86.0952H120.584C121.789 86.0952 123.002 86.1315 123.488 86.6251C123.557 86.6947 123.611 86.7775 123.648 86.8686C123.684 86.9596 123.701 87.0571 123.699 87.1551C123.699 88.302 123.103 88.7013 121.078 89.0352C119.205 89.3401 115.111 89.5724 114.182 89.6232L113.289 90.9735L118.915 92.0478H118.995C119.06 92.0478 120.693 92.8246 120.388 94.095C120.134 95.1621 119.416 99.4523 119.401 99.9823C119.401 100.708 118.726 101.166 117.303 102.087L117.114 102.211C116.274 102.748 115.341 103.124 114.363 103.322C114.363 104.309 114.291 106.327 113.419 106.719L111.539 107.561L111.249 124.482C111.247 124.533 111.236 124.583 111.215 124.629C111.193 124.675 111.163 124.717 111.125 124.751C111.086 124.793 111.037 124.824 110.983 124.843C110.928 124.862 110.87 124.868 110.813 124.86V124.86ZM101.841 123.147L110.458 124.134L110.741 107.379C110.743 107.311 110.765 107.245 110.804 107.188C110.842 107.132 110.896 107.087 110.959 107.06L113.049 106.124C113.412 105.957 113.608 104.396 113.557 103.097C113.553 103.005 113.584 102.915 113.643 102.845C113.702 102.775 113.786 102.73 113.877 102.719C114.862 102.567 115.805 102.208 116.643 101.666L116.839 101.543C118.08 100.73 118.588 100.389 118.603 100.026C118.603 99.358 119.394 94.9443 119.612 93.9933C119.757 93.3835 118.886 92.8899 118.661 92.7955L112.541 91.6268C112.482 91.6151 112.427 91.5891 112.38 91.5512C112.333 91.5132 112.296 91.4644 112.272 91.409C112.246 91.3561 112.232 91.2977 112.232 91.2384C112.232 91.1791 112.246 91.1207 112.272 91.0678L113.565 89.1078C113.598 89.0612 113.641 89.0227 113.692 88.9951C113.742 88.9675 113.798 88.9514 113.855 88.9481C113.899 88.9481 118.82 88.694 120.853 88.3601C122.886 88.0262 122.849 87.714 122.864 87.1768C122.798 87.068 122.406 86.8647 120.526 86.8647H120.134C117.231 86.7776 113.55 86.7703 112.831 87.0244C111.851 87.3728 109.928 88.636 109.877 89.9935C109.826 91.5905 107.634 105.732 107.539 106.334C107.539 106.334 107.539 106.378 107.539 106.392L101.841 123.147Z" fill="#263238"/>
<path d="M119.466 95.2642H119.401L111.924 93.9212C111.828 93.9039 111.742 93.849 111.687 93.7687C111.631 93.6884 111.609 93.5892 111.626 93.4929C111.644 93.3966 111.699 93.3112 111.779 93.2554C111.859 93.1996 111.958 93.178 112.055 93.1953L119.532 94.5455C119.628 94.5542 119.717 94.6007 119.779 94.6749C119.841 94.7491 119.871 94.8449 119.862 94.9412C119.853 95.0374 119.807 95.1263 119.733 95.1882C119.659 95.2502 119.563 95.2801 119.466 95.2715V95.2642Z" fill="#263238"/>
<path d="M118.617 98.6176H118.537L112.381 97.1221C112.285 97.1 112.201 97.0405 112.149 96.9568C112.097 96.8731 112.08 96.772 112.102 96.6757C112.124 96.5794 112.183 96.4959 112.267 96.4435C112.351 96.3911 112.452 96.3741 112.548 96.3962L118.711 97.8916C118.758 97.9017 118.802 97.9212 118.841 97.949C118.879 97.9767 118.912 98.0121 118.936 98.0529C118.961 98.0937 118.977 98.1391 118.983 98.1862C118.989 98.2334 118.986 98.2814 118.973 98.3272C118.957 98.4098 118.913 98.4843 118.848 98.5374C118.783 98.5906 118.701 98.619 118.617 98.6176Z" fill="#263238"/>
<path d="M113.92 103.431C113.859 103.433 113.799 103.418 113.746 103.389C113.692 103.359 113.647 103.316 113.615 103.264C113.354 102.858 112.766 101.863 112.962 101.319C112.993 101.232 113.044 101.154 113.111 101.091C113.178 101.028 113.259 100.982 113.347 100.956C113.92 100.782 115.256 100.44 115.256 100.44L115.438 101.166C115.438 101.166 114.247 101.471 113.644 101.645C113.765 102.092 113.961 102.514 114.225 102.894C114.277 102.975 114.295 103.073 114.274 103.167C114.254 103.261 114.197 103.343 114.116 103.395C114.055 103.423 113.988 103.436 113.92 103.431V103.431Z" fill="#263238"/>
<path d="M102.196 114.603L112.432 118.464C112.432 118.464 105.303 163.211 103.59 166.724C101.877 170.238 97.8698 174.318 92.7012 174.811C87.5325 175.305 83.794 169.73 83.6416 163.871C83.4891 158.013 102.196 114.603 102.196 114.603Z" fill="#F28888"/>
<path d="M92.0407 175.204C90.2552 175.186 88.5399 174.506 87.2278 173.295C84.8757 171.204 83.3513 167.603 83.2569 163.858C83.0972 158.014 101.1 116.208 101.863 114.429C101.901 114.344 101.97 114.277 102.057 114.242C102.144 114.206 102.24 114.206 102.327 114.24L112.563 118.095C112.641 118.123 112.707 118.177 112.75 118.249C112.792 118.321 112.808 118.405 112.795 118.487C112.505 120.316 105.637 163.335 103.91 166.848C102.066 170.623 97.8844 174.652 92.7085 175.146C92.4908 175.197 92.2657 175.204 92.0407 175.204ZM102.392 115.068C100.694 119.031 83.8377 158.442 83.9828 163.865C84.07 167.386 85.5 170.79 87.7141 172.75C88.3693 173.365 89.1473 173.835 89.9968 174.127C90.8464 174.42 91.7483 174.53 92.6432 174.449C97.536 173.984 101.5 170.151 103.264 166.565C104.868 163.291 111.409 122.574 112.033 118.698L102.392 115.068Z" fill="#263238"/>
<path opacity="0.3" d="M93.725 152.068C91.228 153.341 88.621 154.386 85.9357 155.19C85.0138 157.868 84.3096 160.14 83.9322 161.767L88.7741 161.157C92.2239 160.759 95.6274 160.03 98.9372 158.979C98.9372 158.979 90.9519 163.923 83.8305 164.75H83.6636C84.1354 170.253 87.736 175.305 92.6724 174.833C97.8628 174.34 101.863 170.253 103.561 166.746C104.403 165.019 106.552 153.36 108.519 141.941C103.959 145.829 98.9999 149.224 93.725 152.068V152.068Z" fill="white"/>
<path d="M203.275 37.7481V35.759C203.275 35.4779 203.163 35.2083 202.965 35.0096C202.766 34.8108 202.496 34.6992 202.215 34.6992H200.684C200.451 33.6969 200.053 32.7402 199.508 31.868L200.589 30.7791C200.787 30.5793 200.899 30.3092 200.899 30.0278C200.899 29.7463 200.787 29.4763 200.589 29.2764L199.188 27.8754C198.988 27.6772 198.718 27.5661 198.437 27.5661C198.155 27.5661 197.885 27.6772 197.685 27.8754L196.597 28.957C195.724 28.4112 194.768 28.0138 193.765 27.781V26.2493C193.765 25.9682 193.654 25.6986 193.455 25.4999C193.256 25.3011 192.987 25.1895 192.706 25.1895H190.717C190.435 25.1895 190.166 25.3011 189.967 25.4999C189.768 25.6986 189.657 25.9682 189.657 26.2493V27.781C188.654 28.0138 187.698 28.4112 186.826 28.957L185.737 27.8754C185.537 27.6772 185.267 27.5661 184.985 27.5661C184.704 27.5661 184.434 27.6772 184.234 27.8754L182.833 29.2764C182.635 29.4763 182.524 29.7463 182.524 30.0278C182.524 30.3092 182.635 30.5793 182.833 30.7791L183.915 31.868C183.368 32.7391 182.973 33.6963 182.746 34.6992H181.207C180.926 34.6992 180.656 34.8108 180.457 35.0096C180.259 35.2083 180.147 35.4779 180.147 35.759V37.7481C180.147 38.0292 180.259 38.2987 180.457 38.4975C180.656 38.6963 180.926 38.8079 181.207 38.8079H182.746C182.973 39.8108 183.368 40.768 183.915 41.639L182.833 42.7279C182.635 42.9278 182.524 43.1978 182.524 43.4793C182.524 43.7607 182.635 44.0308 182.833 44.2306L184.234 45.6317C184.434 45.8298 184.704 45.941 184.985 45.941C185.267 45.941 185.537 45.8298 185.737 45.6317L186.826 44.55C187.702 45.1038 188.667 45.504 189.678 45.7333V47.2723C189.678 47.5534 189.79 47.8229 189.989 48.0217C190.188 48.2205 190.457 48.3321 190.738 48.3321H192.727C193.008 48.3321 193.278 48.2205 193.477 48.0217C193.676 47.8229 193.787 47.5534 193.787 47.2723V45.7333C194.79 45.5061 195.747 45.111 196.618 44.5645L197.707 45.6462C197.907 45.8443 198.177 45.9555 198.459 45.9555C198.74 45.9555 199.01 45.8443 199.21 45.6462L200.567 44.2814C200.766 44.0816 200.877 43.8115 200.877 43.5301C200.877 43.2487 200.766 42.9786 200.567 42.7788L199.486 41.6899C200.032 40.8176 200.429 39.861 200.662 38.8587H202.193C202.339 38.8619 202.483 38.8351 202.618 38.78C202.753 38.7249 202.874 38.6427 202.976 38.5386C203.077 38.4344 203.156 38.3104 203.208 38.1745C203.259 38.0385 203.282 37.8933 203.275 37.7481ZM192.176 41.2761C191.241 41.3759 190.298 41.1834 189.478 40.7251C188.657 40.2668 187.999 39.5653 187.593 38.7172C187.188 37.8691 187.055 36.9162 187.214 35.9897C187.373 35.0632 187.815 34.2088 188.48 33.5441C189.145 32.8794 189.999 32.4372 190.925 32.2784C191.852 32.1196 192.805 32.252 193.653 32.6574C194.501 33.0628 195.203 33.7212 195.661 34.5419C196.119 35.3626 196.312 36.3052 196.212 37.2399C196.105 38.276 195.646 39.2441 194.911 39.9827C194.177 40.7212 193.211 41.1854 192.176 41.2979V41.2761Z" fill="#263238"/>
<path d="M17.4369 124.468V122.973C17.4369 122.759 17.352 122.554 17.2009 122.403C17.0497 122.252 16.8448 122.167 16.6311 122.167H15.4551C15.2803 121.411 14.981 120.69 14.5694 120.033L15.3897 119.22C15.4644 119.145 15.5236 119.057 15.564 118.96C15.6044 118.863 15.6252 118.759 15.6252 118.653C15.6252 118.548 15.6044 118.444 15.564 118.347C15.5236 118.25 15.4644 118.161 15.3897 118.087L14.3299 117.027C14.2557 116.953 14.1674 116.893 14.0703 116.853C13.9731 116.813 13.8689 116.792 13.7636 116.792C13.6584 116.792 13.5542 116.813 13.457 116.853C13.3599 116.893 13.2716 116.953 13.1974 117.027L12.3771 117.84C11.7207 117.429 10.999 117.132 10.2429 116.962V115.8C10.2429 115.589 10.1588 115.386 10.009 115.236C9.85925 115.086 9.65614 115.002 9.44436 115.002H7.97072C7.75827 115.002 7.5544 115.086 7.4035 115.235C7.25259 115.385 7.16685 115.588 7.16494 115.8V116.962C6.40886 117.132 5.68714 117.429 5.0307 117.84L4.2104 117.027C4.13619 116.953 4.04797 116.893 3.95079 116.853C3.85362 116.813 3.74942 116.792 3.64418 116.792C3.53893 116.792 3.43473 116.813 3.33755 116.853C3.24038 116.893 3.15215 116.953 3.07795 117.027L2.02535 118.087C1.94984 118.161 1.88983 118.249 1.84887 118.346C1.8079 118.443 1.78679 118.548 1.78679 118.653C1.78679 118.759 1.8079 118.863 1.84887 118.961C1.88983 119.058 1.94984 119.146 2.02535 119.22L2.83839 120.033C2.42684 120.69 2.12754 121.411 1.95276 122.167H0.798523C0.586076 122.169 0.382986 122.255 0.233439 122.405C0.0838914 122.556 -8.62118e-06 122.76 6.64439e-10 122.973V124.468C6.64439e-10 124.68 0.0841293 124.883 0.233882 125.033C0.383634 125.182 0.586741 125.267 0.798523 125.267H1.95276C2.1249 126.023 2.42438 126.745 2.83839 127.401L2.02535 128.221C1.94984 128.295 1.88983 128.383 1.84887 128.48C1.8079 128.577 1.78679 128.682 1.78679 128.787C1.78679 128.893 1.8079 128.997 1.84887 129.095C1.88983 129.192 1.94984 129.28 2.02535 129.354L3.11424 130.413C3.18845 130.488 3.27668 130.547 3.37385 130.588C3.47102 130.628 3.57523 130.649 3.68047 130.649C3.78571 130.649 3.88991 130.628 3.98709 130.588C4.08426 130.547 4.17249 130.488 4.24669 130.413L5.067 129.593C5.72309 130.007 6.44478 130.307 7.20123 130.479V131.633C7.20123 131.847 7.28613 132.052 7.43724 132.203C7.58835 132.354 7.79331 132.439 8.00702 132.439H9.50244C9.71488 132.437 9.91797 132.351 10.0675 132.2C10.2171 132.049 10.301 131.845 10.301 131.633V130.479C11.0574 130.307 11.7791 130.007 12.4352 129.593L13.2555 130.413C13.3297 130.488 13.4179 130.547 13.5151 130.588C13.6123 130.628 13.7165 130.649 13.8217 130.649C13.927 130.649 14.0312 130.628 14.1283 130.588C14.2255 130.547 14.3137 130.488 14.3879 130.413L15.4478 129.354C15.5224 129.279 15.5817 129.191 15.6221 129.094C15.6625 128.997 15.6833 128.893 15.6833 128.787C15.6833 128.682 15.6625 128.578 15.6221 128.481C15.5817 128.384 15.5224 128.295 15.4478 128.221L14.6275 127.401C15.0415 126.745 15.341 126.023 15.5131 125.267H16.6674C16.8735 125.257 17.0682 125.169 17.2113 125.021C17.3545 124.872 17.4352 124.674 17.4369 124.468V124.468ZM9.06687 127.125C8.36288 127.198 7.65363 127.051 7.03659 126.704C6.41955 126.357 5.92499 125.828 5.62086 125.189C5.31674 124.55 5.21798 123.832 5.33814 123.135C5.45831 122.438 5.79151 121.794 6.29196 121.294C6.79241 120.793 7.43556 120.46 8.13303 120.34C8.83049 120.22 9.54806 120.319 10.1871 120.623C10.8262 120.927 11.3554 121.421 11.7021 122.039C12.0487 122.656 12.1958 123.365 12.123 124.069C12.0422 124.852 11.6942 125.583 11.1376 126.14C10.581 126.696 9.84982 127.044 9.06687 127.125V127.125Z" fill="#263238"/>
<path d="M240 104.533V103.038C240 102.824 239.915 102.619 239.764 102.468C239.613 102.317 239.408 102.232 239.194 102.232H238.04C237.868 101.475 237.568 100.754 237.154 100.098L237.975 99.2847C238.049 99.2105 238.108 99.1222 238.149 99.0251C238.189 98.9279 238.21 98.8237 238.21 98.7184C238.21 98.6132 238.189 98.509 238.149 98.4118C238.108 98.3146 238.049 98.2264 237.975 98.1522L236.915 97.0923C236.84 97.0177 236.752 96.9585 236.655 96.9181C236.558 96.8777 236.454 96.8569 236.348 96.8569C236.243 96.8569 236.139 96.8777 236.042 96.9181C235.945 96.9585 235.856 97.0177 235.782 97.0923L234.962 97.9054C234.304 97.4943 233.583 97.195 232.828 97.0197V95.822C232.828 95.7171 232.807 95.6133 232.767 95.5164C232.727 95.4195 232.668 95.3315 232.594 95.2573C232.52 95.1832 232.432 95.1244 232.335 95.0842C232.238 95.0441 232.134 95.0234 232.029 95.0234H230.526C230.315 95.0234 230.112 95.1076 229.962 95.2573C229.812 95.4071 229.728 95.6102 229.728 95.822V96.9762C228.972 97.1515 228.251 97.4508 227.594 97.8618L226.773 97.0488C226.699 96.9742 226.611 96.9149 226.514 96.8745C226.417 96.8341 226.312 96.8133 226.207 96.8133C226.102 96.8133 225.998 96.8341 225.901 96.8745C225.803 96.9149 225.715 96.9742 225.641 97.0488L224.588 98.1086C224.513 98.1823 224.453 98.2704 224.412 98.3677C224.371 98.4649 224.35 98.5693 224.35 98.6749C224.35 98.7804 224.371 98.8848 224.412 98.9821C224.453 99.0793 224.513 99.1674 224.588 99.2411L225.401 100.054C224.987 100.71 224.688 101.432 224.516 102.188H223.362C223.149 102.19 222.946 102.276 222.796 102.427C222.647 102.578 222.563 102.782 222.563 102.994V104.533C222.563 104.745 222.647 104.948 222.797 105.098C222.947 105.248 223.15 105.332 223.362 105.332H224.523C224.695 106.088 224.995 106.81 225.409 107.466L224.596 108.286C224.52 108.36 224.46 108.448 224.419 108.545C224.378 108.642 224.357 108.747 224.357 108.852C224.357 108.958 224.378 109.062 224.419 109.16C224.46 109.257 224.52 109.345 224.596 109.419L225.648 110.479C225.722 110.553 225.811 110.612 225.908 110.653C226.005 110.693 226.109 110.714 226.214 110.714C226.32 110.714 226.424 110.693 226.521 110.653C226.618 110.612 226.706 110.553 226.781 110.479L227.601 109.658C228.257 110.072 228.979 110.372 229.735 110.544V111.698C229.735 111.911 229.819 112.114 229.969 112.265C230.118 112.416 230.321 112.502 230.534 112.504H232.036C232.249 112.502 232.452 112.416 232.601 112.265C232.751 112.114 232.835 111.911 232.835 111.698V110.544C233.591 110.372 234.313 110.072 234.969 109.658L235.789 110.479C235.864 110.553 235.952 110.612 236.049 110.653C236.146 110.693 236.25 110.714 236.356 110.714C236.461 110.714 236.565 110.693 236.662 110.653C236.759 110.612 236.848 110.553 236.922 110.479L237.982 109.419C238.056 109.344 238.116 109.256 238.156 109.159C238.196 109.062 238.217 108.958 238.217 108.852C238.217 108.747 238.196 108.643 238.156 108.546C238.116 108.449 238.056 108.36 237.982 108.286L237.154 107.437C237.568 106.781 237.868 106.059 238.04 105.303H239.194C239.402 105.303 239.601 105.223 239.751 105.08C239.901 104.936 239.991 104.74 240 104.533V104.533ZM231.63 107.19C230.926 107.263 230.217 107.116 229.6 106.769C228.983 106.422 228.488 105.893 228.184 105.254C227.88 104.615 227.781 103.897 227.901 103.2C228.021 102.503 228.355 101.859 228.855 101.359C229.355 100.859 229.999 100.525 230.696 100.405C231.393 100.285 232.111 100.384 232.75 100.688C233.389 100.992 233.918 101.487 234.265 102.104C234.612 102.721 234.759 103.43 234.686 104.134C234.602 104.914 234.253 105.642 233.696 106.196C233.14 106.749 232.411 107.095 231.63 107.176V107.19Z" fill="#263238"/>
<path d="M117.659 7.11387V6.34438C117.659 6.29037 117.648 6.23691 117.627 6.18711C117.606 6.13731 117.576 6.09217 117.537 6.05432C117.499 6.01648 117.453 5.98669 117.403 5.96669C117.353 5.94669 117.299 5.93689 117.245 5.93786H116.657C116.566 5.54984 116.411 5.17949 116.2 4.8417L116.621 4.42792C116.697 4.35051 116.74 4.24621 116.74 4.13755C116.74 4.02889 116.697 3.92459 116.621 3.84718L116.076 3.30273C116 3.22693 115.897 3.18437 115.79 3.18437C115.682 3.18437 115.579 3.22693 115.503 3.30273L115.082 3.72377C114.744 3.51217 114.374 3.35765 113.986 3.26643V2.67843C113.986 2.56993 113.943 2.46577 113.867 2.38838C113.791 2.31098 113.688 2.26655 113.579 2.26465H112.81C112.701 2.26655 112.598 2.31098 112.522 2.38838C112.446 2.46577 112.403 2.56993 112.403 2.67843V3.26643C112.015 3.35676 111.644 3.51133 111.307 3.72377L110.886 3.30273C110.809 3.22648 110.704 3.18373 110.596 3.18373C110.487 3.18373 110.383 3.22648 110.305 3.30273L109.768 3.84718C109.692 3.92459 109.649 4.02889 109.649 4.13755C109.649 4.24621 109.692 4.35051 109.768 4.42792L110.182 4.8417C109.973 5.17996 109.821 5.55028 109.732 5.93786H109.136C109.029 5.93786 108.925 5.98068 108.849 6.05692C108.773 6.13316 108.73 6.23656 108.73 6.34438V7.11387C108.73 7.22236 108.773 7.32652 108.849 7.40391C108.925 7.48131 109.028 7.52574 109.136 7.52765H109.732C109.82 7.91332 109.972 8.28144 110.182 8.61654L109.768 9.03758C109.692 9.11499 109.649 9.21929 109.649 9.32795C109.649 9.43661 109.692 9.54091 109.768 9.61833L110.305 10.1628C110.383 10.239 110.487 10.2818 110.596 10.2818C110.704 10.2818 110.809 10.239 110.886 10.1628L111.307 9.74173C111.643 9.95495 112.014 10.1073 112.403 10.1918V10.7871C112.403 10.8949 112.446 10.9983 112.522 11.0745C112.598 11.1508 112.702 11.1936 112.81 11.1936H113.579C113.687 11.1936 113.79 11.1508 113.867 11.0745C113.943 10.9983 113.986 10.8949 113.986 10.7871V10.1628C114.374 10.0768 114.745 9.92459 115.082 9.71269L115.503 10.1337C115.579 10.2095 115.682 10.2521 115.79 10.2521C115.897 10.2521 116 10.2095 116.076 10.1337L116.621 9.58929C116.697 9.51188 116.74 9.40757 116.74 9.29891C116.74 9.19025 116.697 9.08596 116.621 9.00855L116.2 8.58751C116.412 8.25275 116.567 7.88465 116.657 7.49861H117.245C117.35 7.49887 117.451 7.45928 117.528 7.38786C117.605 7.31643 117.652 7.2185 117.659 7.11387V7.11387ZM113.376 8.47861C113.015 8.52345 112.648 8.45485 112.327 8.28231C112.007 8.10977 111.747 7.84183 111.586 7.51555C111.424 7.18926 111.368 6.82076 111.424 6.46104C111.481 6.10132 111.649 5.76816 111.903 5.50764C112.157 5.24713 112.487 5.07214 112.845 5.00689C113.203 4.94165 113.573 4.98936 113.903 5.14344C114.233 5.29752 114.507 5.55035 114.687 5.86694C114.867 6.18353 114.944 6.54824 114.908 6.9106C114.867 7.30642 114.693 7.67673 114.415 7.96139C114.137 8.24605 113.771 8.42833 113.376 8.47861V8.47861Z" fill="#263238"/>
<path d="M24.2752 57.9434H19.3389V62.8797H24.2752V57.9434ZM20.3407 58.9451H23.2444V61.8852H20.3407V58.9451Z" fill="#263238"/>
<path d="M223.674 154.412H218.716V159.348H223.652L223.674 154.412ZM219.732 155.414H222.672V158.354H219.732V155.414Z" fill="#263238"/>
<path d="M149.614 13.0078H144.671V17.9441H149.607L149.614 13.0078ZM145.673 14.0023H148.613V16.9061H145.673V14.0023Z" fill="#263238"/>
<path d="M21.3714 136.772H16.4351V141.716H21.3714V136.772ZM17.4296 137.774H20.3333V140.678H17.4296V137.774Z" fill="#263238"/>
<path opacity="0.9" d="M165.505 47.1856C164.918 47.1841 164.343 47.357 163.854 47.6824C163.364 48.0078 162.983 48.471 162.757 49.0134C162.531 49.5558 162.471 50.153 162.585 50.7294C162.699 51.3058 162.981 51.8355 163.396 52.2515C163.811 52.6674 164.34 52.9509 164.916 53.0661C165.492 53.1812 166.089 53.1229 166.632 52.8984C167.175 52.6738 167.639 52.2933 167.966 51.8049C168.293 51.3165 168.467 50.7421 168.467 50.1546C168.467 49.3684 168.155 48.6143 167.6 48.0577C167.045 47.5011 166.291 47.1875 165.505 47.1856V47.1856ZM165.505 51.9331C165.153 51.9331 164.81 51.8288 164.517 51.6334C164.225 51.438 163.997 51.1602 163.862 50.8352C163.727 50.5102 163.692 50.1526 163.761 49.8076C163.829 49.4626 163.999 49.1457 164.248 48.897C164.496 48.6483 164.813 48.4789 165.158 48.4103C165.503 48.3416 165.861 48.3769 166.186 48.5115C166.511 48.6461 166.788 48.874 166.984 49.1665C167.179 49.459 167.284 49.8029 167.284 50.1546C167.276 50.6213 167.085 51.0662 166.753 51.3935C166.42 51.7208 165.972 51.9042 165.505 51.9041V51.9331Z" fill="#263238"/>
<path d="M112.73 61.1094L106.08 51.9046C107.3 51.9007 108.468 51.4146 109.331 50.5523C110.193 49.69 110.679 48.5216 110.683 47.3022V22.243C110.677 21.0242 110.19 19.8568 109.328 18.995C108.467 18.1331 107.299 17.6464 106.08 17.6406H48.2963C47.0768 17.6445 45.9084 18.1306 45.0461 18.9929C44.1838 19.8552 43.6977 21.0236 43.6938 22.243V47.3022C43.6958 48.5222 44.1813 49.6917 45.044 50.5544C45.9067 51.4171 47.0762 51.9026 48.2963 51.9046H98.2621L112.73 61.1094Z" fill="#263238"/>
<path d="M62.8949 33.7492C62.8949 33.1922 62.7298 32.6476 62.4203 32.1844C62.1108 31.7212 61.6709 31.3602 61.1562 31.147C60.6415 30.9338 60.0752 30.8781 59.5288 30.9867C58.9825 31.0954 58.4806 31.3637 58.0867 31.7576C57.6928 32.1515 57.4245 32.6534 57.3158 33.1997C57.2072 33.7461 57.2629 34.3124 57.4761 34.8271C57.6893 35.3418 58.0503 35.7817 58.5135 36.0912C58.9767 36.4006 59.5213 36.5658 60.0783 36.5658C60.4482 36.5658 60.8145 36.493 61.1562 36.3514C61.4979 36.2099 61.8084 36.0024 62.07 35.7409C62.3315 35.4793 62.539 35.1688 62.6805 34.8271C62.8221 34.4854 62.8949 34.1191 62.8949 33.7492Z" fill="#F28888"/>
<path d="M79.5112 33.7492C79.5112 33.1918 79.3458 32.647 79.036 32.1836C78.7261 31.7203 78.2858 31.3593 77.7707 31.1463C77.2556 30.9334 76.6889 30.878 76.1424 30.9873C75.5958 31.0965 75.0939 31.3655 74.7003 31.7602C74.3067 32.1548 74.039 32.6573 73.9312 33.2042C73.8233 33.751 73.8801 34.3176 74.0944 34.8321C74.3087 35.3467 74.6709 35.7861 75.135 36.0947C75.5991 36.4033 76.1444 36.5673 76.7018 36.5658C77.0713 36.5658 77.4373 36.4929 77.7786 36.3513C78.1199 36.2097 78.4299 36.0021 78.6909 35.7404C78.9518 35.4788 79.1586 35.1682 79.2994 34.8265C79.4401 34.4849 79.5121 34.1188 79.5112 33.7492V33.7492Z" fill="#F28888"/>
<path d="M96.1352 33.7492C96.1352 33.1922 95.97 32.6476 95.6605 32.1844C95.351 31.7212 94.9111 31.3602 94.3964 31.147C93.8818 30.9338 93.3154 30.8781 92.7691 30.9867C92.2227 31.0954 91.7208 31.3637 91.3269 31.7576C90.933 32.1515 90.6648 32.6534 90.5561 33.1997C90.4474 33.7461 90.5032 34.3124 90.7164 34.8271C90.9295 35.3418 91.2905 35.7817 91.7537 36.0912C92.2169 36.4006 92.7615 36.5658 93.3186 36.5658C93.6884 36.5658 94.0547 36.493 94.3964 36.3514C94.7382 36.2099 95.0487 36.0024 95.3102 35.7409C95.5718 35.4793 95.7792 35.1688 95.9208 34.8271C96.0623 34.4854 96.1352 34.1191 96.1352 33.7492Z" fill="#F28888"/>
</svg>
