<svg width="53" height="53" viewBox="0 0 53 53" fill="none" xmlns="http://www.w3.org/2000/svg">
<g filter="url(#filter0_b_259_3409)">
<circle cx="26.5" cy="26.5" r="26.5" fill="white" fill-opacity="0.25"/>
</g>
<path fill-rule="evenodd" clip-rule="evenodd" d="M17 27C17 28.1819 17.2328 29.3522 17.6851 30.4442C18.1374 31.5361 18.8003 32.5282 19.636 33.364C20.4718 34.1997 21.4639 34.8626 22.5558 35.3149C23.6478 35.7672 24.8181 36 26 36C27.1819 36 28.3522 35.7672 29.4442 35.3149C30.5361 34.8626 31.5282 34.1997 32.364 33.364C33.1997 32.5282 33.8626 31.5361 34.3149 30.4442C34.7672 29.3522 35 28.1819 35 27C35 24.6131 34.0518 22.3239 32.364 20.636C30.6761 18.9482 28.3869 18 26 18C23.6131 18 21.3239 18.9482 19.636 20.636C17.9482 22.3239 17 24.6131 17 27ZM21.101 32C22.408 33.2841 24.1677 34.0025 26 34C27.8323 34.0025 29.592 33.2841 30.899 32H21.101ZM19.674 30C19.1688 28.9331 18.9416 27.7557 19.0135 26.5774C19.0855 25.399 19.4543 24.258 20.0856 23.2605C20.717 22.263 21.5903 21.4414 22.6245 20.872C23.6586 20.3027 24.82 20.0041 26.0005 20.0041C27.181 20.0041 28.3424 20.3027 29.3765 20.872C30.4107 21.4414 31.284 22.263 31.9154 23.2605C32.5467 24.258 32.9155 25.399 32.9875 26.5774C33.0594 27.7557 32.8322 28.9331 32.327 30H19.674Z" fill="white"/>
<defs>
<filter id="filter0_b_259_3409" x="-4" y="-4" width="61" height="61" filterUnits="userSpaceOnUse" color-interpolation-filters="sRGB">
<feFlood flood-opacity="0" result="BackgroundImageFix"/>
<feGaussianBlur in="BackgroundImage" stdDeviation="2"/>
<feComposite in2="SourceAlpha" operator="in" result="effect1_backgroundBlur_259_3409"/>
<feBlend mode="normal" in="SourceGraphic" in2="effect1_backgroundBlur_259_3409" result="shape"/>
</filter>
</defs>
</svg>
