<svg width="53" height="53" viewBox="0 0 53 53" fill="none" xmlns="http://www.w3.org/2000/svg">
<g filter="url(#filter0_b_60_5127)">
<circle cx="26.5" cy="26.5" r="26.5" fill="white" fill-opacity="0.25"/>
</g>
<path d="M28.378 18.026C29.9149 18.1096 31.4048 18.5858 32.7053 19.4091C34.0058 20.2324 35.0735 21.3754 35.8065 22.7288C36.5395 24.0823 36.9133 25.6011 36.8922 27.1401C36.8711 28.6792 36.4558 30.1871 35.686 31.52C34.9264 32.8359 33.8462 33.9382 32.5459 34.7243C31.2456 35.5103 29.7675 35.9545 28.2493 36.0154C26.7311 36.0764 25.2222 35.7522 23.863 35.073C22.5039 34.3939 21.3387 33.3818 20.476 32.131C20.4174 32.0459 20.3792 31.9485 20.3642 31.8462C20.3492 31.744 20.3579 31.6397 20.3896 31.5413C20.4213 31.443 20.4751 31.3532 20.5469 31.2789C20.6188 31.2047 20.7067 31.1479 20.804 31.113C24.195 29.899 26.012 28.492 27.066 26.48C28.176 24.362 28.462 22.041 27.686 18.86C27.661 18.7577 27.6604 18.651 27.684 18.5483C27.7077 18.4457 27.7551 18.3501 27.8223 18.269C27.8896 18.188 27.9748 18.1238 28.0713 18.0816C28.1678 18.0394 28.2728 18.0204 28.378 18.026ZM25.994 18.653L26 18.752V24C25.9998 24.4171 25.8693 24.8238 25.6266 25.163C25.3838 25.5022 25.0411 25.7571 24.6464 25.8919C24.2517 26.0267 23.8247 26.0347 23.4251 25.9149C23.0256 25.795 22.6736 25.5532 22.4183 25.2233C22.163 24.8934 22.0173 24.492 22.0014 24.0751C21.9856 23.6583 22.1005 23.247 22.33 22.8987C22.5596 22.5504 22.8922 22.2826 23.2815 22.1328C23.6708 21.9829 24.0972 21.9585 24.501 22.063L24.5 19.764L21 20.83V25C20.9998 25.4171 20.8693 25.8238 20.6266 26.163C20.3838 26.5022 20.0411 26.7571 19.6464 26.8919C19.2517 27.0267 18.8247 27.0347 18.4251 26.9149C18.0256 26.795 17.6736 26.5532 17.4183 26.2233C17.163 25.8934 17.0173 25.492 17.0014 25.0751C16.9856 24.6583 17.1005 24.247 17.33 23.8987C17.5596 23.5504 17.8922 23.2826 18.2815 23.1328C18.6708 22.9829 19.0972 22.9585 19.501 23.063L19.5 20.273C19.5001 20.1309 19.5405 19.9917 19.6166 19.8716C19.6928 19.7516 19.8014 19.6557 19.93 19.595L20.032 19.555L25.032 18.035C25.1361 18.0033 25.2458 17.9946 25.3535 18.0095C25.4613 18.0245 25.5645 18.0626 25.656 18.1214C25.7475 18.1802 25.8251 18.2582 25.8835 18.35C25.9419 18.4418 25.9796 18.5452 25.994 18.653Z" fill="white"/>
<defs>
<filter id="filter0_b_60_5127" x="-4" y="-4" width="61" height="61" filterUnits="userSpaceOnUse" color-interpolation-filters="sRGB">
<feFlood flood-opacity="0" result="BackgroundImageFix"/>
<feGaussianBlur in="BackgroundImage" stdDeviation="2"/>
<feComposite in2="SourceAlpha" operator="in" result="effect1_backgroundBlur_60_5127"/>
<feBlend mode="normal" in="SourceGraphic" in2="effect1_backgroundBlur_60_5127" result="shape"/>
</filter>
</defs>
</svg>
